<svg width="100%" height="100%" viewBox="0 0 180 180" fill="none" xmlns="http://www.w3.org/2000/svg">
<g clip-path="url(#clip0_620_16)">
<path d="M139.895 128.434L53.7795 178.144C51.6742 179.359 49.2861 180 46.8551 180C44.4241 180 42.0357 179.361 39.93 178.146C37.8244 176.931 36.0755 175.184 34.859 173.079C33.6426 170.974 33.0014 168.586 33 166.155V63.5368C33.0004 61.1154 33.6372 58.7366 34.8464 56.6389C36.0557 54.5412 37.7949 52.7981 39.89 51.5842L126.005 1.85597C128.112 0.63968 130.502 -0.000442775 132.934 2.29784e-07C135.367 0.000443234 137.757 0.641421 139.863 1.85847C141.969 3.07553 143.718 4.82573 144.933 6.93305C146.148 9.04039 146.787 11.4305 146.785 13.8631V116.463C146.784 118.887 146.147 121.268 144.938 123.369C143.729 125.469 141.99 127.216 139.895 128.434Z" fill="#0D285A"/>
<path d="M103.855 64.5421V72.4007C103.856 72.8377 103.742 73.2671 103.523 73.6458C103.305 74.0243 102.991 74.3388 102.613 74.5572L79.6399 87.8254C79.264 88.0259 78.8428 88.1266 78.4167 88.1175C77.9906 88.1083 77.5741 87.9897 77.2071 87.7732C76.8401 87.5566 76.5349 87.2494 76.3209 86.8808C76.1069 86.5123 75.9912 86.0949 75.9848 85.6689V59.3518C75.9819 58.9146 75.8645 58.4859 75.6445 58.1081C75.4243 57.7304 75.109 57.4169 74.7302 57.1989C74.3513 56.9807 73.922 56.8657 73.4848 56.865C73.0477 56.8645 72.6178 56.9783 72.2384 57.1952L63.2468 62.3856C62.8696 62.6054 62.5563 62.9201 62.3383 63.2984C62.1202 63.6768 62.0049 64.1055 62.0038 64.5421V120.612C62.01 121.038 62.1257 121.456 62.3399 121.824C62.5539 122.193 62.8591 122.5 63.2261 122.716C63.5933 122.933 64.0098 123.051 64.4358 123.061C64.8618 123.07 65.283 122.969 65.659 122.769L74.6508 117.578C75.0291 117.36 75.3433 117.045 75.5615 116.667C75.7797 116.288 75.8941 115.859 75.8936 115.422V107.563C75.8929 107.126 76.0073 106.697 76.2255 106.318C76.4437 105.94 76.7579 105.625 77.1362 105.407L100.2 92.1385C100.577 91.9433 100.997 91.8468 101.421 91.8585C101.845 91.8702 102.26 91.9894 102.625 92.205C102.99 92.4205 103.295 92.7253 103.51 93.091C103.725 93.4566 103.844 93.8709 103.855 94.2951V120.612C103.862 121.038 103.977 121.456 104.191 121.824C104.405 122.193 104.711 122.5 105.078 122.716C105.445 122.933 105.861 123.051 106.287 123.061C106.713 123.07 107.135 122.969 107.51 122.769L116.502 117.578C116.885 117.364 117.204 117.051 117.426 116.672C117.648 116.292 117.764 115.861 117.763 115.422V59.3518C117.752 58.9276 117.633 58.5135 117.418 58.1478C117.203 57.7823 116.898 57.4772 116.533 57.2618C116.167 57.0461 115.753 56.927 115.329 56.9153C114.905 56.9038 114.485 57.0001 114.108 57.1952L105.116 62.3856C104.736 62.6032 104.419 62.9168 104.198 63.2953C103.977 63.6738 103.858 64.1037 103.855 64.5421Z" fill="#F87C71"/>
</g>
<defs>
<clipPath id="clip0_620_16">
<rect width="180" height="180" fill="white"/>
</clipPath>
</defs>
</svg>
