<svg width="100%" height="100%" viewBox="0 0 180 180" fill="none" xmlns="http://www.w3.org/2000/svg">
<g clip-path="url(#clip0_1_7)">
<circle cx="90" cy="90" r="90" fill="#01002A"/>
<path fill-rule="evenodd" clip-rule="evenodd" d="M127.756 51.165C127.976 51.3781 128.193 51.5909 128.408 51.8058C128.623 52.0206 128.835 52.2371 129.048 52.4572L127.756 51.165ZM52.0402 128.173C49.9328 126.066 49.9328 122.644 52.0402 120.537C54.1477 118.429 57.5695 118.429 59.677 120.537C76.5363 137.396 103.912 137.396 120.771 120.537L128.408 128.173C107.334 149.248 73.1145 149.248 52.0402 128.173Z" fill="url(#paint0_radial_1_7)"/>
<path fill-rule="evenodd" clip-rule="evenodd" d="M51.3995 52.4572C51.6126 52.2371 51.8253 52.0207 52.0402 51.8058C52.2551 51.5909 52.4715 51.3781 52.6916 51.165L51.3995 52.4572ZM128.408 128.173C126.3 130.281 122.878 130.281 120.771 128.173C118.664 126.066 118.664 122.644 120.771 120.537C137.63 103.677 137.63 76.3019 120.771 59.4425L128.408 51.8058C149.482 72.88 149.482 107.099 128.408 128.173Z" fill="url(#paint1_radial_1_7)"/>
<path fill-rule="evenodd" clip-rule="evenodd" d="M52.6916 128.814C52.4715 128.601 52.2551 128.388 52.0402 128.173C51.8253 127.958 51.6126 127.742 51.3995 127.522L52.6916 128.814ZM128.408 51.8057C130.515 53.9132 130.515 57.3351 128.408 59.4425C126.3 61.5499 122.878 61.5499 120.771 59.4425C103.912 42.5831 76.5363 42.5831 59.677 59.4425L52.0402 51.8057C73.1145 30.7315 107.334 30.7315 128.408 51.8057Z" fill="url(#paint2_radial_1_7)"/>
<path fill-rule="evenodd" clip-rule="evenodd" d="M129.048 127.522C128.835 127.742 128.623 127.958 128.408 128.173C128.193 128.388 127.976 128.601 127.756 128.814L129.048 127.522ZM52.0402 51.8057C54.1477 49.6983 57.5695 49.6983 59.677 51.8057C61.7844 53.9132 61.7844 57.335 59.677 59.4425C42.8176 76.3018 42.8176 103.677 59.677 120.537L52.0402 128.173C30.966 107.099 30.966 72.88 52.0402 51.8057Z" fill="url(#paint3_radial_1_7)"/>
<path fill-rule="evenodd" clip-rule="evenodd" d="M163.448 89.8927C163.448 86.9117 161.028 84.4914 158.047 84.4914H152.648V95.2914H158.097C161.05 95.2914 163.448 92.8936 163.448 89.9402V89.8927ZM161.936 89.8899C161.936 87.5065 160.001 85.5714 157.618 85.5714H154.16V94.2114H157.614C160 94.2114 161.936 92.275 161.936 89.8899Z" fill="white"/>
<path fill-rule="evenodd" clip-rule="evenodd" d="M133.208 84.4914V95.2914H144.008C144.008 94.6952 143.524 94.2114 142.928 94.2114H134.936V90.5394H140.768V89.4594H134.936V85.5714H142.928C143.524 85.5714 144.008 85.0876 144.008 84.4914H133.208Z" fill="white"/>
<path fill-rule="evenodd" clip-rule="evenodd" d="M124.676 90.9714C124.175 93.4351 121.995 95.2914 119.384 95.2914C116.404 95.2914 113.984 92.8718 113.984 89.8914C113.984 86.911 116.404 84.4914 119.384 84.4914C121.995 84.4914 124.175 86.3477 124.676 88.8114H123.12C122.651 87.1903 121.155 86.0034 119.384 86.0034C117.238 86.0034 115.496 87.7457 115.496 89.8914C115.496 92.0371 117.238 93.7794 119.384 93.7794C121.155 93.7794 122.651 92.5925 123.12 90.9714H124.676Z" fill="white"/>
<path fill-rule="evenodd" clip-rule="evenodd" d="M103.832 93.1275L96.056 84.4914L96.0223 84.5217H94.544V95.3217C95.3784 95.3217 96.056 94.6441 96.056 93.8097V86.751L103.832 95.3871L103.905 95.3217H105.344V84.5217C104.51 84.5217 103.832 85.1993 103.832 86.0337V93.1275Z" fill="white"/>
<path fill-rule="evenodd" clip-rule="evenodd" d="M75.104 95.4875L80.4673 84.4914L81.3026 86.2038L81.3008 86.2073L85.8271 95.4875H84.1449L83.6181 94.4075H77.3014L76.7745 95.4875H75.104ZM77.828 93.3275H83.0915L80.4597 87.9318L77.828 93.3275Z" fill="white"/>
<path fill-rule="evenodd" clip-rule="evenodd" d="M55.664 95.2914H66.464C66.464 94.6952 65.9802 94.2114 65.384 94.2114H57.176V86.0034C57.176 85.169 56.4984 84.4914 55.664 84.4914V95.2914Z" fill="white"/>
<path fill-rule="evenodd" clip-rule="evenodd" d="M36.4399 95.4875L41.8032 84.4914L42.6384 86.2038L42.6367 86.2073L47.163 95.4875H45.4808L44.954 94.4075H38.6372L38.1104 95.4875H36.4399ZM39.1639 93.3275H44.4273L41.7956 87.9318L39.1639 93.3275Z" fill="white"/>
<path fill-rule="evenodd" clip-rule="evenodd" d="M25.1125 89.8915H25.089C26.5852 89.8915 27.8 88.6767 27.8 87.1804V87.1789C27.8 85.6957 26.5958 84.4915 25.1125 84.4915H17V95.2915H25.089C26.5852 95.2915 27.8 94.0767 27.8 92.5804V92.5789C27.8 91.0957 26.5958 89.8915 25.1125 89.8915ZM26.288 92.3811C26.288 91.3646 25.4629 90.5395 24.4464 90.5395H18.512V94.2115H24.4576C25.4678 94.2115 26.288 93.3913 26.288 92.3811ZM26.288 87.5213C26.288 86.4452 25.4143 85.5715 24.3382 85.5715H18.512V89.4595H24.3498C25.4195 89.4595 26.288 88.5909 26.288 87.5213Z" fill="white"/>
</g>
<defs>
<radialGradient id="paint0_radial_1_7" cx="0" cy="0" r="1" gradientUnits="userSpaceOnUse" gradientTransform="translate(55.8586 124.355) scale(60.55)">
<stop stop-color="#2CA9B7"/>
<stop offset="1" stop-color="#2CA9B7" stop-opacity="0"/>
</radialGradient>
<radialGradient id="paint1_radial_1_7" cx="0" cy="0" r="1" gradientUnits="userSpaceOnUse" gradientTransform="translate(124.589 124.355) rotate(-90) scale(60.55)">
<stop stop-color="#2CA9B7"/>
<stop offset="1" stop-color="#2CA9B7" stop-opacity="0"/>
</radialGradient>
<radialGradient id="paint2_radial_1_7" cx="0" cy="0" r="1" gradientUnits="userSpaceOnUse" gradientTransform="translate(124.589 55.6241) rotate(-180) scale(60.55)">
<stop stop-color="#2CA9B7"/>
<stop offset="1" stop-color="#2CA9B7" stop-opacity="0"/>
</radialGradient>
<radialGradient id="paint3_radial_1_7" cx="0" cy="0" r="1" gradientUnits="userSpaceOnUse" gradientTransform="translate(55.8586 55.6241) rotate(90) scale(60.55 60.55)">
<stop stop-color="#2CA9B7"/>
<stop offset="1" stop-color="#2CA9B7" stop-opacity="0"/>
</radialGradient>
<clipPath id="clip0_1_7">
<rect width="180" height="180" fill="white"/>
</clipPath>
</defs>
</svg>
