<svg width="100%" height="100%" viewBox="0 0 180 180" fill="none" xmlns="http://www.w3.org/2000/svg">
<g clip-path="url(#clip0_11_48)">
<path d="M90 180C139.706 180 180 139.706 180 90C180 40.2944 139.706 0 90 0C40.2944 0 0 40.2944 0 90C0 139.706 40.2944 180 90 180Z" fill="#231F20"/>
<path d="M121.167 85.9968C120.117 85.6971 119.292 86.9121 119.967 87.7671C121.722 90.0018 122.667 92.3719 122.667 94.8321C122.667 107.852 96.282 118.397 63.7321 118.397C54.4018 118.397 45.5819 117.527 37.752 115.982C36.777 115.787 36.252 117.077 37.0919 117.617C47.457 124.352 66.0717 128.852 87.2968 128.852C119.847 128.852 146.232 118.292 146.232 105.287C146.247 97.3071 136.332 90.2569 121.167 85.9968Z" fill="url(#paint0_linear_11_48)"/>
<path d="M111.04 51.0916C110.14 50.8365 109.435 51.8715 110.02 52.6063C111.519 54.5116 112.329 56.5515 112.329 58.6516C112.329 69.7963 89.7543 78.8265 61.8993 78.8265C53.9194 78.8265 46.3743 78.0916 39.6694 76.7565C38.8294 76.5913 38.3944 77.7015 39.0994 78.1668C47.9794 83.9268 63.8946 87.7815 82.0593 87.7815C109.914 87.7815 132.489 78.7513 132.489 67.6066C132.489 60.7666 124.015 54.7366 111.04 51.0916Z" fill="url(#paint1_linear_11_48)"/>
</g>
<defs>
<linearGradient id="paint0_linear_11_48" x1="36.6798" y1="107.401" x2="146.24" y2="107.401" gradientUnits="userSpaceOnUse">
<stop stop-color="#8077F2"/>
<stop offset="1" stop-color="#FFB29B"/>
</linearGradient>
<linearGradient id="paint1_linear_11_48" x1="38.7376" y1="69.4107" x2="132.488" y2="69.4107" gradientUnits="userSpaceOnUse">
<stop stop-color="#8077F2"/>
<stop offset="1" stop-color="#FFB29B"/>
</linearGradient>
<clipPath id="clip0_11_48">
<rect width="180" height="180" fill="white"/>
</clipPath>
</defs>
</svg>
