<svg width="100%" height="100%" viewBox="0 0 180 180" fill="none" xmlns="http://www.w3.org/2000/svg">
<path class="inverted" d="M12.9148 77.2844H25.1031C27.7265 77.2844 29.6637 77.9344 30.9955 79.0312C32.4484 80.25 33.1749 81.875 33.1749 83.9062C33.1749 86.425 31.8834 88.05 29.6233 88.9031V89.025C32.3677 89.8781 34.1435 92.2344 34.1435 95.2406C34.1435 97.8 33.2152 99.6688 31.5605 100.928C30.0673 102.106 28.009 102.756 25.3453 102.756H12.9148V77.2844ZM24.1749 87.3594C25.991 87.3594 27.2018 86.4656 27.2018 84.8C27.2018 83.2156 26.0314 82.2812 24.2152 82.2812H19.0897V87.3594H24.1749ZM24.6996 97.6781C26.7578 97.6781 28.009 96.5 28.009 94.6719C28.009 92.6406 26.5157 91.625 24.6188 91.625H19.0897V97.6781H24.6996ZM36.565 77.2844H42.3363V81.9969H36.565V77.2844ZM36.565 84.5156H42.3363V102.716H36.565V84.5156ZM46.574 97.9219V88.1313H44.1525V84.5156H46.574V78.7469H52.1839V84.5156H55.4529V88.1313H52.1839V96.6625C52.1839 98.0844 52.9507 98.45 54.2018 98.45C54.6861 98.45 56.139 98.4094 56.3408 98.4094V102.634C55.8565 102.797 53.8789 102.919 52.3453 102.919C48.9955 102.919 46.574 101.822 46.574 97.9219ZM60.9417 82.6062H54.4843V77.2844H73.7758V82.6062H67.1973V102.716H60.9417V82.6062ZM69.9013 93.6562C69.9013 88.1719 73.7758 84.0281 79.5874 84.0281C85.3991 84.0281 89.2332 88.1719 89.2332 93.6562C89.2332 99.1406 85.3991 103.284 79.5874 103.284C73.7758 103.284 69.9013 99.1406 69.9013 93.6562ZM83.3812 93.6562C83.3812 90.3656 82.0493 88.0906 79.5471 88.0906C77.0448 88.0906 75.713 90.325 75.713 93.6562C75.713 96.9875 77.0045 99.1812 79.5471 99.1812C82.0493 99.1406 83.3812 96.9469 83.3812 93.6562ZM91.2511 84.5156H96.7803V87.3594H96.9013C98.1928 85.2062 99.7668 84.3125 101.422 84.2312C101.946 84.1906 102.309 84.2719 102.552 84.3938V89.3906H102.39C99.3632 88.9844 97.0224 90.65 97.0224 94.5906V102.756H91.2511V84.5156V84.5156ZM104.247 84.5156H109.776V87.3594H109.897C111.188 85.2062 112.762 84.3125 114.417 84.2312C114.942 84.1906 115.305 84.2719 115.547 84.3938V89.3906H115.386C112.359 88.9844 110.018 90.65 110.018 94.5906V102.756H104.247V84.5156ZM115.709 93.575C115.709 88.1313 119.502 83.9875 124.991 83.9875C127.574 83.9875 129.632 84.8406 131.166 86.2625C133.305 88.2531 134.395 91.4219 134.354 95.1187C134.314 95.1187 121.359 95.1187 121.359 95.1187C121.722 97.5562 123.054 99.1 125.435 99.1C126.969 99.1 127.937 98.4094 128.422 97.2719H134.031C133.628 98.8969 132.578 100.481 131.004 101.578C129.471 102.634 127.655 103.244 125.354 103.244C119.381 103.244 115.709 99.1 115.709 93.575ZM128.502 91.6656C128.3 89.5125 126.928 88.0906 125.072 88.0906C122.892 88.0906 121.762 89.4719 121.359 91.6656H128.502ZM136.332 84.5156H141.861V86.9937H141.982C143.314 85.0437 145.049 83.9875 147.552 83.9875C151.507 83.9875 153.848 86.8312 153.848 90.8937V102.756H148.117V92.0312C148.117 90.1219 147.148 88.7812 145.291 88.7812C143.395 88.7812 142.103 90.3656 142.103 92.6406V102.716H136.332V84.5156ZM157.399 97.9219V88.1313H154.978V84.5156H157.399V78.7469H163.009V84.5156H166.278V88.1313H163.009V96.6625C163.009 98.0844 163.776 98.45 165.027 98.45C165.511 98.45 166.964 98.4094 167.166 98.4094V102.634C166.682 102.797 164.704 102.919 163.17 102.919C159.78 102.919 157.399 101.822 157.399 97.9219ZM0 64V116H180V64H0ZM175.157 111.125H4.84305V68.875H175.157V111.125Z" fill="black"/>
</svg>
