<svg width="100%" height="100%" viewBox="0 0 180 180" fill="none" xmlns="http://www.w3.org/2000/svg">
<g clip-path="url(#clip0_18_9)">
<path d="M71.0526 161.053C99.8299 161.053 123.158 137.725 123.158 108.947C123.158 80.1701 99.8299 56.8421 71.0526 56.8421C42.2754 56.8421 18.9474 80.1701 18.9474 108.947C18.9474 137.725 42.2754 161.053 71.0526 161.053ZM71.0526 180C31.8126 180 0 148.187 0 108.947C0 69.7074 31.8126 37.8947 71.0526 37.8947C110.293 37.8947 142.105 69.7074 142.105 108.947C142.105 148.187 110.293 180 71.0526 180Z" fill="#FBCC5C"/>
<path d="M108.947 123.158C137.725 123.158 161.053 99.8299 161.053 71.0526C161.053 42.2754 137.725 18.9474 108.947 18.9474C80.1701 18.9474 56.8421 42.2754 56.8421 71.0526C56.8421 99.8299 80.1701 123.158 108.947 123.158ZM108.947 142.105C69.7074 142.105 37.8948 110.293 37.8948 71.0526C37.8948 31.8126 69.7074 0 108.947 0C148.187 0 180 31.8126 180 71.0526C180 110.293 148.187 142.105 108.947 142.105Z" fill="#35D07F"/>
<path d="M111.295 142.105C116.222 136.135 119.753 129.14 121.631 121.631C129.14 119.753 136.135 116.223 142.105 111.297C141.833 119.993 139.96 128.565 136.58 136.582C128.563 139.961 119.991 141.834 111.295 142.105ZM58.3693 58.3693C50.8602 60.2467 43.8652 63.7772 37.8948 68.7032C38.167 60.0068 40.04 51.4352 43.4198 43.4179C51.4372 40.0387 60.0089 38.1663 68.7051 37.8947C63.7786 43.865 60.2474 50.8601 58.3693 58.3693Z" fill="#5EA33B"/>
</g>
<defs>
<clipPath id="clip0_18_9">
<rect width="180" height="180" fill="white"/>
</clipPath>
</defs>
</svg>
