<svg width="100%" height="100%" viewBox="0 0 180 180" fill="none" xmlns="http://www.w3.org/2000/svg">
<path fill-rule="evenodd" clip-rule="evenodd" d="M78.014 12.8811C78.014 12.8811 68.4892 10.0108 65.2063 16.4318C65.2063 16.4318 50.748 18.3733 49.8865 30.8965C49.8865 30.8965 22.8868 31.8375 28.0191 67.842C28.0191 67.842 5.21779 78.7555 25.2141 101.455C25.2141 101.455 13.7956 129.879 35.9249 134.879C35.9249 134.879 27.3972 159.173 55.0736 161.029C55.0736 161.029 59.2903 180.64 77.0947 173.408C77.0947 173.408 87.8642 189.251 105.619 171.815C105.619 171.815 122.454 184.484 130.95 159.627C130.95 159.627 152.845 169.745 150.856 134.131C150.856 134.131 165.612 128.204 158.518 103.65C158.518 103.65 171.259 80.2563 157.079 68.573C157.079 68.573 167.226 45.3243 147.171 40.2066C147.171 40.2066 148.109 19.7403 127.883 20.87C127.883 20.87 123.653 10.3321 110.813 13.3176C110.813 13.3176 106.128 3.93928 89.4235 12.2439L78.014 12.8811Z" fill="#DE4869"/>
<path fill-rule="evenodd" clip-rule="evenodd" d="M74.6794 14.9641C74.56 12.825 73.4577 2.69337 78.7461 1.32514C84.0344 -0.0432939 88.253 -1.35162 89.5616 2.86697C90.8703 7.08557 89.4235 12.2439 89.4235 12.2439L74.6794 14.9641Z" fill="white"/>
<path fill-rule="evenodd" clip-rule="evenodd" d="M49.3063 31.9079C51.0026 37.8747 56.5888 36.0376 60.118 32.9875C60.6474 32.3106 61.1533 31.6164 61.6361 30.9058C64.655 27.1367 66.792 26.8362 68.0474 30.0043C68.8662 30.3717 69.4444 31.5121 70.216 32.1004C72.8818 34.1332 76.3072 35.1185 79.6156 34.2845C83.8159 33.2257 84.0218 30.4301 86.6954 27.9013C91.0275 23.8038 93.1997 27.6441 97.9931 27.911C105.458 28.3269 110.002 21.9345 109.555 15.0333C109.419 12.9343 106.153 13.1117 106.29 15.2155C106.539 22.672 102.625 25.4564 94.5465 23.5684C93.4191 22.8151 92.2539 22.126 91.0507 21.5009C90.0469 21.189 89.0824 20.7494 88.0338 20.953C81.9487 22.1344 79.5147 35.4115 71.5392 28.3894C69.5045 26.5978 68.5367 23.481 65.5596 23.4131C63.7937 23.3727 62.726 24.6012 61.4889 25.6189C60.5081 26.4259 54.0557 36.6664 52.4061 30.8639C51.8311 28.8406 48.7308 29.8837 49.3063 31.9079Z" fill="white"/>
<path fill-rule="evenodd" clip-rule="evenodd" d="M29.2307 67.667C36.8207 79.3227 49.0385 69.0467 53.7485 60.6228C52.8998 60.7806 52.0513 60.9385 51.2029 61.0963C59.9824 70.672 74.4669 67.9942 79.2221 55.883C78.3736 56.041 77.5252 56.1989 76.6767 56.3567C82.0855 60.2731 88.9964 63.4454 95.6976 60.7449C101.142 58.5505 104.238 53.458 103.736 47.7171C102.828 48.1538 101.921 48.5906 101.013 49.0271C106.585 53.5917 113.602 59.1627 121.317 57.1226C126.977 55.6263 131.058 50.6787 129.969 44.7638C129.177 45.2793 128.384 45.7949 127.592 46.3104C134.409 48.9634 144.133 50.595 146.084 41.2215C146.513 39.1591 143.316 38.468 142.887 40.5294C138.457 45.2558 133.856 46.2123 129.082 43.3993C128.082 43.0099 126.456 43.5935 126.705 44.946C128.232 53.2407 119.416 55.0433 113.471 53.2016C109.521 51.9782 106.334 49.1631 103.193 46.5895C102.144 45.7295 100.342 46.4281 100.471 47.8995C101.632 61.1634 85.7829 58.9343 78.8564 53.9189C78.0914 53.3651 76.732 53.3205 76.311 54.3926C72.275 64.6714 60.8435 66.7962 53.3826 58.6587C52.6383 57.8468 51.3056 58.2943 50.8369 59.1322C47.7974 64.569 38.4857 75.8864 31.9579 65.8616C30.8098 64.0986 28.0792 65.8986 29.2307 67.667Z" fill="white"/>
<path fill-rule="evenodd" clip-rule="evenodd" d="M23.9684 101.843C30.9031 112.552 46.0723 109.506 48.1259 96.8354C47.2297 97.1263 46.3336 97.4172 45.4376 97.7081C56.2197 109.724 74.2471 102.33 74.8824 86.6395C73.9751 87.0762 73.0676 87.5128 72.1601 87.9495C78.6031 93.9872 87.2621 100.232 96.6411 97.8693C103.884 96.0443 109.191 89.7845 108.236 82.2206C107.237 82.5521 106.239 82.8835 105.24 83.2147C109.522 88.1746 114.908 93.8833 122.174 92.3558C129.82 90.7484 133.618 82.2305 136.078 75.7387C135.229 75.8965 134.381 76.0543 133.532 76.2122C138.256 80.3684 144.497 85.534 151.215 82.9493C155.991 81.1124 158.371 76.7366 156.935 71.8898C156.337 69.8727 153.236 70.9141 153.835 72.9335C149.837 80.8482 145.094 82.2231 139.607 77.0586C138.262 76.0182 136.964 74.9236 135.712 73.7746C134.995 73.1432 133.55 73.2372 133.167 74.2481C131.684 78.1617 130.022 82.3942 127.15 85.5346C120.68 92.6082 112.917 87.1433 107.967 81.4093C107.03 80.3238 104.743 80.601 104.971 82.4033C106.001 90.5603 98.1263 95.7606 90.699 94.8192C84.1881 93.9939 78.9941 89.8732 74.34 85.5119C73.2212 84.4636 71.6716 85.4865 71.6176 86.8219C71.0741 100.243 56.1388 104.767 47.6173 95.2705C46.7997 94.3594 45.1133 95.0067 44.929 96.1433C43.376 105.725 31.8993 108.074 26.6954 100.038C25.5518 98.2713 22.8215 100.072 23.9684 101.843Z" fill="white"/>
<path fill-rule="evenodd" clip-rule="evenodd" d="M34.4441 137.376C44.4246 142.88 57.0413 137.233 59.7569 126.214C58.7695 126.399 57.7821 126.584 56.7949 126.771C65.1773 139.497 83.8606 135.194 85.2402 119.801C84.3442 120.091 83.4481 120.381 82.5519 120.673C88.7665 125.959 97.5654 132.712 106.224 129.017C113.63 125.858 115.853 117.338 116.928 110.128C115.94 110.313 114.953 110.499 113.966 110.684C120.73 124.072 138.988 119.486 139.887 104.972C138.98 105.409 138.072 105.846 137.165 106.282C144.148 112.474 154.3 111.868 160.473 104.852C161.865 103.271 159.429 101.09 158.036 102.673C153.072 108.314 145.004 108.864 139.345 103.845C138.19 102.821 136.706 103.805 136.622 105.155C135.909 116.668 121.707 118.803 116.693 108.879C116.061 107.63 113.928 108.115 113.731 109.436C112.961 114.601 111.776 122.412 106.616 125.123C98.4803 129.396 90.6322 123.254 84.7318 118.235C83.8911 117.521 82.1591 117.817 82.0435 119.108C80.9409 131.411 66.5339 135.61 59.5221 124.965C58.7315 123.763 56.8925 124.173 56.56 125.52C54.3445 134.513 43.9779 138.902 35.9346 134.463C34.0866 133.444 32.6038 136.361 34.4441 137.376Z" fill="white"/>
<path fill-rule="evenodd" clip-rule="evenodd" d="M57.7523 161.958C59.7785 159.371 61.763 156.758 63.7107 154.11C62.7876 153.921 61.8647 153.732 60.9419 153.542C62.9431 158.685 67.7279 161.813 73.4005 161.197C80.2765 160.453 84.6347 154.495 87.059 148.595C86.1194 148.648 85.1797 148.7 84.2398 148.753C93.3834 160.934 110.994 157.515 114.821 142.733C113.925 143.025 113.029 143.315 112.132 143.608C121.068 150.068 132.095 146.321 135.038 135.625C134.051 135.81 133.063 135.997 132.076 136.182C137.84 143.641 148.14 142.628 151.579 133.534C152.316 131.584 149.411 130.079 148.668 132.044C147.331 137.454 142.71 138.231 134.803 134.377C133.931 133.246 132.226 133.534 131.841 134.934C129.581 143.147 121.267 146.199 114.312 141.17C113.312 140.447 111.953 140.77 111.624 142.042C108.517 154.041 94.4746 156.949 86.967 146.947C86.2909 146.046 84.6454 145.892 84.1479 147.105C81.3488 153.917 69.1294 165.577 64.0417 152.498C63.6348 151.451 62.047 150.877 61.2729 151.93C59.3254 154.577 57.341 157.191 55.3147 159.778C54.0219 161.43 56.4517 163.62 57.7523 161.958Z" fill="white"/>
</svg>
