<svg width="100%" height="100%" viewBox="0 0 180 180" fill="none" xmlns="http://www.w3.org/2000/svg">
<path d="M132.786 8H47.4061C25.6427 8 8 25.624 8 47.3643V132.654C8 154.394 25.6427 172.018 47.4061 172.018H132.786C154.549 172.018 172.192 154.394 172.192 132.654V47.3643C172.192 25.624 154.549 8 132.786 8Z" fill="url(#paint0_linear_410_2)"/>
<path fill-rule="evenodd" clip-rule="evenodd" d="M90.0962 142.495C119.114 142.495 142.638 118.996 142.638 90.009C142.638 61.0218 119.114 37.5232 90.0962 37.5232C61.0784 37.5232 37.5547 61.0218 37.5547 90.009C37.5547 118.996 61.0784 142.495 90.0962 142.495ZM80.8236 62.2222H99.3675V80.9414H80.8257V99.0757H99.3675V117.795H80.8236V99.6606H62.2818V80.9414H80.8257L80.8236 62.2222ZM99.3675 80.9414H117.915V99.6606H99.3706L99.3675 80.9414Z" fill="black"/>
<defs>
<linearGradient id="paint0_linear_410_2" x1="172.192" y1="8" x2="8.17424" y2="172.192" gradientUnits="userSpaceOnUse">
<stop offset="0.395833" stop-color="#A9FFE0"/>
<stop offset="1" stop-color="#86D5FF"/>
</linearGradient>
</defs>
</svg>
