<svg width="100%" height="100%" viewBox="0 0 180 180" fill="none" xmlns="http://www.w3.org/2000/svg">
<g clip-path="url(#clip0_744_92)">
<path d="M90 180C139.706 180 180 139.706 180 90C180 40.2944 139.706 0 90 0C40.2944 0 0 40.2944 0 90C0 139.706 40.2944 180 90 180Z" fill="#1969FF"/>
<path d="M84.5425 28.6208C87.5746 27.0222 92.1883 27.0222 95.2205 28.6208L126.161 44.9324C127.987 45.8951 128.99 47.3297 129.17 48.8106H129.199V130.801C129.159 132.416 128.147 134.021 126.161 135.068L95.2205 151.379C92.1883 152.978 87.5746 152.978 84.5425 151.379L53.6021 135.068C51.6247 134.025 50.6758 132.409 50.6288 130.801C50.624 130.636 50.6236 130.5 50.6287 130.388L50.6288 49.3626C50.6242 49.2487 50.6241 49.1352 50.6287 49.0222L50.6288 48.8106H50.6426C50.78 47.3133 51.7375 45.9153 53.6021 44.9324L84.5425 28.6208ZM124.277 94.3945L95.211 109.768C92.1833 111.37 87.5762 111.37 84.5485 109.768L55.5469 94.4288V130.547L84.5485 145.806C86.2624 146.723 88.0444 147.616 89.7797 147.655L89.8798 147.656C91.6116 147.662 93.2931 146.781 94.998 145.948L124.277 130.416V94.3945ZM45.7776 129.023C45.7776 132.167 46.1397 134.232 46.8586 135.688C47.4544 136.894 48.3484 137.816 49.9808 138.938L50.074 139.001C50.4322 139.245 50.8269 139.5 51.3072 139.8L51.8737 140.15L53.6133 141.21L51.1183 145.371L49.1713 144.185L48.844 143.982C48.2811 143.631 47.8145 143.33 47.3793 143.034C42.7269 139.87 40.9918 136.419 40.9575 129.242L40.957 129.023H45.7776ZM87.5391 72.5977C87.3139 72.6751 87.1029 72.7649 86.9106 72.8667L56.0174 89.2308C55.9849 89.2478 55.954 89.2649 55.9246 89.2817L55.8984 89.2968L55.9469 89.3248L56.0174 89.363L86.9106 105.727C87.1029 105.829 87.3139 105.919 87.5391 105.996V72.5977ZM92.4609 72.5977V105.996C92.6862 105.919 92.8972 105.829 93.0896 105.727L123.983 89.363C124.015 89.3459 124.046 89.3288 124.075 89.3121L124.102 89.2968L124.053 89.269L123.983 89.2308L93.0896 72.8667C92.8972 72.7649 92.6862 72.6751 92.4609 72.5977ZM124.277 54.668L96.5039 69.2578L124.277 83.8477V54.668ZM55.5469 54.668V83.8477L83.3203 69.2578L55.5469 54.668ZM93.0625 32.9813C91.4546 32.1312 88.5454 32.1312 86.9375 32.9813L56.0175 49.3284C55.985 49.3456 55.9541 49.3625 55.9246 49.3794L55.8984 49.3945L55.947 49.4223L56.0175 49.4606L86.9375 65.8076C88.5454 66.6579 91.4546 66.6579 93.0625 65.8076L123.982 49.4606C124.015 49.4434 124.046 49.4265 124.075 49.4098L124.102 49.3945L124.053 49.3667L123.982 49.3284L93.0625 32.9813ZM128.882 34.6289L130.829 35.8153L131.156 36.018C131.719 36.3686 132.186 36.6698 132.621 36.9659C137.273 40.1304 139.008 43.5806 139.042 50.7579L139.043 50.9766H134.222C134.222 47.8333 133.86 45.7676 133.141 44.3121C132.546 43.1059 131.652 42.1841 130.019 41.0624L129.926 40.9986C129.568 40.755 129.173 40.4997 128.693 40.1997L128.126 39.8496L126.387 38.7905L128.882 34.6289Z" fill="white"/>
</g>
<defs>
<clipPath id="clip0_744_92">
<rect width="180" height="180" fill="white"/>
</clipPath>
</defs>
</svg>
