<svg width="100%" height="100%" version="1.1" id="Layer_1" xmlns="http://www.w3.org/2000/svg" xmlns:xlink="http://www.w3.org/1999/xlink"
	 viewBox="0 0 713 640" xml:space="preserve">
<g>
	<path class="inverted" d="M293.8,0C131.8,0,0.5,131.1,0,292.9h0v185.5h100.7V293.8c0-106.6,86.4-193.1,193.1-193.1h419.7V0H293.8z"/>
	<path class="inverted" d="M612.7,161.2h-319c-71.7,0-130,56.9-132.5,127.9l-0.1,0v4.7v185h261.6c7.5,0,11.2-9.1,5.9-14.4L367.4,404l-45.1-44.5
		c0,0-28.1-30-38.6-40.6c-4.5-4.6-15.1-13.4-15.1-25.2c0-13.9,11.3-25.2,25.2-25.2H424h188.8v77.2c0,106.6-86.4,193.1-193.1,193.1H0
		v100.7h419.7c162,0,293.3-131.1,293.8-292.9h0v-78.1V161.2H612.7z"/>
</g>
</svg>
