<svg width="100%" height="100%" viewBox="0 0 180 180" fill="none" xmlns="http://www.w3.org/2000/svg">
<g clip-path="url(#clip0_745_107)">
<path d="M80.8457 177.761C73.3134 172.001 69.5754 166.022 69.5941 159.823C69.4247 154.138 71.5798 148.62 75.5862 144.481L160.978 61.3531C166.858 66.2355 170.333 71.7761 171.46 78.0299C172.039 81.0539 171.845 84.1702 170.895 87.104C169.945 90.0378 168.268 92.699 166.012 94.8529L80.8457 177.761ZM50.4157 148.138C42.8645 142.36 39.1265 136.38 39.1641 130.2C38.9947 124.515 41.1498 118.997 45.1562 114.858L130.548 31.7299C136.409 36.594 139.903 42.1529 141.03 48.4067C141.603 51.4294 141.405 54.543 140.452 57.4734C139.499 60.4039 137.82 63.0612 135.563 65.2115L50.4157 148.138ZM19.9669 118.497C12.4157 112.718 8.6777 106.739 8.71526 100.558C8.54586 94.8733 10.701 89.3554 14.7074 85.2162L100.099 2.08846C105.979 6.9708 109.454 12.5114 110.581 18.7652C111.16 21.7892 110.966 24.9055 110.016 27.8393C109.066 30.7731 107.389 33.4343 105.133 35.5883L19.9669 118.497Z" fill="url(#paint0_linear_745_107)"/>
</g>
<defs>
<linearGradient id="paint0_linear_745_107" x1="60.0818" y1="60.4886" x2="128.801" y2="131.079" gradientUnits="userSpaceOnUse">
<stop stop-color="#7EB5FF"/>
<stop offset="0.9997" stop-color="#1A38F8"/>
</linearGradient>
<clipPath id="clip0_745_107">
<rect width="180" height="180" fill="white"/>
</clipPath>
</defs>
</svg>
