<svg width="100%" height="100%" viewBox="0 0 180 180" fill="none" xmlns="http://www.w3.org/2000/svg">
<g clip-path="url(#clip0_754_167)">
<path class="inverted" d="M76.7 1.00004C47.5999 5.90004 22.5999 24.9 10.4999 51.4C5.19995 63 2.99995 73.5 2.99995 87.8C2.99995 102.1 2.59995 101.8 11.8999 94.4L17.6999 89.7L18.3999 81.9C20.7999 53.2 39.6999 29.1 67.5 19.3C74.8 16.8 76.7 16.5 90 16.5C102.6 16.5 105.4 16.8 111.5 18.8C130.1 25.1 145.1 37.4 153.9 54L157 59.8L164 57.6C170.6 55.6 171 55.4 170.5 53C169.1 47.3 160.2 34.3 152 26C138.6 12.7 123.4 4.70004 105 1.40004C96.8 -0.0999574 84.2 -0.199957 76.7 1.00004Z" fill="black"/>
<path class="inverted" d="M39 84.8C17.8 102.1 0.399999 116.9 0.199999 117.7C-1.20528e-06 118.5 12.5 112.7 28 105C43.5 97.2 56.4 91.1 56.7 91.4C57 91.6 56.5 96 55.7 101.2C54.9 106.3 54.4 110.6 54.5 110.8C54.6 110.9 65.9 104.5 79.6 96.5C93.3 88.5 104.6 82.3 104.8 82.8C104.9 83.3 103.7 89.2 102.1 96.1C100.5 102.9 99.2 108.6 99.3 108.7C99.6 108.9 179.2 65.1 179.9 64.4C181.7 62.6 175.7 64.2 151.1 72.1C135.5 77 122.7 81 122.5 80.8C122.3 80.6 122.8 74.6 123.4 67.5C124.1 60.3 124.6 54.4 124.4 54.2C124.3 54 113.3 60 100.1 67.6C86.8 75.1 75.7 81 75.4 80.7C75.1 80.4 75.5 74.2 76.4 66.9C77.3 59.7 77.9 53.6 77.8 53.5C77.6 53.4 60.2 67.5 39 84.8Z" fill="black"/>
<path class="inverted" d="M169 81.9001L162.5 85.6001L161.9 93.5001C160.6 111.3 154 125.2 140.5 138.6C133.2 146 129.8 148.5 123 151.8C112.6 156.9 105.2 158.9 94 159.7C84.2 160.4 72.3 158.4 62.8 154.5C49.3 149 36.1 137.6 28.4 124.8C26.4 121.3 24.6 118.4 24.4 118.2C24.2 117.9 12.1 123.7 11.2 124.5C10.6 125.1 15.3 133.6 19.5 139.5C31.1 155.8 50.2 168.4 70.6 173.1C78.6 174.9 82.1 175.2 93.8 174.8C105.8 174.4 108.6 173.9 117 171.1C130.2 166.7 139.9 160.9 149.8 151.5C162.8 139.3 170.8 125.9 175 109.5C178.2 97.0001 179 77.9001 176.2 78.1001C175.8 78.1001 172.6 79.8001 169 81.9001Z" fill="black"/>
</g>
<defs>
<clipPath id="clip0_754_167">
<rect width="180" height="180" fill="white"/>
</clipPath>
</defs>
</svg>
