<svg width="100%" height="100%" viewBox="0 0 180 180" fill="none" xmlns="http://www.w3.org/2000/svg">
<g clip-path="url(#clip0_24_224)">
<path fill-rule="evenodd" clip-rule="evenodd" d="M161.719 35.7188C148.078 18.2812 128.109 7.17188 106.031 7.17188C63.2813 7.17188 31.9219 46.9688 31.9219 90C31.9219 119.953 51.8906 142.453 73.9688 142.453C76.0781 142.453 78.0469 142.312 80.1562 141.891C65.25 131.062 55.8281 111.375 55.8281 90C55.8281 55.9688 78.8906 29.3906 106.031 29.3906C135.703 29.3906 156.234 58.7812 156.234 90C156.094 113.062 147.938 135.984 133.453 152.859C120.797 167.625 104.484 176.906 86.4844 179.859C86.4844 179.859 88.0312 180 90 180C139.641 180 180 139.641 180 90C180 69.6094 173.25 50.7656 161.719 35.7188ZM148.078 90C148.078 60.0469 128.109 37.5469 106.031 37.5469C103.922 37.5469 101.953 37.6875 99.8438 38.1094C114.75 48.9375 124.172 68.625 124.172 90C124.172 124.031 101.109 150.609 73.9688 150.609C44.2969 150.609 23.7656 121.219 23.7656 90C23.9062 66.9375 32.0625 44.0156 46.5469 27.1406C59.2031 12.375 75.5156 3.09375 93.5156 0.140625C93.5156 0.140625 91.9688 0 90 0C40.3594 0 0 40.3594 0 90C0 110.391 6.75 129.234 18.2812 144.281C31.9219 161.719 51.8906 172.688 73.9688 172.688C116.719 172.828 148.078 133.031 148.078 90Z" fill="#0089DB"/>
</g>
<defs>
<clipPath id="clip0_24_224">
<rect width="180" height="180" fill="white"/>
</clipPath>
</defs>
</svg>
