<svg width="100%" height="100%" viewBox="0 0 180 180" fill="none" xmlns="http://www.w3.org/2000/svg">
<g>
<rect class="inverted" width="180" height="180" fill="white"/>
<path class="inverted-background" d="M57.96 51.576H16.704C16.176 51.576 15.744 52.008 15.744 52.536V93.792C15.744 94.32 16.176 94.752 16.704 94.752H57.96C58.488 94.752 58.92 94.32 58.92 93.792V52.536C58.92 51.984 58.488 51.576 57.96 51.576ZM44.52 79.392C44.52 79.92 44.088 80.352 43.56 80.352H31.104C30.576 80.352 30.144 79.92 30.144 79.392V66.936C30.144 66.408 30.576 65.976 31.104 65.976H43.584C44.112 65.976 44.544 66.408 44.544 66.936L44.52 79.392Z" fill="black"/>
<path class="inverted-background" d="M144.312 65.976H131.832C131.304 65.976 130.872 66.408 130.872 66.936V79.416C130.872 79.944 131.304 80.376 131.832 80.376H144.312C144.84 80.376 145.272 79.944 145.272 79.416V66.936C145.272 66.384 144.84 65.976 144.312 65.976Z" fill="black"/>
<path class="inverted-background" d="M129.912 51.576H117.432C116.904 51.576 116.472 52.008 116.472 52.536V65.016C116.472 65.544 116.904 65.976 117.432 65.976H129.912C130.44 65.976 130.872 65.544 130.872 65.016V52.536C130.872 51.984 130.44 51.576 129.912 51.576Z" fill="black"/>
<path class="inverted-background" d="M158.712 51.576H146.232C145.704 51.576 145.272 52.008 145.272 52.536V65.016C145.272 65.544 145.704 65.976 146.232 65.976H158.712C159.24 65.976 159.672 65.544 159.672 65.016V52.536C159.672 51.984 159.24 51.576 158.712 51.576Z" fill="black"/>
<path class="inverted-background" d="M129.912 80.3521H117.432C116.904 80.3521 116.472 80.7841 116.472 81.3121V93.7921C116.472 94.3201 116.904 94.7521 117.432 94.7521H129.912C130.44 94.7521 130.872 94.3201 130.872 93.7921V81.3121C130.872 80.7841 130.44 80.3521 129.912 80.3521Z" fill="black"/>
<path class="inverted-background" d="M158.712 80.3521H146.232C145.704 80.3521 145.272 80.7841 145.272 81.3121V93.7921C145.272 94.3201 145.704 94.7521 146.232 94.7521H158.712C159.24 94.7521 159.672 94.3201 159.672 93.7921V81.3121C159.672 80.7841 159.24 80.3521 158.712 80.3521Z" fill="black"/>
<path class="inverted-background" d="M108.312 51.576H95.8319C95.3039 51.576 94.8719 52.008 94.8719 52.536V65.016C94.8719 65.544 95.3039 65.976 95.8319 65.976H108.312C108.84 65.976 109.272 65.544 109.272 65.016V52.536C109.272 51.984 108.84 51.576 108.312 51.576Z" fill="black"/>
<path class="inverted-background" d="M108.312 80.3521H95.8319C95.3039 80.3521 94.8719 80.7841 94.8719 81.3121V93.7921C94.8719 94.3201 95.3039 94.7521 95.8319 94.7521H108.312C108.84 94.7521 109.272 94.3201 109.272 93.7921V81.3121C109.272 80.7841 108.84 80.3521 108.312 80.3521Z" fill="black"/>
<path class="inverted-background" d="M94.8959 66.912C94.8959 66.648 94.8 66.408 94.608 66.24C94.44 66.072 94.1759 65.952 93.9359 65.952H80.4959V52.536C80.4959 52.008 80.0639 51.576 79.5359 51.576H67.0559C66.5279 51.576 66.0959 52.008 66.0959 52.536V93.768C66.0959 94.296 66.5279 94.728 67.0559 94.728H79.5359C80.0639 94.728 80.4959 94.296 80.4959 93.768V80.352H93.9359C94.1999 80.352 94.44 80.256 94.608 80.064C94.8 79.896 94.8959 79.632 94.8959 79.392V66.912Z" fill="black"/>
<path class="inverted-background" d="M94.824 118.056C94.824 124.152 98.832 128.448 104.496 128.448C110.16 128.448 114.144 124.152 114.144 118.056C114.144 111.96 110.16 107.664 104.472 107.664C98.784 107.664 94.824 111.96 94.824 118.056ZM109.464 118.056C109.464 121.92 107.424 124.368 104.496 124.368C101.568 124.368 99.552 121.92 99.552 118.056C99.552 114.192 101.568 111.744 104.496 111.744C107.424 111.744 109.464 114.168 109.464 118.056ZM125.496 107.976H120.792V128.136H125.472V122.688L127.728 120.072L133.152 128.136H138.6L130.848 116.448L138.12 107.976H132.672L125.496 116.712V107.976ZM146.688 118.056C146.688 114.216 148.68 111.744 151.488 111.744C153.576 111.744 155.064 113.064 155.52 115.2L159.936 113.736C158.712 110.064 155.832 107.664 151.512 107.664C145.992 107.664 141.984 111.96 141.984 118.056C141.984 124.152 145.968 128.448 151.512 128.448C155.832 128.448 158.712 126.048 159.936 122.376L155.52 120.912C155.04 123.048 153.552 124.368 151.488 124.368C148.656 124.368 146.664 121.896 146.688 118.056Z" fill="black"/>
<path class="inverted-background" d="M15.744 118.776H87.744" stroke="black" stroke-width="10"/>
</g>
</svg>
