<svg width="100%" height="100%" viewBox="0 0 180 180" fill="none" xmlns="http://www.w3.org/2000/svg">
<g clip-path="url(#clip0_29_299)">
<path fill-rule="evenodd" clip-rule="evenodd" d="M96.2531 162.134C100.321 162.134 103.623 165.436 103.623 169.504C103.623 173.571 100.321 176.873 96.2531 176.873C92.1855 176.873 88.8834 173.571 88.8834 169.504C88.8834 165.436 92.1855 162.134 96.2531 162.134ZM64.7643 159.454C68.4621 159.454 71.464 162.456 71.464 166.154C71.464 169.852 68.4621 172.854 64.7643 172.854C61.0665 172.854 58.0645 169.852 58.0645 166.154C58.0645 162.456 61.0665 159.454 64.7643 159.454ZM126.625 152.754C130.939 152.754 134.442 156.257 134.442 160.571C134.442 164.885 130.939 168.387 126.625 168.387C122.311 168.387 118.809 164.885 118.809 160.571C118.809 156.257 122.311 152.754 126.625 152.754ZM83.0769 139.801C88.5001 139.801 92.9032 144.205 92.9032 149.628C92.9032 155.051 88.5001 159.454 83.0769 159.454C77.6537 159.454 73.2506 155.051 73.2506 149.628C73.2506 144.205 77.6537 139.801 83.0769 139.801ZM36.6253 144.715C40.0766 144.715 42.8784 147.516 42.8784 150.968C42.8784 154.419 40.0766 157.221 36.6253 157.221C33.174 157.221 30.3722 154.419 30.3722 150.968C30.3722 147.516 33.174 144.715 36.6253 144.715ZM107.643 137.122C113.066 137.122 117.469 141.525 117.469 146.948C117.469 152.371 113.066 156.774 107.643 156.774C102.219 156.774 97.8164 152.371 97.8164 146.948C97.8164 141.525 102.219 137.122 107.643 137.122ZM59.8511 132.655C65.2743 132.655 69.6774 137.058 69.6774 142.481C69.6774 147.905 65.2743 152.308 59.8511 152.308C54.4279 152.308 50.0248 147.905 50.0248 142.481C50.0248 137.058 54.4279 132.655 59.8511 132.655ZM150.968 132.655C155.898 132.655 159.901 136.658 159.901 141.588C159.901 146.518 155.898 150.521 150.968 150.521C146.038 150.521 142.035 146.518 142.035 141.588C142.035 136.658 146.038 132.655 150.968 132.655ZM128.635 126.625C134.058 126.625 138.462 131.028 138.462 136.452C138.462 141.875 134.058 146.278 128.635 146.278C123.212 146.278 118.809 141.875 118.809 136.452C118.809 131.028 123.212 126.625 128.635 126.625ZM40.1985 117.469C45.6217 117.469 50.0248 121.872 50.0248 127.295C50.0248 132.719 45.6217 137.122 40.1985 137.122C34.7753 137.122 30.3722 132.719 30.3722 127.295C30.3722 121.872 34.7753 117.469 40.1985 117.469ZM15.4094 120.149C18.4909 120.149 20.9926 122.651 20.9926 125.732C20.9926 128.813 18.4909 131.315 15.4094 131.315C12.328 131.315 9.8263 128.813 9.8263 125.732C9.8263 122.651 12.328 120.149 15.4094 120.149ZM143.375 108.313C148.798 108.313 153.201 112.716 153.201 118.139C153.201 123.562 148.798 127.965 143.375 127.965C137.951 127.965 133.548 123.562 133.548 118.139C133.548 112.716 137.951 108.313 143.375 108.313ZM166.6 106.303C171.531 106.303 175.533 110.306 175.533 115.236C175.533 120.166 171.531 124.169 166.6 124.169C161.67 124.169 157.667 120.166 157.667 115.236C157.667 110.306 161.67 106.303 166.6 106.303ZM27.2457 95.5831C32.6689 95.5831 37.072 99.9862 37.072 105.409C37.072 110.833 32.6689 115.236 27.2457 115.236C21.8224 115.236 17.4194 110.833 17.4194 105.409C17.4194 99.9862 21.8224 95.5831 27.2457 95.5831ZM50.3911 103.542C52.6096 103.542 54.4109 105.344 54.4109 107.562C54.4109 109.781 52.6096 111.582 50.3911 111.582C48.1726 111.582 46.3712 109.781 46.3712 107.562C46.3712 105.344 48.1726 103.542 50.3911 103.542ZM150.744 87.7668C155.798 87.7668 159.901 91.8697 159.901 96.9231C159.901 101.976 155.798 106.079 150.744 106.079C145.691 106.079 141.588 101.976 141.588 96.9231C141.588 91.8697 145.691 87.7668 150.744 87.7668ZM4.91315 89.7767C7.62476 89.7767 9.8263 91.9782 9.8263 94.6898C9.8263 97.4015 7.62476 99.603 4.91315 99.603C2.20154 99.603 0 97.4015 0 94.6898C0 91.9782 2.20154 89.7767 4.91315 89.7767ZM44.2184 85.7568C46.93 85.7568 49.1315 87.9584 49.1315 90.67C49.1315 93.3816 46.93 95.5831 44.2184 95.5831C41.5067 95.5831 39.3052 93.3816 39.3052 90.67C39.3052 87.9584 41.5067 85.7568 44.2184 85.7568ZM171.067 77.2705C175.997 77.2705 180 81.2734 180 86.2035C180 91.1336 175.997 95.1365 171.067 95.1365C166.137 95.1365 162.134 91.1336 162.134 86.2035C162.134 81.2734 166.137 77.2705 171.067 77.2705ZM23.6725 70.1241C28.9724 70.1241 33.2754 74.4271 33.2754 79.7271C33.2754 85.027 28.9724 89.33 23.6725 89.33C18.3725 89.33 14.0695 85.027 14.0695 79.7271C14.0695 74.4271 18.3725 70.1241 23.6725 70.1241ZM149.404 65.6576C154.458 65.6576 158.561 69.7605 158.561 74.8139C158.561 79.8673 154.458 83.9702 149.404 83.9702C144.351 83.9702 140.248 79.8673 140.248 74.8139C140.248 69.7605 144.351 65.6576 149.404 65.6576ZM44.665 66.5509C47.7465 66.5509 50.2481 69.0526 50.2481 72.134C50.2481 75.2154 47.7465 77.7171 44.665 77.7171C41.5836 77.7171 39.0819 75.2154 39.0819 72.134C39.0819 69.0526 41.5836 66.5509 44.665 66.5509ZM164.367 48.2382C169.544 48.2382 173.747 52.4412 173.747 57.6179C173.747 62.7945 169.544 66.9975 164.367 66.9975C159.191 66.9975 154.988 62.7945 154.988 57.6179C154.988 52.4412 159.191 48.2382 164.367 48.2382ZM6.92308 56.7246C9.26486 56.7246 11.1663 58.626 11.1663 60.9678C11.1663 63.3095 9.26486 65.2109 6.92308 65.2109C4.58129 65.2109 2.6799 63.3095 2.6799 60.9678C2.6799 58.626 4.58129 56.7246 6.92308 56.7246ZM140.695 46.4516C145.502 46.4516 149.404 50.3545 149.404 55.1613C149.404 59.9681 145.502 63.871 140.695 63.871C135.888 63.871 131.985 59.9681 131.985 55.1613C131.985 50.3545 135.888 46.4516 140.695 46.4516ZM29.9256 44.2184C35.2255 44.2184 39.5285 48.5214 39.5285 53.8213C39.5285 59.1213 35.2255 63.4243 29.9256 63.4243C24.6256 63.4243 20.3226 59.1213 20.3226 53.8213C20.3226 48.5214 24.6256 44.2184 29.9256 44.2184ZM52.0347 48.4615C55.6093 48.4615 58.5112 51.3634 58.5112 54.938C58.5112 58.5125 55.6093 61.4144 52.0347 61.4144C48.4602 61.4144 45.5583 58.5125 45.5583 54.938C45.5583 51.3634 48.4602 48.4615 52.0347 48.4615ZM124.615 31.9355C129.299 31.9355 133.102 35.7383 133.102 40.4218C133.102 45.1054 129.299 48.9082 124.615 48.9082C119.932 48.9082 116.129 45.1054 116.129 40.4218C116.129 35.7383 119.932 31.9355 124.615 31.9355ZM66.1042 34.3921C69.9253 34.3921 73.0273 37.4941 73.0273 41.3151C73.0273 45.1362 69.9253 48.2382 66.1042 48.2382C62.2831 48.2382 59.1811 45.1362 59.1811 41.3151C59.1811 37.4941 62.2831 34.3921 66.1042 34.3921ZM147.618 24.1191C152.918 24.1191 157.221 28.4221 157.221 33.7221C157.221 39.022 152.918 43.3251 147.618 43.3251C142.318 43.3251 138.015 39.022 138.015 33.7221C138.015 28.4221 142.318 24.1191 147.618 24.1191ZM45.7816 22.7792C51.0816 22.7792 55.3846 27.0822 55.3846 32.3821C55.3846 37.6821 51.0816 41.9851 45.7816 41.9851C40.4817 41.9851 36.1787 37.6821 36.1787 32.3821C36.1787 27.0822 40.4817 22.7792 45.7816 22.7792ZM84.8635 25.9057C89.0544 25.9057 92.4566 29.3078 92.4566 33.4988C92.4566 37.6897 89.0544 41.0918 84.8635 41.0918C80.6726 41.0918 77.2705 37.6897 77.2705 33.4988C77.2705 29.3078 80.6726 25.9057 84.8635 25.9057ZM105.633 25.0124C110.07 25.0124 113.672 28.6151 113.672 33.0521C113.672 37.4891 110.07 41.0918 105.633 41.0918C101.196 41.0918 97.593 37.4891 97.593 33.0521C97.593 28.6151 101.196 25.0124 105.633 25.0124ZM21.2159 27.2457C23.0646 27.2457 24.5658 28.7469 24.5658 30.5955C24.5658 32.4442 23.0646 33.9454 21.2159 33.9454C19.3672 33.9454 17.866 32.4442 17.866 30.5955C17.866 28.7469 19.3672 27.2457 21.2159 27.2457ZM123.499 8.03971C128.799 8.03971 133.102 12.3427 133.102 17.6427C133.102 22.9426 128.799 27.2457 123.499 27.2457C118.199 27.2457 113.896 22.9426 113.896 17.6427C113.896 12.3427 118.199 8.03971 123.499 8.03971ZM68.5608 8.03971C73.8607 8.03971 78.1638 12.3427 78.1638 17.6427C78.1638 22.9426 73.8607 27.2457 68.5608 27.2457C63.2608 27.2457 58.9578 22.9426 58.9578 17.6427C58.9578 12.3427 63.2608 8.03971 68.5608 8.03971ZM96.2531 3.12656C101.553 3.12656 105.856 7.42958 105.856 12.7295C105.856 18.0295 101.553 22.3325 96.2531 22.3325C90.9531 22.3325 86.6501 18.0295 86.6501 12.7295C86.6501 7.42958 90.9531 3.12656 96.2531 3.12656Z" fill="url(#paint0_radial_29_299)"/>
</g>
<defs>
<radialGradient id="paint0_radial_29_299" cx="0" cy="0" r="1" gradientUnits="userSpaceOnUse" gradientTransform="translate(90 90) scale(90 86.8735)">
<stop stop-color="#9D4DF1"/>
<stop offset="0.09" stop-color="#518DDA"/>
<stop offset="0.21" stop-color="#15C1C8"/>
<stop offset="0.63" stop-color="#00D3C2"/>
<stop offset="1" stop-color="#9D4DF1"/>
</radialGradient>
<clipPath id="clip0_29_299">
<rect width="180" height="180" fill="white"/>
</clipPath>
</defs>
</svg>
