<svg width="100%" height="100%" viewBox="0 0 180 180" fill="none" xmlns="http://www.w3.org/2000/svg">
<g opacity="0.95">
<path fill-rule="evenodd" clip-rule="evenodd" d="M51.7432 16.3957C61.8097 6.5348 77.914 6.53476 87.9805 16.3957L111.812 39.7411C122.177 49.8939 122.177 66.5805 111.812 76.7334L70.2794 117.419L100.066 146.597C105.741 152.157 105.835 161.264 100.276 166.939C94.7161 172.614 85.609 172.708 79.9339 167.149L7.77327 96.4605C-2.59109 86.3077 -2.59109 69.6214 7.77327 59.4686L51.7432 16.3957ZM49.7236 97.2827L89.5823 58.2374L69.8616 38.9193L30.003 77.9645L49.7236 97.2827Z" fill="#3CEAAA"/>
<path fill-rule="evenodd" clip-rule="evenodd" d="M112.158 36.1228C122.224 26.2619 138.328 26.2619 148.395 36.1228L172.227 59.4682C182.591 69.6211 182.591 86.3077 172.227 96.4605L100.066 167.149C94.3908 172.708 85.2836 172.614 79.7245 166.939C74.1649 161.264 74.2588 152.157 79.9339 146.597L109.721 117.419L88.3257 96.4605C77.9615 86.3077 77.9615 69.6211 88.3257 59.4682L112.158 36.1228ZM130.276 97.2827L149.997 77.9642L130.276 58.646L110.555 77.9642L130.276 97.2827Z" fill="#03BCE4"/>
<path d="M110.544 78.0132L89.5952 58.1154L69.5021 77.849L89.9537 98.1953L110.544 78.0132Z" fill="#00A4E1"/>
</g>
</svg>
