<svg width="100%" height="100%" viewBox="0 0 180 180" fill="none" xmlns="http://www.w3.org/2000/svg">
<g clip-path="url(#clip0_49_68)">
<circle cx="90" cy="90" r="90" fill="#151A20"/>
<path d="M153.636 26.3639C136.621 9.34956 114.048 0 90 0C40.3883 0 0 40.3883 0 90C0 139.612 40.3883 180 90 180C114.048 180 136.621 170.65 153.636 153.636C170.65 136.621 180 114.048 180 90C180 65.9521 170.65 43.3787 153.636 26.3639ZM90 175.367C42.9154 175.367 4.63264 137.085 4.63264 90C4.63264 42.9154 42.9154 4.63268 90 4.63268C137.085 4.63268 175.367 42.9154 175.367 90C175.367 137.085 137.085 175.367 90 175.367Z" fill="white"/>
<path d="M99.1377 80.524C85.1975 74.1645 73.1528 68.6896 74.0371 55.3812C74.4162 50.1589 78.1644 47.0424 81.239 45.3577C85.0714 43.2519 90.2095 42.1569 94.6736 42.4518C106.55 43.2519 115.899 48.2639 124.996 58.6661L128.492 55.6338C118.637 44.3469 107.982 38.7036 94.9685 37.8193C93.9577 37.7348 92.9469 37.7348 91.8938 37.777C91.6835 37.777 91.4728 37.777 91.3044 37.777C82.755 37.777 73.4477 40.5568 66.2881 45.2735C57.8651 50.8329 53.148 58.4554 53.0219 66.7523C52.6847 87.0516 69.4888 93.9586 84.3132 100.065C97.9585 105.709 109.793 110.552 109.54 123.902C109.414 132.915 97.0319 137.758 88.314 137.758C88.1879 137.758 88.1037 137.758 87.9772 137.758V137.801H87.9353C75.0479 137.632 63.5926 132.241 53.8639 121.797L50.4529 124.955C60.9393 136.242 73.8687 142.307 87.893 142.475C88.1037 142.475 88.314 142.475 88.5247 142.475C97.5794 142.475 107.35 140.075 114.847 135.947C124.028 130.935 129.376 123.65 129.924 115.479C131.314 95.1801 114.215 87.3888 99.1377 80.524ZM125.291 115.1C124.744 123.481 118.089 128.83 112.615 131.82C112.109 132.115 111.604 132.368 111.099 132.62C112.994 130.178 114.131 127.271 114.215 123.945C114.468 107.435 100.064 101.497 86.1241 95.7695C71.3839 89.7048 57.4437 83.9351 57.6967 66.7942C57.7809 60.0979 61.7817 53.8229 68.899 49.1059C69.9521 48.39 71.089 47.7583 72.2682 47.1266C70.6257 49.485 69.6572 52.1382 69.4888 55.0021C68.3515 71.5113 83.0499 78.2076 97.2845 84.651C112.278 91.558 126.47 98.0436 125.291 115.1Z" fill="white"/>
</g>
<defs>
<clipPath id="clip0_49_68">
<rect width="180" height="180" fill="white"/>
</clipPath>
</defs>
</svg>
