<svg width="100%" height="100%" viewBox="0 0 180 180" fill="none" xmlns="http://www.w3.org/2000/svg">
<g clip-path="url(#clip0_26_271)">
<path d="M90 180C139.706 180 180 139.706 180 90C180 40.2944 139.706 0 90 0C40.2944 0 0 40.2944 0 90C0 139.706 40.2944 180 90 180Z" fill="url(#paint0_linear_26_271)"/>
<path fill-rule="evenodd" clip-rule="evenodd" d="M86.7411 32.468C81.5165 33.07 76.656 35.4553 72.9832 39.2195C70.2249 41.9504 67.6123 44.7542 64.8176 47.5125C63.4188 48.9477 62.0047 50.3435 60.5907 51.7606C59.1767 53.1777 57.617 54.6827 56.1484 56.1696C54.6797 57.6564 53.4599 58.9612 52.1005 60.3419C49.9764 62.4659 47.8523 64.59 45.7283 66.7353C44.0988 68.4194 42.5057 70.1581 40.8945 71.8392C39.9447 72.8435 38.9221 73.7751 38.027 74.8311C34.3335 79.3371 32.3138 84.9869 32.3132 90.8132C32.3132 91.1561 32.3132 91.5081 32.3345 91.8479C32.41 95.1939 33.2885 98.4735 34.8955 101.409C35.8104 103.183 36.87 104.879 38.0634 106.48C38.8523 107.59 39.4258 107.572 40.4636 106.713C40.6618 106.549 40.8475 106.369 41.0189 106.176C42.0415 105.099 43.0428 104.025 44.0836 102.951C45.5523 101.409 47.0573 99.8708 48.526 98.3112C49.9946 96.7515 51.5877 95.034 53.1291 93.4228C53.8635 92.6338 54.6463 91.9056 55.3867 91.1288C56.9616 89.4629 58.5031 87.7454 60.0779 86.0978C61.6528 84.4501 63.2488 82.9086 64.7903 81.2974C66.3318 79.6861 68.2283 77.7137 69.9639 75.9235C71.6996 74.1332 73.1713 72.6281 74.7826 70.9804C76.8793 68.8108 78.9215 66.5897 80.997 64.4231C82.2866 63.0971 83.6126 61.8257 84.9022 60.5179C86.6925 58.7276 88.3584 56.9373 90.1153 55.147C91.8722 53.3567 93.177 52.1551 94.6821 50.6136C98.0463 47.2151 101.405 43.7962 104.759 40.3574C104.976 40.1437 105.178 39.9168 105.366 39.6777C106.192 38.6369 106.261 38.4063 105.242 37.6719C103.685 36.4454 102.018 35.3655 100.262 34.4464C97.1591 32.995 93.7748 32.2431 90.349 32.2434H90.1791C89.0348 32.2437 87.8914 32.3156 86.7563 32.4588L86.7381 32.4406L86.7411 32.468ZM116.384 54.5158H116.169C113.195 54.5167 110.369 55.8291 108.449 58.0994C108.279 58.2876 108.1 58.4666 107.912 58.6365L102.432 64.0104C100.642 65.8038 98.7057 67.7549 96.8244 69.6362C95.2677 71.1928 93.708 72.7161 92.1696 74.2758C90.6312 75.8354 88.9805 77.5711 87.3146 79.2006C85.6487 80.8301 83.8766 82.5384 82.1561 84.2164L76.0479 90.3762L64.6932 101.734C59.6765 106.771 54.6667 111.798 49.6639 116.815C48.6989 117.765 48.6807 117.889 49.6639 118.909C52.0641 121.336 54.5007 123.745 56.8281 126.191C58.2679 127.717 60.1686 128.73 62.2384 129.074C64.1913 129.467 66.2089 129.399 68.1312 128.877C69.5713 128.52 70.9007 127.812 72 126.816L77.9474 121.072C79.3432 119.731 80.7603 118.405 82.1379 117.042C84.8962 114.312 87.618 111.562 90.3763 108.85C92.6157 106.647 94.9097 104.462 97.1824 102.259L106.507 93.1709C109.408 90.3216 112.327 87.4572 115.264 84.6079C115.62 84.0787 116.218 83.7604 116.856 83.7604C117.647 83.7604 118.36 84.2495 118.645 84.9872C120.138 87.1674 120.936 89.7487 120.936 92.3911C120.935 92.8432 120.912 93.2947 120.866 93.7444C120.625 96.408 119.526 98.9229 117.734 100.909C115.583 103.221 113.292 105.406 111.059 107.627C109.466 109.202 107.836 110.743 106.24 112.336C104.18 114.378 102.156 116.457 100.095 118.499C99.792 118.839 99.5068 119.197 99.1851 119.519L97.1612 121.615C95.644 123.132 94.0995 124.607 92.6096 126.127C91.1197 127.648 89.4083 129.426 87.8153 131.086C87.6726 131.246 87.5118 131.353 87.3692 131.495C85.5759 133.161 83.9282 134.833 82.2259 136.511C81.4218 137.3 80.6511 138.104 79.8621 138.893C78.5027 140.274 77.1039 141.624 75.796 143.032C74.9919 143.873 74.9919 144.391 75.9417 145.056C77.5011 146.253 79.1609 147.313 80.9029 148.224C85.2357 150.183 90.0386 150.866 94.7458 150.193C99.4179 149.638 103.803 147.641 107.287 144.479C109.936 142.152 112.303 139.536 114.773 137.03C116.563 135.237 118.356 133.322 120.271 131.477L125.448 126.264C127.026 124.671 128.582 123.075 130.178 121.5C131.774 119.925 133.759 118.044 135.549 116.269C137.34 114.494 139.133 112.688 140.923 110.789C142.351 109.335 143.669 107.778 144.868 106.131C147.102 102.754 148.498 98.8923 148.937 94.8671C149.18 92.8678 149.18 90.8463 148.937 88.8469C148.404 85.2894 147.115 81.8869 145.156 78.8698C143.747 76.7348 142.062 74.7962 140.143 73.1045C135.182 68.1797 130.236 63.2185 125.384 58.1844C123.246 55.8039 120.193 54.4415 116.994 54.44H116.927L116.39 54.5128L116.384 54.5158Z" fill="white"/>
</g>
<defs>
<linearGradient id="paint0_linear_26_271" x1="12.2636" y1="37.763" x2="156.708" y2="136.594" gradientUnits="userSpaceOnUse">
<stop stop-color="#FF3B3B"/>
<stop offset="1" stop-color="#FF9914"/>
</linearGradient>
<clipPath id="clip0_26_271">
<rect width="180" height="180" fill="white"/>
</clipPath>
</defs>
</svg>
