<svg width="100%" height="100%" viewBox="0 0 180 180" fill="none" xmlns="http://www.w3.org/2000/svg">
<g clip-path="url(#clip0_663_2)">
<path d="M88.125 165C129.546 165 163.125 131.421 163.125 90C163.125 48.5786 129.546 15 88.125 15C46.7036 15 13.125 48.5786 13.125 90C13.125 131.421 46.7036 165 88.125 165Z" fill="#EC6E00" stroke="#040000" stroke-width="2"/>
<path d="M73.275 94.1063L97.4437 66.6188L142.144 60.9938L155.044 88.8L143.456 107.7L126.581 117.6L88.8375 121.913L81.4125 119.588L72.2812 132.169L64.3312 107.344L73.275 94.1063Z" fill="#F2DED3"/>
<path d="M97.5 52.5C97.5 52.5 73.125 46.0687 70.3312 43.3125C68.9062 41.8875 63.8437 37.9875 59.3062 34.5562C53.0419 29.8273 45.3444 27.3916 37.5 27.6562C27.7875 28.0312 15.7687 30.9937 11.25 42.4125C2.99998 62.8875 3.61873 70.8375 11.8687 83.3625L33.75 102.412L88.4062 142.725" fill="#F7D200"/>
<path d="M97.5 52.5C97.5 52.5 73.125 46.0687 70.3312 43.3125C68.9062 41.8875 63.8437 37.9875 59.3062 34.5562C53.0419 29.8273 45.3444 27.3916 37.5 27.6562C27.7875 28.0312 15.7687 30.9937 11.25 42.4125C2.99998 62.8875 3.61873 70.8375 11.8687 83.3625L33.75 102.412L88.4062 142.725" stroke="#040000" stroke-width="2"/>
<path d="M76.2937 117.246L104.247 141.247C108.058 144.519 113.799 144.082 117.071 140.272L117.083 140.258C120.355 136.447 119.918 130.706 116.107 127.434L88.154 103.433C84.3435 100.161 78.6022 100.598 75.3305 104.408L75.3183 104.422C72.0466 108.233 72.4833 113.974 76.2937 117.246Z" fill="#F7D200" stroke="#040000" stroke-width="2"/>
<path d="M92.7919 107.179L120.745 131.18C124.556 134.452 130.297 134.015 133.569 130.205L133.581 130.191C136.853 126.38 136.416 120.639 132.606 117.367L104.652 93.3659C100.842 90.0941 95.1003 90.5309 91.8286 94.3413L91.8164 94.3555C88.5447 98.166 88.9814 103.907 92.7919 107.179Z" fill="#F7D200" stroke="#040000" stroke-width="2"/>
<path d="M105.581 94.0334L133.535 118.035C137.345 121.306 143.086 120.87 146.358 117.059L146.37 117.045C149.642 113.235 149.205 107.493 145.395 104.222L117.441 80.2202C113.631 76.9485 107.89 77.3852 104.618 81.1957L104.606 81.2099C101.334 85.0204 101.771 90.7616 105.581 94.0334Z" fill="#F7D200" stroke="#040000" stroke-width="2"/>
<path d="M48.3375 68.7C49.7926 72.0131 52.2323 74.7981 55.3251 76.6766C58.418 78.5551 62.014 79.4361 65.625 79.2" fill="#F7D200"/>
<path d="M48.3375 68.7C49.7926 72.0131 52.2323 74.7981 55.3251 76.6766C58.418 78.5551 62.014 79.4361 65.625 79.2" stroke="#040000" stroke-width="2"/>
<path d="M95.3902 134.481L95.377 134.468C91.7011 130.792 85.7415 130.792 82.0657 134.468L78.1147 138.419C74.4389 142.095 74.4389 148.054 78.1147 151.73L78.128 151.743C81.8038 155.419 87.7634 155.419 91.4392 151.743L95.3902 147.792C99.066 144.117 99.066 138.157 95.3902 134.481Z" fill="#F2DED3" stroke="#040000" stroke-width="2"/>
<path d="M129.937 70.2187C129.937 70.2187 122.906 77.5687 108.244 73.5937H101.25L81.6562 87.6375C81.6562 87.6375 73.4062 91.9125 68.5312 85.7625C67.1528 84.0956 66.374 82.0141 66.3196 79.8518C66.2652 77.6895 66.9384 75.5716 68.2312 73.8375L108.844 44.25C108.844 44.25 140.625 9.65623 164.775 38.4375C194.4 73.8937 146.025 103.481 146.025 103.481" fill="#F2DED3"/>
<path d="M129.937 70.2187C129.937 70.2187 122.906 77.5687 108.244 73.5937H101.25L81.6562 87.6375C81.6562 87.6375 73.4062 91.9125 68.5312 85.7625C67.1528 84.0956 66.374 82.0141 66.3196 79.8518C66.2652 77.6895 66.9384 75.5716 68.2312 73.8375L108.844 44.25C108.844 44.25 140.625 9.65623 164.775 38.4375C194.4 73.8937 146.025 103.481 146.025 103.481" stroke="#040000" stroke-width="2"/>
<path d="M117.956 79.1249L112.556 75.9187L102.787 77.5499L88.875 84.525L66.5437 109.537L78.0749 122.925" fill="#F7D200"/>
<path d="M55.1739 94.378L55.1606 94.3647C51.4848 90.6889 45.5252 90.6889 41.8494 94.3647L33.7883 102.426C30.1125 106.102 30.1125 112.061 33.7883 115.737L33.8016 115.75C37.4774 119.426 43.4371 119.426 47.1129 115.75L55.1739 107.689C58.8497 104.013 58.8497 98.0538 55.1739 94.378Z" fill="#F2DED3" stroke="#040000" stroke-width="2"/>
<path d="M66.5584 109.551L66.5451 109.538C62.8693 105.862 56.9096 105.862 53.2338 109.538L45.1728 117.599C41.497 121.275 41.497 127.234 45.1728 130.91L45.1861 130.923C48.8619 134.599 54.8215 134.599 58.4974 130.923L66.5584 122.862C70.2342 119.187 70.2342 113.227 66.5584 109.551Z" fill="#F2DED3" stroke="#040000" stroke-width="2"/>
<path d="M80.5122 122.177L80.4989 122.164C76.8231 118.488 70.8634 118.488 67.1876 122.164L59.1266 130.225C55.4508 133.901 55.4508 139.861 59.1266 143.536L59.1399 143.55C62.8157 147.225 68.7753 147.225 72.4511 143.55L80.5122 135.489C84.188 131.813 84.188 125.853 80.5122 122.177Z" fill="#F2DED3" stroke="#040000" stroke-width="2"/>
<path d="M119.719 80.8688L115.969 81.4313C110.1 80.1 108.15 79.2937 104.175 82.125L86.25 94.7625C83.8684 96.5435 80.9673 97.492 77.9936 97.4618C75.0199 97.4317 72.1386 96.4244 69.7937 94.5954C67.4488 92.7664 65.7704 90.217 65.0171 87.3402C64.2638 84.4633 64.4774 81.4185 65.625 78.675C65.6446 80.7452 66.2352 82.7699 67.3316 84.5261C68.428 86.2823 69.9877 87.7019 71.8391 88.6285C73.6905 89.5552 75.7617 89.953 77.8246 89.7781C79.8876 89.6033 81.8622 88.8625 83.5312 87.6375L97.5 77.1C100.819 74.7562 99.4875 73.9688 103.537 74.1188L109.687 73.125C111.017 73.1738 112.285 73.6919 113.269 74.5875L119.719 80.8688Z" fill="#040000"/>
<path d="M88.125 165C129.546 165 163.125 131.421 163.125 90C163.125 48.5786 129.546 15 88.125 15C46.7036 15 13.125 48.5786 13.125 90C13.125 131.421 46.7036 165 88.125 165Z" stroke="#040000" stroke-width="2"/>
</g>
<defs>
<clipPath id="clip0_663_2">
<rect width="180" height="180" fill="white"/>
</clipPath>
</defs>
</svg>
