<svg width="100%" height="100%" viewBox="0 0 180 180" fill="none" xmlns="http://www.w3.org/2000/svg">
<g clip-path="url(#clip0_751_150)">
<path d="M90 180C139.706 180 180 139.706 180 90C180 40.2944 139.706 0 90 0C40.2944 0 0 40.2944 0 90C0 139.706 40.2944 180 90 180Z" fill="url(#paint0_linear_751_150)"/>
<path fill-rule="evenodd" clip-rule="evenodd" d="M97.9705 62.5187C101.381 66.1346 103.384 69.1128 103.977 71.4532C96.989 58.0865 80.9094 52.892 55.7376 55.8695C45.6778 57.5555 38.0717 61.4329 32.9192 67.5018C32.5559 67.9297 31.5662 67.8747 30.5164 67.7646L30.2824 67.7394C29.1878 67.6192 28.0737 67.4739 27.5717 67.7807C27.0353 68.1086 27.4307 69.5551 27.8294 71.1197L27.8863 71.3439L27.9426 71.5691L27.9978 71.7946L28.0512 72.0197C28.3129 73.1435 28.4861 74.2304 28.2324 74.9156C27.2557 77.5535 26.1283 83.0423 24.8503 91.3817C24.8272 92.6784 24.1055 93.4423 22.6833 93.6741C20.7112 93.9955 19.0253 92.9408 18.3817 94.0701C17.7855 96.0959 17.7855 97.7953 17.841 99.8245C17.9246 102.88 18.8825 105.156 20.7719 106.483C21.9752 107.328 24.3427 107.328 27.8745 106.483C25.8695 108.075 24.1553 108.899 22.7318 108.956C24.606 112.231 27.1128 114.348 30.2524 115.308C27.5081 114.999 25.7683 114.213 23.0133 112.255C21.7058 111.326 20.4871 109.948 20.5198 109.265C20.5382 109.115 20.5646 108.979 20.599 108.856C20.4419 108.832 20.2879 108.803 20.137 108.766C16.1086 107.788 15.5787 107.153 15.4417 105.931C15.2778 104.469 15.1595 102.814 15.0868 101.139L15.0714 100.767L15.0575 100.394C15.0509 100.208 15.0449 100.021 15.0395 99.8354L15.0293 99.4638C14.9339 95.6916 15.0713 92.1071 15.4417 90.6947C15.9379 89.6266 18.4876 90.7161 20.4872 90.8859C22.0326 82.7376 23.3499 76.8877 24.4389 73.3356C24.4389 72.7601 24.0181 70.8644 23.6609 68.8443L23.6116 68.5618C23.188 66.108 22.8905 63.5537 23.5756 63.0133C24.5135 62.3363 31.0621 61.9357 32.9192 61.9357C37.3328 58.4536 40.5822 56.4965 46.2486 54.8259C64.1749 49.1603 86.3784 51.799 97.9705 62.5187ZM32.1936 79.8025C33.573 79.8266 34.2905 81.5594 34.2458 84.1184C34.2012 86.6773 33.7627 88.2266 33.0183 88.9538C32.2738 89.6809 30.3184 89.4996 30.1 86.372C29.8816 83.2444 30.8142 79.7784 32.1936 79.8025ZM73.8724 60.4844C82.3208 61.1902 88.5551 64.211 92.5755 69.5466C89.6592 68.0489 86.5702 66.8187 83.3393 65.8918C80.2031 64.9921 76.9332 64.3782 73.5575 64.0829C70.1819 63.7876 66.855 63.8244 63.6103 64.1659C60.2674 64.5177 57.0117 65.1929 53.8796 66.1615C58.7598 61.6709 65.424 59.7786 73.8724 60.4844Z" fill="white"/>
<path fill-rule="evenodd" clip-rule="evenodd" d="M75.7002 41.7C84.321 41.7 91.3095 48.6878 91.3095 57.3079C91.3095 61.1286 89.9365 64.6287 87.657 67.3417C86.2489 66.7977 84.8088 66.3134 83.3393 65.8918C80.2031 64.9921 76.9332 64.3782 73.5575 64.0829C70.1819 63.7875 66.855 63.8244 63.6103 64.1659C62.9997 64.2302 62.392 64.3052 61.7874 64.3909C60.7025 62.2655 60.0908 59.8581 60.0908 57.3079C60.0908 48.6878 67.0794 41.7 75.7002 41.7Z" fill="white"/>
<mask id="mask0_751_150" style="mask-type:alpha" maskUnits="userSpaceOnUse" x="63" y="43" width="27" height="23">
<path d="M76.3246 43.7368C83.4755 43.7368 89.2725 49.5332 89.2725 56.6835C89.2725 60.0597 87.98 63.1341 85.8628 65.4389C85.0319 65.1526 84.1905 64.8873 83.3393 64.6431C80.2032 63.7434 76.9333 63.1295 73.5576 62.8342C70.6306 62.5781 67.7404 62.5718 64.9086 62.7972C63.9311 60.9765 63.3767 58.8948 63.3767 56.6835C63.3767 49.5332 69.1737 43.7368 76.3246 43.7368Z" fill="white"/>
</mask>
<g mask="url(#mask0_751_150)">
<path d="M76.3246 43.7368C83.4755 43.7368 89.2725 49.5332 89.2725 56.6835C89.2725 60.0597 87.98 63.1341 85.8628 65.4389C85.0319 65.1526 84.1905 64.8873 83.3393 64.6431C80.2032 63.7434 76.9333 63.1295 73.5576 62.8342C70.6306 62.5781 67.7404 62.5718 64.9086 62.7972C63.9311 60.9765 63.3767 58.8948 63.3767 56.6835C63.3767 49.5332 69.1737 43.7368 76.3246 43.7368Z" fill="#FD5295"/>
<path d="M80.0708 70.8788C87.2217 70.8788 93.0187 65.0824 93.0187 57.9322C93.0187 50.7819 87.2217 44.9855 80.0708 44.9855C72.9199 44.9855 67.1229 50.7819 67.1229 57.9322C67.1229 65.0824 72.9199 70.8788 80.0708 70.8788Z" fill="#FFBBA0"/>
</g>
<path d="M75.6348 93.7279C79.5972 93.7279 82.8379 96.8177 83.0785 100.719L83.0928 100.719V102.583L70.0604 102.583C70.2972 105.454 72.7025 107.71 75.6348 107.71C77.8717 107.71 79.8019 106.397 80.6967 104.5L82.3081 105.451C81.0841 107.896 78.5555 109.575 75.6348 109.575C71.557 109.575 68.2436 106.302 68.1777 102.241L68.1767 102.117V101.185C68.1767 97.0666 71.5158 93.7279 75.6348 93.7279ZM44.2175 89.067L49.0655 107.337L53.9129 89.067H56.3369L61.1848 107.337L66.0323 89.067H67.9616L62.5202 109.575H59.849L55.1252 91.7703L50.4008 109.575H47.7299L42.2888 89.067H44.2175ZM75.6348 95.5922C72.7025 95.5922 70.2972 97.8483 70.0604 100.719L81.2091 100.719C80.975 97.8811 78.6218 95.644 75.7353 95.5931L75.6348 95.5922Z" fill="white"/>
<path d="M153.075 93.7278L157.036 104.607L161.028 93.7278H165L158.156 112.381C157.361 113.978 156.451 115.036 155.428 115.554C154.483 115.915 153.522 116.1 152.552 116.1C151.194 116.1 149.856 115.739 148.556 115.038L148.351 114.924L150.194 111.683C151.015 112.15 151.794 112.371 152.552 112.371C153.636 112.482 154.333 112.067 154.644 111.125L155.043 110.037L149.107 93.7278H153.075ZM128.307 93.7278V108.41C128.307 112.657 124.864 116.1 120.616 116.1C118.38 116.1 116.172 115.418 114.015 114.087L113.828 114C114.668 112.555 115.299 111.476 115.719 110.763C115.728 110.747 115.753 110.76 115.795 110.801C117.449 111.86 119.048 112.371 120.616 112.371C120.742 112.371 120.868 112.365 120.991 112.354C122.965 112.168 124.517 110.536 124.576 108.528L124.578 108.41L124.578 107.785C123.607 108.332 122.498 108.643 121.315 108.643C117.416 108.643 114.323 105.269 114.323 101.185C114.323 97.1011 117.416 93.7278 121.315 93.7278C122.498 93.7278 123.607 94.0384 124.578 94.5852L124.578 93.7278H128.307ZM146.515 93.7278V108.41C146.515 112.657 143.072 116.1 138.824 116.1C136.588 116.1 134.38 115.418 132.223 114.087L132.036 114C132.876 112.555 133.507 111.476 133.927 110.763C133.936 110.747 133.961 110.76 134.002 110.801C135.657 111.86 137.255 112.371 138.824 112.371C138.95 112.371 139.076 112.365 139.199 112.354C141.172 112.168 142.725 110.536 142.784 108.528L142.786 108.41L142.786 107.785C141.815 108.332 140.706 108.643 139.523 108.643C135.624 108.643 132.531 105.269 132.531 101.185C132.531 97.1011 135.624 93.7278 139.523 93.7278C140.706 93.7278 141.815 94.0384 142.786 94.5852L142.786 93.7278H146.515ZM111.06 93.7278V109.575H107.331V93.7278H111.06ZM96.6105 89.067C100.472 89.067 103.602 92.1971 103.602 96.0583C103.602 99.8706 100.551 102.97 96.7567 103.048L96.6105 103.05H90.5508V109.575H86.8218V89.067H96.6105ZM121.315 97.4565C119.551 97.4565 118.052 99.0914 118.052 101.185C118.052 103.279 119.551 104.914 121.315 104.914C123.079 104.914 124.578 103.279 124.578 101.185C124.578 99.0914 123.079 97.4565 121.315 97.4565ZM139.523 97.4565C137.759 97.4565 136.26 99.0914 136.26 101.185C136.26 103.279 137.759 104.914 139.523 104.914C141.287 104.914 142.786 103.279 142.786 101.185C142.786 99.0914 141.287 97.4565 139.523 97.4565ZM96.6105 92.7957H93.8134C92.0115 92.7957 90.5508 94.2564 90.5508 96.0583C90.5508 97.8601 92.0115 99.3209 93.8134 99.3209H96.6105C98.4125 99.3209 99.8733 97.8601 99.8733 96.0583C99.8733 94.2939 98.4727 92.8567 96.7226 92.7976L96.6105 92.7957ZM109.196 86.7366C110.483 86.7366 111.527 87.7799 111.527 89.067C111.527 90.3541 110.483 91.3974 109.196 91.3974C107.909 91.3974 106.865 90.3541 106.865 89.067C106.865 87.7799 107.909 86.7366 109.196 86.7366Z" fill="white"/>
</g>
<defs>
<linearGradient id="paint0_linear_751_150" x1="-2.21071e-06" y1="-31.8416" x2="180" y2="180" gradientUnits="userSpaceOnUse">
<stop stop-color="#F08E8E"/>
<stop offset="1" stop-color="#FF4596"/>
</linearGradient>
<clipPath id="clip0_751_150">
<rect width="180" height="180" fill="white"/>
</clipPath>
</defs>
</svg>
