
<svg version="1.0" xmlns="http://www.w3.org/2000/svg"
 width="100%" height="100%" viewBox="0 0 360 360"
 preserveAspectRatio="xMidYMid meet">

<g transform="translate(0,360) scale(0.100000,-0.100000)">
<path d="M1590 3590 c-161 -25 -331 -66 -404 -99 -24 -10 -58 -22 -75 -26 -17
-4 -31 -11 -31 -16 0 -5 -6 -9 -13 -9 -20 0 -155 -72 -239 -127 -150 -97 -305
-236 -416 -373 -29 -36 -60 -73 -68 -83 -8 -9 -14 -19 -14 -22 0 -3 -15 -27
-32 -53 -49 -71 -53 -79 -107 -187 -123 -246 -180 -497 -181 -787 0 -260 46
-490 142 -708 30 -68 119 -244 127 -250 13 -10 51 -70 51 -80 0 -6 7 -13 15
-16 8 -4 15 -12 15 -20 0 -7 6 -17 12 -21 7 -4 31 -30 52 -58 49 -62 231 -241
269 -263 15 -9 27 -20 27 -24 0 -4 5 -8 11 -8 6 0 30 -16 53 -35 24 -19 46
-35 50 -35 5 0 21 -9 36 -20 16 -11 64 -38 107 -61 366 -189 782 -246 1193
-162 75 15 232 60 260 74 8 4 42 18 75 31 235 91 521 304 680 507 28 35 58 72
68 82 9 11 17 21 17 24 0 3 15 27 33 53 43 60 112 184 141 252 54 127 76 194
104 315 37 158 43 206 49 370 4 132 1 184 -16 300 -12 77 -26 153 -31 170 -5
16 -19 64 -30 105 -23 83 -38 122 -87 227 -18 39 -33 76 -33 82 0 6 -4 11 -9
11 -5 0 -14 12 -20 28 -12 30 -14 33 -91 146 -74 109 -78 114 -210 246 -130
131 -135 135 -245 210 -107 73 -116 79 -147 93 -16 6 -28 15 -28 19 0 4 -4 8
-9 8 -5 0 -42 15 -83 33 -157 72 -246 100 -448 143 -87 18 -433 28 -520 14z
m675 -472 c33 -6 76 -20 95 -30 19 -10 38 -18 42 -18 14 0 209 -119 256 -157
60 -48 207 -195 253 -253 56 -71 94 -132 143 -230 15 -30 32 -63 37 -72 5 -10
17 -43 28 -75 68 -204 84 -313 79 -521 -2 -92 -7 -173 -12 -180 -8 -13 -39 36
-75 116 -6 12 -15 28 -21 35 -5 6 -37 48 -70 93 -105 141 -240 266 -402 368
l-44 27 4 122 c5 182 -33 372 -96 482 -66 115 -141 174 -250 196 -191 40 -362
-98 -362 -292 0 -152 108 -278 255 -298 32 -5 41 -11 43 -28 3 -22 1 -22 -45
-17 -26 3 -61 10 -78 16 -76 26 -487 20 -559 -8 -18 -7 -19 -3 -14 57 5 57 25
138 48 194 64 154 124 249 203 321 71 64 71 63 147 101 133 66 240 80 395 51z
m-952 -15 c-4 -9 -22 -39 -40 -67 -28 -43 -81 -146 -114 -221 -51 -119 -99
-352 -99 -484 l0 -68 -56 -29 c-31 -16 -68 -35 -83 -43 -93 -50 -301 -222
-301 -250 0 -5 -6 -11 -12 -14 -13 -5 -28 -31 -65 -112 -28 -62 -26 -224 4
-287 28 -57 81 -110 142 -140 66 -33 196 -33 262 0 59 29 112 82 141 141 30
60 33 211 5 252 -15 23 -16 28 -2 39 20 16 45 6 45 -20 0 -19 28 -94 66 -177
8 -17 14 -36 14 -42 0 -6 4 -11 9 -11 5 0 12 -13 16 -30 4 -17 10 -30 14 -30
3 0 12 -12 19 -27 7 -16 18 -37 25 -48 41 -66 70 -107 111 -159 33 -43 43 -62
34 -67 -46 -24 -181 -60 -281 -75 -113 -17 -123 -17 -225 0 -59 9 -116 21
-127 26 -122 52 -158 74 -220 135 -104 101 -159 208 -180 346 -19 126 -19 197
1 338 25 183 57 288 131 441 103 209 240 372 433 516 87 64 241 149 320 177 8
3 16 6 17 6 1 1 -1 -7 -4 -16z m597 -1083 c36 -5 94 -15 130 -23 64 -12 65
-13 62 -42 -10 -90 -125 -305 -228 -425 -74 -86 -77 -87 -116 -37 -18 23 -38
47 -45 52 -16 14 -143 217 -143 230 0 6 -9 28 -20 50 -11 22 -20 46 -20 55 0
9 -4 20 -9 26 -5 5 -12 26 -15 46 -7 37 -6 37 31 43 21 4 61 11 88 16 107 20
192 22 285 9z m611 -241 c111 -96 189 -187 250 -294 61 -106 80 -170 86 -286
5 -101 -8 -231 -26 -254 -5 -5 -12 -21 -16 -35 -4 -14 -20 -44 -36 -68 -16
-24 -29 -46 -29 -50 -1 -11 -102 -107 -135 -128 -16 -10 -36 -24 -43 -31 -7
-7 -20 -13 -27 -13 -8 0 -18 -6 -22 -13 -12 -18 -218 -117 -245 -117 -8 0 -18
-4 -24 -9 -18 -18 -220 -60 -344 -71 -107 -11 -144 -10 -260 4 -278 35 -467
112 -713 290 l-29 21 159 6 c155 6 249 17 315 38 18 5 65 19 103 31 82 25 104
34 210 87 68 34 84 39 105 29 14 -6 30 -15 36 -21 6 -5 28 -19 50 -30 21 -11
41 -23 44 -26 8 -9 81 -47 125 -64 138 -56 156 -60 295 -60 l135 0 64 35 c62
33 141 115 141 145 0 7 6 15 13 17 8 3 12 34 12 109 l0 104 -41 60 c-74 110
-189 160 -307 136 -75 -15 -118 -40 -174 -99 -27 -28 -48 -42 -58 -38 -8 3
-15 10 -15 15 0 8 40 58 83 104 10 10 43 55 73 100 30 45 58 87 62 92 4 6 13
21 19 35 7 14 17 32 23 40 10 16 68 143 90 198 15 38 19 39 51 11z"/>
</g>
</svg>
