<svg width="100%" height="100%" viewBox="0 0 180 180" fill="none" xmlns="http://www.w3.org/2000/svg">
<g clip-path="url(#clip0_723_84)">
<path class="inverted" d="M145.509 30.8777H34.3712V131.888H145.509V30.8777Z" fill="black"/>
<path fill-rule="evenodd" clip-rule="evenodd" d="M179.94 90C179.94 139.64 139.673 179.88 90.0001 179.88C40.3275 179.88 0.0599365 139.64 0.0599365 90C0.0599365 40.3605 40.3275 0.11969 90.0001 0.11969C139.673 0.11969 179.94 40.3605 179.94 90ZM64.5136 125.768H47.0587C43.391 125.768 41.5792 125.768 40.4745 125.062C39.2814 124.289 38.5523 123.008 38.4639 121.595C38.3975 120.292 39.3035 118.702 41.1153 115.523L84.2135 39.6066C86.0474 36.3829 86.9753 34.771 88.1463 34.1749C89.4057 33.5346 90.9082 33.5346 92.1676 34.1749C93.3386 34.771 94.2666 36.3829 96.1004 39.6066L104.961 55.0627L105.006 55.1415C106.986 58.5999 107.991 60.3538 108.429 62.1944C108.915 64.2038 108.915 66.3234 108.429 68.3328C107.987 70.1874 106.993 71.9539 104.983 75.4647L82.3441 115.456L82.2856 115.559C80.2918 119.046 79.2814 120.813 77.881 122.146C76.3565 123.604 74.5226 124.663 72.5119 125.26C70.678 125.768 68.6233 125.768 64.5136 125.768ZM108.593 125.768H133.604C137.293 125.768 139.15 125.768 140.255 125.04C141.448 124.267 142.199 122.964 142.266 121.551C142.329 120.291 141.443 118.763 139.707 115.768C139.647 115.666 139.587 115.562 139.526 115.457L126.998 94.0392L126.855 93.7981C125.095 90.8231 124.206 89.3207 123.065 88.74C121.806 88.0996 120.325 88.0996 119.066 88.74C117.917 89.3361 116.989 90.9038 115.155 94.0613L102.671 115.479L102.629 115.553C100.801 118.705 99.888 120.28 99.9538 121.573C100.042 122.986 100.771 124.289 101.964 125.062C103.047 125.768 104.903 125.768 108.593 125.768Z" fill="white"/>
</g>
<defs>
<clipPath id="clip0_723_84">
<rect width="180" height="180" fill="white"/>
</clipPath>
</defs>
</svg>
