<svg width="100%" height="100%" viewBox="0 0 180 180" fill="none" xmlns="http://www.w3.org/2000/svg">
<path d="M42.8868 27.5707L90.4268 0L137.966 27.5707L120.488 37.756L90.4268 20.3707L60.3646 37.756L42.8868 27.5707ZM137.966 62.3413L120.488 52.156L90.4268 69.5414L60.3646 52.156L42.8868 62.3413V82.7118L72.949 100.097V134.868L90.4268 145.054L107.904 134.868V100.097L137.966 82.7118V62.3413ZM137.966 117.483V97.112L120.488 107.297V127.668L137.966 117.483ZM150.375 124.683L120.314 142.068V162.439L167.853 134.868V79.7265L150.375 89.9119V124.683ZM132.897 44.956L150.375 55.1413V75.5121L167.853 65.3267V44.956L150.375 34.7707L132.897 44.956ZM72.949 149.444V169.815L90.4268 180L107.904 169.815V149.444L90.4268 159.629L72.949 149.444ZM42.8868 117.483L60.3646 127.668V107.297L42.8868 97.112V117.483ZM72.949 44.956L90.4268 55.1413L107.904 44.956L90.4268 34.7707L72.949 44.956ZM30.4778 55.1413L47.9556 44.956L30.4778 34.7707L13 44.956V65.3267L30.4778 75.5121V55.1413ZM30.4778 89.9119L13 79.7265V134.868L60.5392 162.439V142.068L30.4778 124.683V89.9119Z" fill="white"/>
</svg>
