<svg width="100%" height="100%" viewBox="0 0 180 180" fill="none" xmlns="http://www.w3.org/2000/svg">
<g clip-path="url(#clip0_405_22)">
<path d="M177.289 72.7181C176.118 66.9844 174.408 61.4327 172.157 56.063C169.996 50.7844 167.204 45.7787 164.053 40.9551C160.902 36.2226 157.3 31.854 153.338 27.8495C149.377 23.845 145.055 20.2046 140.373 17.0192C135.69 13.8338 130.648 11.1035 125.426 8.82818C120.114 6.5529 114.621 4.82368 108.949 3.64054C103.186 2.45739 97.2434 1.82031 91.3007 1.82031C85.3581 1.82031 79.4155 2.45739 73.6529 3.64054C67.9804 4.82368 62.4879 6.5529 57.1756 8.82818C51.9532 11.0124 47.001 13.8338 42.2289 17.0192C37.5468 20.2046 33.2249 23.845 29.2632 27.8495C25.3014 31.854 21.6998 36.2226 18.5484 40.9551C15.397 45.6877 12.6958 50.7844 10.4448 56.063C8.1938 61.4327 6.48304 66.9844 5.31252 72.7181C4.142 78.5428 3.51172 84.5495 3.51172 90.5563C3.51172 96.563 4.142 102.57 5.31252 108.394C6.48304 114.128 8.1938 119.68 10.4448 125.05C12.6058 130.328 15.397 135.334 18.5484 140.157C21.6998 144.89 25.3014 149.259 29.2632 153.263C33.2249 157.268 37.5468 160.908 42.2289 164.093C46.911 167.279 51.9532 170.009 57.1756 172.284C62.4879 174.56 67.9804 176.289 73.6529 177.472C79.4155 178.655 85.3581 179.292 91.3007 179.292C97.2434 179.292 103.186 178.655 108.949 177.472C114.621 176.289 120.114 174.56 125.426 172.284C130.648 170.1 135.6 167.279 140.373 164.093C145.055 160.908 149.377 157.268 153.338 153.263C157.3 149.259 160.902 144.89 164.053 140.157C167.204 135.425 169.906 130.328 172.157 125.05C174.408 119.68 176.118 114.128 177.289 108.394C178.459 102.57 179.09 96.563 179.09 90.5563C179.09 84.5495 178.459 78.5428 177.289 72.7181ZM91.3908 168.189C48.9819 168.189 14.6767 133.423 14.6767 90.6473C14.6767 47.872 49.072 13.1057 91.3908 13.1057C133.71 13.1057 168.105 47.872 168.105 90.6473C168.105 133.423 133.71 168.189 91.3908 168.189Z" fill="white"/>
<path d="M92.7413 161.454C93.0114 161.454 93.1915 161.454 93.4616 161.454C93.5517 161.454 93.7317 161.454 93.8218 161.454C94.0919 161.454 94.362 161.454 94.5421 161.454C94.6321 161.454 94.7222 161.454 94.8122 161.454C95.1724 161.454 95.5325 161.454 95.8927 161.363C95.8927 161.363 95.8927 161.363 95.9827 161.363C96.3429 161.363 96.613 161.363 96.9732 161.272C97.0632 161.272 97.1533 161.272 97.2433 161.272C97.5134 161.272 97.7835 161.272 98.0537 161.181C98.1437 161.181 98.2337 161.181 98.3238 161.181C98.5939 161.181 98.864 161.09 99.2242 161.09C99.3142 161.09 99.3142 161.09 99.4043 161.09C99.7644 161.09 100.125 160.999 100.485 160.999C100.845 160.999 101.115 160.908 101.475 160.817C101.565 160.817 101.655 160.817 101.655 160.817C101.925 160.817 102.195 160.726 102.466 160.726C102.556 160.726 102.556 160.726 102.646 160.726C103.006 160.635 103.276 160.635 103.636 160.544C104.356 160.453 105.077 160.271 105.707 160.089C105.797 160.089 105.797 160.089 105.887 160.089C106.157 159.998 106.517 159.998 106.788 159.907H106.878C107.598 159.725 108.228 159.543 108.948 159.361C100.305 159.634 93.2815 158.451 88.8696 157.45C78.9652 155.265 69.511 151.352 61.4974 144.617C48.1715 133.332 41.3284 117.132 41.5085 101.023C41.5986 89.0093 45.6504 76.9958 53.844 67.1666C64.1086 54.88 78.695 48.4182 93.6417 48.0542C94.362 48.0542 94.9923 48.0542 95.7126 48.0542V35.9497C94.9023 35.9497 94.1819 35.9497 93.3716 35.9497C88.7795 36.0407 84.2775 36.5868 79.8656 37.5879C75.3636 38.589 71.0417 40.1362 66.8998 42.0475C62.6679 44.0497 58.7062 46.507 55.0145 49.3284C51.2328 52.2407 47.7213 55.6081 44.6599 59.3396C41.7786 62.798 39.2575 66.5295 37.1866 70.534C35.1157 74.3564 33.495 78.452 32.2344 82.6385C31.0639 86.734 30.1635 91.0115 29.8033 95.289C29.7133 96.6542 29.6232 97.9284 29.5332 99.2935C29.5332 99.8396 29.5332 100.295 29.5332 100.841C29.5332 101.114 29.5332 101.387 29.5332 101.66C29.6232 106.301 30.1635 110.852 31.1539 115.312C32.1444 119.862 33.675 124.231 35.5659 128.417C37.8169 133.423 41.8687 140.795 47.9014 146.346C59.7866 155.812 74.8233 161.454 91.1206 161.454C91.4807 161.454 91.8409 161.454 92.2011 161.454C92.4712 161.454 92.6513 161.454 92.7413 161.454Z" fill="white"/>
<path d="M112.37 149.805C108.228 149.714 103.096 149.077 99.134 148.348C80.5858 144.981 64.6487 133.514 58.7961 116.221C51.6829 95.1979 62.5778 72.4451 83.287 65.5282C87.3388 64.1631 91.3906 63.526 95.5324 63.526C100.845 63.526 106.157 64.6181 111.019 66.6204L116.062 55.79C114.531 55.153 113 54.6069 111.47 54.0608C106.337 52.4226 100.935 51.6035 95.5324 51.6035C90.13 51.6035 84.7276 52.5136 79.5953 54.2428C73.0224 56.4271 66.9897 59.9765 61.8575 64.6181C59.4264 66.8024 57.0853 69.3507 55.1045 71.99C53.1236 74.6294 51.4128 77.4507 49.9722 80.4541C48.5315 83.4574 47.361 86.5518 46.5507 89.7372C45.7403 92.9226 45.11 96.29 44.9299 99.6574C44.4797 106.574 45.3801 113.491 47.6311 120.044C49.8821 126.688 53.4837 132.786 58.4359 138.155C62.8479 142.979 67.9802 146.619 74.1929 149.987C80.6758 153.445 88.6894 155.265 97.0631 156.448C102.466 157.177 109.669 157.359 113.901 157.359C117.592 155.993 119.123 155.356 121.104 154.537C122.815 153.718 124.525 152.899 126.236 151.898C127.947 150.897 128.217 150.715 131.098 148.804C131.368 148.621 131.638 148.439 131.819 148.257C121.914 149.987 119.393 149.896 112.37 149.805Z" fill="white"/>
<path d="M134.52 136.244C131.729 136.426 127.767 136.699 123.265 136.699C115.251 136.699 105.437 135.971 97.0633 133.15C84.0975 128.781 71.8521 117.587 71.8521 103.753C71.8521 89.9193 82.927 78.8159 96.523 78.8159C105.797 78.8159 113.811 84.0036 118.043 91.5575L128.757 86.1878C127.047 83.0024 124.976 80.0901 122.365 77.5418C119.033 74.1743 115.071 71.444 110.749 69.6238C106.247 67.7125 101.475 66.7114 96.523 66.7114C91.5708 66.7114 86.7987 67.7125 82.2967 69.6238C77.9748 71.444 74.013 74.1743 70.6816 77.5418C67.3501 80.9092 64.6489 84.9137 62.8481 89.2822C60.9572 93.8328 59.9668 98.6564 59.9668 103.662C59.9668 108.668 61.0473 113.673 63.1182 118.406C65.009 122.592 67.6202 126.506 70.9517 130.146C76.8043 136.517 84.8178 141.614 93.3716 144.526C101.565 147.256 113.631 148.257 125.336 147.438C128.577 147.165 131.008 146.892 135.15 145.982C139.112 142.797 142.804 139.156 145.955 135.152C143.164 135.425 138.031 135.971 134.52 136.244Z" fill="white"/>
</g>
<defs>
<clipPath id="clip0_405_22">
<rect width="180" height="180" fill="white"/>
</clipPath>
</defs>
</svg>
