<svg width="100%" height="100%" viewBox="0 0 180 180" fill="none" xmlns="http://www.w3.org/2000/svg">
<g clip-path="url(#clip0_126_82)">
<path d="M90 180C139.706 180 180 139.706 180 90C180 40.2944 139.706 0 90 0C40.2944 0 0 40.2944 0 90C0 139.706 40.2944 180 90 180Z" fill="white"/>
<path class="inverted" fill-rule="evenodd" clip-rule="evenodd" d="M96.75 72.5625L117 60.75V84.375L96.75 72.5625ZM117 123.188L90 138.938L63 123.188V95.625L90 111.375L117 95.625V123.188ZM63 60.75L83.25 72.5625L63 84.375V60.75ZM93.375 78.1875L113.625 90L93.375 101.812V78.1875ZM86.625 101.812L66.375 90L86.625 78.1875V101.812ZM113.625 55.125L90 68.625L66.375 55.125L90 41.0625L113.625 55.125ZM56.25 52.875V126.562L90 145.688L123.75 126.562V52.875L90 33.75L56.25 52.875Z" fill="white"/>
</g>
<defs>
<clipPath id="clip0_126_82">
<rect width="180" height="180" fill="white"/>
</clipPath>
</defs>
</svg>
