<svg width="100%" height="100%" viewBox="0 0 180 180" fill="none" xmlns="http://www.w3.org/2000/svg">
<path d="M74.1191 9C33.2502 9 0.126139 42.0736 0 82.8921V129.69H25.4043V83.1191C25.4043 56.2263 47.2011 34.4043 74.1191 34.4043H180V9H74.1191Z" fill="white"/>
<path d="M154.57 49.6671H74.0939C56.0056 49.6671 41.2978 64.0217 40.6671 81.9334H40.6419V83.1191V129.79H106.638C108.53 129.79 109.463 127.495 108.126 126.158L92.6868 110.92L81.309 99.6937C81.309 99.6937 74.22 92.1254 71.5711 89.4513C70.4359 88.2908 67.7617 86.0708 67.7617 83.0939C67.7617 79.5872 70.6125 76.7365 74.1191 76.7365H106.966H154.596V96.2123C154.596 123.105 132.799 144.927 105.881 144.927H0V170.331H105.881C146.75 170.331 179.874 137.258 180 96.4394V76.7365V49.6671H154.57Z" fill="white"/>
</svg>
