<svg width="100%" height="100%" viewBox="0 0 180 180" fill="none" xmlns="http://www.w3.org/2000/svg">
<g clip-path="url(#clip0_28_285)">
<path d="M21.8237 31.1108C22.9415 29.7059 24.1259 28.3541 25.3103 27.0023C25.3634 26.9352 25.4835 26.9217 25.5366 26.8547C25.6433 26.721 25.8165 26.6405 25.9227 26.5064L26.0294 26.3727C26.8551 25.6095 27.7335 24.7788 28.7465 24.0552C32.3303 21.3345 36.0495 19.2677 39.9713 17.9078C52.5501 13.4915 66.5523 16.2131 77.5328 26.5793C92.8647 40.9509 91.4918 64.103 79.2527 79.4912C63.7866 102.431 37.2078 134.437 74.0084 163.107C80.6252 168.262 85.5338 172.512 106.376 178.536C92.745 181.047 80.1054 180.266 66.0366 176.672C56.0853 171.055 40.4397 159.029 35.1167 142.785C27.0716 118.153 49.2809 81.3294 60.0143 67.1472C74.7509 47.5196 50.9058 26.2719 33.3504 49.9928C24.174 62.3547 8.11981 97.3364 13.6989 123.284C16.961 137.999 21.3089 148.725 38.5484 163.458C35.3516 161.572 32.247 159.432 29.2356 157.038C-10.8193 119.727 -6.17228 62.0366 21.8237 31.1108Z" fill="white"/>
<path d="M158.176 148.889C157.059 150.294 155.874 151.646 154.69 152.998C154.637 153.065 154.517 153.078 154.463 153.145C154.357 153.279 154.184 153.36 154.077 153.494L153.971 153.627C153.145 154.391 152.267 155.221 151.254 155.945C147.67 158.666 143.951 160.732 140.029 162.092C127.45 166.509 113.448 163.787 102.467 153.421C87.1353 139.049 88.5082 115.897 100.747 100.509C116.213 77.5688 142.792 45.5634 105.992 16.893C99.3748 11.7378 94.4663 7.48757 73.6236 1.46433C87.255 -1.04685 99.8946 -0.2657 113.963 3.32777C123.915 8.94467 139.56 20.9714 144.883 37.215C152.928 61.8471 130.719 98.6706 119.986 112.853C105.249 132.48 129.094 153.728 146.65 130.007C155.826 117.645 171.88 82.6637 166.301 56.7158C163.039 42.0012 158.691 31.2755 141.452 16.5416C144.648 18.428 147.753 20.5677 150.764 22.9617C190.819 60.273 186.172 117.963 158.176 148.889Z" fill="white"/>
</g>
<defs>
<clipPath id="clip0_28_285">
<rect width="180" height="180" fill="white"/>
</clipPath>
</defs>
</svg>
