<svg width="100%" height="100%" viewBox="0 0 180 180" fill="none" xmlns="http://www.w3.org/2000/svg">
<path fill-rule="evenodd" clip-rule="evenodd" d="M167.833 78.75C168.209 82.322 168.398 85.9157 168.4 89.5125C168.355 109.908 162.128 129.676 150.748 145.552C139.367 161.429 123.514 172.463 105.806 176.834C88.0979 181.205 69.5943 178.65 53.3512 169.592C37.108 160.533 24.0969 145.514 16.4667 127.013L29.2 120C35.3816 135.293 46.0291 147.745 59.3727 155.287C72.7163 162.829 87.9523 165.007 102.548 161.458C117.144 157.909 130.221 148.848 139.606 135.78C148.99 122.712 154.117 106.425 154.133 89.625C154.133 88.8375 154.133 88.0875 154.133 87.3375L167.833 78.75ZM88.7333 2.81084e-05C104.652 -0.0141515 120.209 5.33675 133.398 15.3627C146.588 25.3887 156.806 39.6299 162.733 56.25L149.1 61.1625C143.279 45.4508 132.796 32.4957 119.437 24.5044C106.078 16.5131 90.6685 13.9802 75.8353 17.3371C61.0021 20.6941 47.6623 29.7332 38.0889 42.9144C28.5156 56.0956 23.3009 72.6034 23.3333 89.625C23.3333 90.1125 23.3333 90.6 23.3333 91.125L10 103.388C9.3694 98.8345 9.05734 94.2329 9.06667 89.625C9.06667 65.855 17.4601 43.0585 32.4005 26.2506C47.3409 9.44263 67.6044 2.81084e-05 88.7333 2.81084e-05Z" fill="white"/>
<path fill-rule="evenodd" clip-rule="evenodd" d="M0 125.438L77.9 53.775L74.6667 83.55L120.133 54.5625L117.833 82.875L177.467 61.5375L96.6 111.637L102.633 83.1375L55.9 113.925L59 92.0625L0 125.438Z" fill="white"/>
</svg>
