<svg width="100%" height="100%" viewBox="0 0 180 180" fill="none" xmlns="http://www.w3.org/2000/svg">
<g clip-path="url(#clip0_215_2)">
<path d="M88.3819 3.60001C79.8877 3.60001 71.4766 5.2731 63.629 8.52375C55.7814 11.7744 48.651 16.5389 42.6447 22.5453C36.6385 28.5517 31.8742 35.6823 28.6237 43.53C25.3733 51.3777 23.7004 59.7888 23.7007 68.283C23.7022 72.3695 24.0861 76.4468 24.8473 80.4618L33.2029 74.7387C47.8927 64.6641 71.7229 64.6641 86.4091 74.7387L95.1769 80.7435L99.9289 84.0096C113.17 93.0816 134.619 93.0816 147.848 84.0096L151.746 81.3402C153.672 71.9395 153.484 62.2282 151.194 52.9094C148.905 43.5906 144.572 34.8974 138.51 27.4592C132.447 20.021 124.806 14.024 116.141 9.90237C107.475 5.78069 98.0012 3.63749 88.4053 3.62791L88.3819 3.60001Z" fill="white"/>
<path d="M124.73 107.136C114.985 107.136 105.666 104.492 98.6499 99.6831L85.1409 90.4248C78.6735 85.9788 69.9885 83.5308 60.7086 83.5308C51.4287 83.5308 42.741 85.9608 36.2736 90.4248L27.5391 96.4053C27.1281 96.6907 26.6647 96.8921 26.1756 96.9977C25.6865 97.1033 25.1813 97.1111 24.6892 97.0207C24.197 96.9303 23.7276 96.7434 23.308 96.4709C22.8883 96.1983 22.5267 95.8455 22.244 95.4326C21.9613 95.0198 21.763 94.5551 21.6606 94.0653C21.5582 93.5755 21.5537 93.0702 21.6474 92.5787C21.741 92.0871 21.9309 91.619 22.2063 91.2011C22.4816 90.7833 22.8368 90.424 23.2515 90.144L31.9815 84.1635C39.7044 78.8652 49.8996 75.9528 60.705 75.9528C71.5104 75.9528 81.7038 78.8652 89.4267 84.1635L102.936 93.4218C109.495 97.4363 117.036 99.5607 124.727 99.5607C132.418 99.5607 139.959 97.4363 146.518 93.4218L151.648 89.9118C152.059 89.6214 152.523 89.4155 153.014 89.3063C153.505 89.197 154.013 89.1864 154.508 89.2752C155.003 89.364 155.476 89.5504 155.898 89.8235C156.32 90.0966 156.684 90.451 156.969 90.866C157.253 91.2811 157.451 91.7485 157.553 92.241C157.655 92.7336 157.658 93.2415 157.562 93.7352C157.466 94.2289 157.272 94.6985 156.993 95.1168C156.713 95.535 156.353 95.8934 155.934 96.1713L150.804 99.6813C143.756 104.506 134.476 107.136 124.73 107.136Z" fill="white"/>
<path d="M60.426 134.3V97.7535C60.3975 96.9847 60.43 96.2149 60.5232 95.4513C60.6368 94.4457 61.1169 93.5173 61.8718 92.8433C62.6268 92.1694 63.6036 91.7973 64.6155 91.7982C65.5961 91.8247 66.5324 92.2122 67.245 92.8863C67.9576 93.5604 68.3964 94.4737 68.4774 95.4513C68.6325 96.72 68.6771 97.9998 68.6106 99.2763V172.141C68.3919 174.841 66.6999 176.624 64.4211 176.575C62.1423 176.527 60.4971 174.676 60.4872 171.935V147.649L60.426 134.3Z" fill="white"/>
<path d="M52.7409 115.906V134.068C52.7409 137.175 51.0831 139.233 48.7341 139.159C46.3851 139.085 44.6049 136.992 44.5941 134.029V97.722C44.5941 94.5414 46.4463 92.3958 48.8574 92.5191C51.2685 92.6424 52.7076 94.5657 52.7193 97.7436C52.7526 103.799 52.7409 109.852 52.7409 115.906Z" fill="white"/>
<path d="M76.3363 115.882V103.117C76.3363 100.157 77.9068 98.2449 80.2459 98.2449C82.585 98.2449 84.3859 100.218 84.4129 103.006C84.5011 111.696 84.5011 120.381 84.4129 129.063C84.4129 132.022 82.6696 133.799 80.2729 133.777C77.8762 133.754 76.3408 131.935 76.3129 128.904V115.87L76.3363 115.882Z" fill="white"/>
<path d="M28.7569 118.537V105.769C28.7569 102.811 30.3283 100.898 32.6665 100.898C35.0047 100.898 36.8065 102.871 36.8344 105.659C36.9142 114.349 36.9142 123.034 36.8344 131.716C36.8344 134.675 35.0785 136.453 32.6944 136.429C30.3103 136.406 28.7605 134.587 28.7344 131.557V118.525L28.7569 118.537Z" fill="white"/>
<path d="M96.1659 107.672H96.1776C97.2407 107.672 98.26 108.095 99.0116 108.846C99.7631 109.598 100.185 110.618 100.185 111.681V118.624C100.185 119.686 99.7627 120.706 99.0112 121.457C98.2597 122.209 97.2404 122.631 96.1776 122.631H96.1659C95.1028 122.631 94.0833 122.209 93.3314 121.458C92.5795 120.706 92.1568 119.687 92.1564 118.624V111.681C92.1566 110.618 92.5791 109.598 93.331 108.846C94.0829 108.094 95.1026 107.672 96.1659 107.672Z" fill="white"/>
<path d="M112.051 113.751H112.063C113.126 113.751 114.145 114.174 114.897 114.926C115.648 115.678 116.07 116.697 116.07 117.76V156.701C116.07 157.227 115.967 157.748 115.765 158.234C115.564 158.72 115.269 159.162 114.896 159.534C114.524 159.906 114.082 160.202 113.596 160.403C113.11 160.604 112.589 160.708 112.063 160.708H112.051C111.525 160.708 111.004 160.604 110.517 160.403C110.031 160.202 109.589 159.906 109.217 159.534C108.845 159.162 108.55 158.72 108.349 158.234C108.148 157.748 108.044 157.227 108.044 156.701V117.76C108.044 116.698 108.466 115.678 109.217 114.926C109.969 114.174 110.988 113.751 112.051 113.751Z" fill="white"/>
<path d="M127.824 115.26H127.836C128.899 115.26 129.919 115.683 130.671 116.434C131.422 117.186 131.845 118.205 131.846 119.268V152.364C131.845 152.89 131.741 153.411 131.54 153.897C131.338 154.383 131.043 154.825 130.67 155.197C130.298 155.569 129.856 155.864 129.37 156.065C128.884 156.266 128.362 156.37 127.836 156.37H127.824C127.298 156.37 126.777 156.266 126.291 156.065C125.805 155.864 125.363 155.569 124.991 155.197C124.619 154.825 124.324 154.383 124.122 153.897C123.921 153.411 123.817 152.89 123.818 152.364V119.269C123.817 118.743 123.921 118.221 124.122 117.735C124.323 117.249 124.618 116.807 124.99 116.435C125.363 116.062 125.804 115.767 126.291 115.566C126.777 115.364 127.298 115.26 127.824 115.26Z" fill="white"/>
<path d="M143.818 111.485H143.83C144.893 111.485 145.912 111.907 146.664 112.659C147.415 113.41 147.838 114.43 147.838 115.493V129.767C147.837 130.83 147.415 131.849 146.664 132.601C145.912 133.353 144.893 133.775 143.83 133.775H143.818C143.292 133.775 142.771 133.671 142.285 133.47C141.799 133.269 141.357 132.973 140.985 132.601C140.613 132.229 140.318 131.787 140.116 131.301C139.915 130.815 139.811 130.294 139.812 129.767V115.493C139.811 114.967 139.915 114.446 140.116 113.96C140.317 113.473 140.612 113.031 140.984 112.659C141.357 112.287 141.798 111.991 142.285 111.79C142.771 111.589 143.292 111.485 143.818 111.485Z" fill="white"/>
</g>
<defs>
<clipPath id="clip0_215_2">
<rect width="180" height="180" fill="white"/>
</clipPath>
</defs>
</svg>
