<svg width="100%" height="100%" viewBox="0 0 180 180" fill="none" xmlns="http://www.w3.org/2000/svg">
<g clip-path="url(#clip0_504_24)">
<rect width="180" height="180" rx="20" fill="white"/>
<path class="inverted" d="M107.06 70.3345H72.9717C71.5236 70.3345 70.3494 71.5082 70.3494 72.9564V107.046C70.3494 108.494 71.5236 109.668 72.9717 109.668H107.06C108.509 109.668 109.683 108.494 109.683 107.046V72.9564C109.683 71.5082 108.509 70.3345 107.06 70.3345Z" fill="black"/>
<path class="inverted" d="M67.7111 31H33.6224C32.1743 31 31 32.1737 31 33.6224V67.7111C31 69.1593 32.1743 70.3335 33.6224 70.3335H67.7111C69.1598 70.3335 70.3335 69.1593 70.3335 67.7111V33.6224C70.3335 32.1737 69.1598 31 67.7111 31Z" fill="black"/>
<path class="inverted" d="M146.378 31H112.289C110.841 31 109.667 32.1737 109.667 33.6224V67.7111C109.667 69.1593 110.841 70.3335 112.289 70.3335H146.378C147.826 70.3335 149 69.1593 149 67.7111V33.6224C149 32.1737 147.826 31 146.378 31Z" fill="black"/>
<path class="inverted" d="M67.7111 109.666H33.6224C32.1743 109.666 31 110.84 31 112.288V146.377C31 147.825 32.1743 148.999 33.6224 148.999H67.7111C69.1598 148.999 70.3335 147.825 70.3335 146.377V112.288C70.3335 110.84 69.1598 109.666 67.7111 109.666Z" fill="black"/>
<path class="inverted" d="M146.378 109.666H112.289C110.841 109.666 109.667 110.84 109.667 112.288V146.377C109.667 147.825 110.841 148.999 112.289 148.999H146.378C147.826 148.999 149 147.825 149 146.377V112.288C149 110.84 147.826 109.666 146.378 109.666Z" fill="black"/>
</g>
<defs>
<clipPath id="clip0_504_24">
<rect width="180" height="180" fill="white"/>
</clipPath>
</defs>
</svg>
