<svg width="100%" height="100%" viewBox="0 0 180 180" fill="none" xmlns="http://www.w3.org/2000/svg">
<g clip-path="url(#clip0_24_237)">
<path d="M90 180C139.706 180 180 139.706 180 90C180 40.2944 139.706 0 90 0C40.2944 0 0 40.2944 0 90C0 139.706 40.2944 180 90 180Z" fill="white"/>
<path class="inverted" d="M63.7679 113.921C58.4089 113.921 54.0183 112.659 50.5958 110.138C47.2183 107.571 45.5295 103.923 45.5295 99.1947C45.5295 98.204 45.6422 96.9879 45.8672 95.5469C46.4529 92.3047 47.286 88.4092 48.3667 83.8609C51.4289 71.4769 59.3323 65.2849 72.0767 65.2849C75.5442 65.2849 78.6513 65.8703 81.3985 67.041C84.1456 68.1667 86.3071 69.8781 87.8832 72.1749C89.4593 74.4264 90.2477 77.1286 90.2477 80.2807C90.2477 81.2264 90.135 82.4198 89.9096 83.8609C89.2342 87.8688 88.4235 91.7643 87.4778 95.5469C85.9017 101.717 83.1772 106.332 79.3044 109.395C75.4315 112.412 70.2529 113.921 63.7679 113.921ZM64.7136 104.193C67.2357 104.193 69.3745 103.45 71.1309 101.964C72.9324 100.478 74.2158 98.204 74.9811 95.1419C76.0169 90.9086 76.8053 87.2157 77.3456 84.0636C77.5256 83.1179 77.6156 82.1498 77.6156 81.1587C77.6156 77.0609 75.4765 75.0118 71.1986 75.0118C68.6765 75.0118 66.515 75.7548 64.7136 77.2409C62.9575 78.7273 61.6964 81.0014 60.9311 84.0636C60.1203 87.0807 59.3096 90.7736 58.4993 95.1419C58.3189 96.0422 58.2289 96.9879 58.2289 97.9787C58.2289 102.122 60.3907 104.193 64.7136 104.193Z" fill="black"/>
<path class="inverted" d="M93.3492 113.245C92.8538 113.245 92.4708 113.088 92.2008 112.772C91.9754 112.412 91.9081 112.007 91.9981 111.556L101.32 67.649C101.41 67.1537 101.658 66.7483 102.063 66.433C102.468 66.118 102.896 65.9603 103.346 65.9603H121.315C126.313 65.9603 130.321 66.996 133.338 69.0674C136.401 71.1392 137.932 74.1337 137.932 78.0516C137.932 79.1773 137.797 80.3484 137.527 81.5641C136.401 86.7431 134.127 90.571 130.704 93.0478C127.327 95.5246 122.688 96.763 116.789 96.763H107.67L104.562 111.556C104.472 112.052 104.224 112.457 103.819 112.772C103.414 113.088 102.986 113.245 102.536 113.245H93.3492ZM117.262 87.4411C119.153 87.4411 120.797 86.9231 122.193 85.8874C123.634 84.8516 124.58 83.3656 125.03 81.4291C125.165 80.6634 125.233 79.988 125.233 79.4027C125.233 78.0966 124.85 77.1059 124.084 76.4305C123.318 75.7098 122.013 75.3498 120.166 75.3498H112.06L109.493 87.4411H117.262Z" fill="black"/>
</g>
<defs>
<clipPath id="clip0_24_237">
<rect width="180" height="180" fill="white"/>
</clipPath>
</defs>
</svg>
