<svg width="100%" height="100%" viewBox="0 0 180 180" fill="none" xmlns="http://www.w3.org/2000/svg">
<g clip-path="url(#clip0_21_170)">
<path d="M153.636 26.3639C136.621 9.34956 114.048 0 90.0001 0C40.3883 0 6.10352e-05 40.3883 6.10352e-05 90C6.10352e-05 139.612 40.3883 180 90.0001 180C114.048 180 136.621 170.65 153.636 153.636C170.65 136.621 180 114.048 180 90C180 65.9521 170.65 43.3787 153.636 26.3639ZM90.0001 175.367C42.9155 175.367 4.6327 137.085 4.6327 90C4.6327 42.9154 42.9155 4.63268 90.0001 4.63268C137.085 4.63268 175.367 42.9154 175.367 90C175.367 137.085 137.085 175.367 90.0001 175.367Z" fill="white"/>
<path d="M98.6848 80.7748C84.7446 74.4152 72.6999 68.9404 73.5842 55.6319C73.9633 50.4097 77.7115 47.2931 80.7861 45.6084C84.6185 43.5026 89.7566 42.4077 94.2207 42.7026C106.097 43.5026 115.447 48.5146 124.544 58.9168L128.039 55.8845C118.184 44.5976 107.529 38.9544 94.5156 38.0701C93.5048 37.9855 92.494 37.9855 91.441 38.0278C91.2307 38.0278 91.02 38.0278 90.8516 38.0278C82.3021 38.0278 72.9948 40.8075 65.8352 45.5242C57.4122 51.0836 52.6951 58.7062 52.569 67.003C52.2319 87.3023 69.0359 94.2093 83.8604 100.316C97.5056 105.96 109.34 110.803 109.087 124.153C108.961 133.166 96.579 138.009 87.8612 138.009C87.735 138.009 87.6508 138.009 87.5244 138.009V138.051H87.4824C74.595 137.883 63.1397 132.492 53.411 122.047L50 125.206C60.4864 136.493 73.4158 142.557 87.4402 142.726C87.6508 142.726 87.8612 142.726 88.0718 142.726C97.1265 142.726 106.897 140.325 114.394 136.198C123.575 131.186 128.923 123.9 129.471 115.73C130.861 95.4308 113.762 87.6395 98.6848 80.7748ZM124.838 115.351C124.291 123.732 117.637 129.08 112.162 132.071C111.656 132.366 111.151 132.618 110.646 132.871C112.541 130.428 113.678 127.522 113.762 124.195C114.015 107.686 99.6114 101.748 85.6712 96.0202C70.931 89.9556 56.9908 84.1858 57.2438 67.0449C57.328 60.3486 61.3288 54.0737 68.4462 49.3566C69.4992 48.6407 70.6361 48.009 71.8153 47.3773C70.1728 49.7357 69.2043 52.3889 69.0359 55.2528C67.8987 71.762 82.597 78.4583 96.8316 84.9017C111.825 91.8087 126.018 98.2943 124.838 115.351Z" fill="white"/>
</g>
<defs>
<clipPath id="clip0_21_170">
<rect width="180" height="180" fill="white"/>
</clipPath>
</defs>
</svg>
