<svg width="180" height="26" viewBox="0 0 180 26" fill="none" xmlns="http://www.w3.org/2000/svg">
  <g clip-path="url(#clip0_1477_2)">
    <path
      d="M35.1327 19.0914C33.4727 17.49 32.6641 15.4556 32.6641 13.0318C32.6641 10.6513 33.4727 8.61709 35.1327 7.01563C36.7927 5.41419 38.8782 4.59183 41.3043 4.59183C43.5176 4.59183 45.4329 5.28435 47.0077 6.62609C48.6251 7.96784 49.5615 9.69909 49.902 11.7334H46.9226C46.6247 10.4349 45.9862 9.35284 44.9647 8.53054C43.9432 7.70815 42.7089 7.31861 41.3043 7.31861C39.6869 7.31861 38.3249 7.88128 37.2182 8.96334C36.1116 10.0454 35.5583 11.4304 35.5583 13.0318C35.5583 14.6333 36.1116 16.0183 37.2182 17.1004C38.3249 18.1824 39.6869 18.7451 41.3043 18.7451C42.7089 18.7451 43.9006 18.3123 44.9647 17.49C45.9862 16.6676 46.6672 15.6288 46.9226 14.3303H49.902C49.6041 16.4079 48.6251 18.0959 47.0077 19.4377C45.3903 20.7794 43.5176 21.4719 41.3043 21.4719C38.8782 21.5151 36.7927 20.7361 35.1327 19.0914Z"
      fill="white"
    />
    <path d="M52.541 21.2554V4.89481H55.3927V21.2554H52.541Z" fill="white" />
    <path
      d="M69.5662 4.89481V7.53502H65.0971V21.2554H62.2879V7.53502H57.8188V4.89481H69.5662Z"
      fill="white"
    />
    <path
      d="M81.6541 21.2554L80.3346 17.7929H72.8436L71.4816 21.2554H68.417L74.9291 4.89481H78.2916L84.8041 21.2554H81.6541ZM73.8225 15.1527H79.3131L76.5466 7.96784L73.8225 15.1527Z"
      fill="white"
    />
    <path
      d="M93.359 4.89481C95.785 4.89481 97.7433 5.67388 99.3601 7.23204C100.978 8.79019 101.743 10.7379 101.743 13.0752C101.743 15.4123 100.935 17.36 99.3601 18.9182C97.7433 20.4764 95.7424 21.2554 93.359 21.2554H86.9746V4.89481H93.359ZM93.3164 18.572C94.8914 18.572 96.2109 18.0526 97.2748 16.9705C98.3387 15.9318 98.8498 14.59 98.8498 13.0318C98.8498 11.4737 98.3387 10.1319 97.2748 9.09314C96.2109 8.05444 94.8914 7.53502 93.3164 7.53502H89.7839V18.572H93.3164Z"
      fill="white"
    />
    <path
      d="M107.319 18.572H113.916V21.2122H104.467V4.89481H113.789V7.53502H107.319V11.6901H112.98V14.3303H107.319V18.572Z"
      fill="white"
    />
    <path
      d="M119.493 18.572H125.366V21.2122H116.684V4.89481H119.535V18.572H119.493Z"
      fill="white"
    />
    <path
      d="M129.197 21.4286C128.644 21.4286 128.175 21.2555 127.835 20.9092C127.495 20.563 127.282 20.1302 127.282 19.5675C127.282 19.0481 127.452 18.572 127.835 18.2257C128.218 17.8795 128.644 17.6631 129.197 17.6631C129.75 17.6631 130.218 17.8362 130.559 18.2257C130.942 18.572 131.112 19.0481 131.112 19.5675C131.112 20.1302 130.942 20.563 130.559 20.9092C130.218 21.2555 129.75 21.4286 129.197 21.4286Z"
      fill="white"
    />
    <path
      d="M140.987 21.5151C138.518 21.5151 136.433 20.6928 134.773 19.0914C133.113 17.49 132.304 15.4556 132.304 13.0318C132.304 10.6513 133.113 8.61709 134.773 7.01563C136.433 5.41419 138.518 4.59183 140.987 4.59183C143.455 4.59183 145.541 5.41419 147.158 7.01563C148.818 8.61709 149.627 10.6513 149.627 13.0318C149.627 15.4556 148.818 17.4466 147.158 19.0914C145.541 20.7361 143.455 21.5151 140.987 21.5151ZM145.116 17.1437C146.222 16.0616 146.776 14.6766 146.776 13.0751C146.776 11.4737 146.222 10.0887 145.116 9.00658C144.009 7.92456 142.647 7.36189 140.987 7.36189C139.369 7.36189 138.007 7.92456 136.901 9.00658C135.794 10.0887 135.241 11.4737 135.241 13.0751C135.241 14.6766 135.794 16.0616 136.901 17.1437C138.007 18.2257 139.369 18.7884 140.987 18.7884C142.647 18.7884 144.009 18.2257 145.116 17.1437Z"
      fill="white"
    />
    <path
      d="M163.546 4.89481H166.397V21.2554H163.503L155.245 9.69911V21.2554H152.394V4.89481H155.288L163.546 16.4511V4.89481Z"
      fill="white"
    />
    <path
      d="M172.824 18.572H179.421V21.2122H169.972V4.89481H179.251V7.53502H172.781V11.6901H178.442V14.3303H172.781V18.572H172.824Z"
      fill="white"
    />
    <path
      d="M12.9762 1.39567C17.8838 1.39567 22.0428 4.60996 23.5817 9.05079C23.7481 9.60059 24.2056 10.0235 24.7878 10.0235C25.3701 10.0235 25.9524 9.76974 25.9524 9.05079V1.73402C25.9524 0.761278 25.1622 0 24.2471 0H1.7052C0.790216 0 0 0.803571 0 1.73402V23.938C0 24.9107 0.790216 25.672 1.7052 25.672H24.2056C25.1622 25.672 25.9108 24.8684 25.9108 23.938V16.6212C25.9108 15.9445 25.4533 15.437 24.7878 15.437C24.1224 15.437 23.7065 15.9445 23.4985 16.6212C22.0428 21.1044 17.8838 24.3186 12.9762 24.3186C6.73763 24.3186 1.7052 19.2011 1.7052 12.8571C1.7052 6.51316 6.73763 1.39567 12.9762 1.39567Z"
      fill="white"
    />
  </g>
  <defs>
    <clipPath id="clip0_1477_2">
      <rect width="180" height="25.7143" fill="white" />
    </clipPath>
  </defs>
</svg>
