<svg
  width="100%"
  height="100%"
  viewBox="0 0 180 180"
  fill="none"
  xmlns="http://www.w3.org/2000/svg"
>
  <path
    d="M35.1327 96.0914C33.4727 94.49 32.6641 92.4556 32.6641 90.0318C32.6641 87.6513 33.4727 85.6171 35.1327 84.0156C36.7927 82.4142 38.8782 81.5918 41.3043 81.5918C43.5176 81.5918 45.4329 82.2843 47.0077 83.6261C48.6251 84.9678 49.5615 86.6991 49.902 88.7334H46.9226C46.6247 87.4349 45.9862 86.3528 44.9647 85.5305C43.9432 84.7081 42.7089 84.3186 41.3043 84.3186C39.6869 84.3186 38.3249 84.8813 37.2182 85.9633C36.1116 87.0454 35.5583 88.4304 35.5583 90.0318C35.5583 91.6333 36.1116 93.0183 37.2182 94.1004C38.3249 95.1824 39.6869 95.7451 41.3043 95.7451C42.7089 95.7451 43.9006 95.3123 44.9647 94.49C45.9862 93.6676 46.6672 92.6288 46.9226 91.3303H49.902C49.6041 93.4079 48.6251 95.0959 47.0077 96.4377C45.3903 97.7794 43.5176 98.4719 41.3043 98.4719C38.8782 98.5151 36.7927 97.7361 35.1327 96.0914Z"
    fill="white"
    class="inverted"
  />
  <path d="M52.541 98.2554V81.8948H55.3927V98.2554H52.541Z" fill="white" class="inverted" />
  <path
    d="M69.5662 81.8948V84.535H65.0971V98.2554H62.2879V84.535H57.8188V81.8948H69.5662Z"
    fill="white"
    class="inverted"
  />
  <path
    d="M81.6541 98.2554L80.3346 94.7929H72.8436L71.4816 98.2554H68.417L74.9291 81.8948H78.2916L84.8041 98.2554H81.6541ZM73.8225 92.1527H79.3131L76.5466 84.9678L73.8225 92.1527Z"
    fill="white"
    class="inverted"
  />
  <path
    d="M93.359 81.8948C95.785 81.8948 97.7433 82.6739 99.3601 84.232C100.978 85.7902 101.743 87.7379 101.743 90.0752C101.743 92.4123 100.935 94.36 99.3601 95.9182C97.7433 97.4764 95.7424 98.2554 93.359 98.2554H86.9746V81.8948H93.359ZM93.3164 95.572C94.8914 95.572 96.2109 95.0526 97.2748 93.9705C98.3387 92.9318 98.8498 91.59 98.8498 90.0318C98.8498 88.4737 98.3387 87.1319 97.2748 86.0931C96.2109 85.0544 94.8914 84.535 93.3164 84.535H89.7839V95.572H93.3164Z"
    fill="white"
    class="inverted"
  />
  <path
    d="M107.319 95.572H113.916V98.2122H104.467V81.8948H113.789V84.535H107.319V88.6901H112.98V91.3303H107.319V95.572Z"
    fill="white"
    class="inverted"
  />
  <path
    d="M119.493 95.572H125.366V98.2122H116.684V81.8948H119.535V95.572H119.493Z"
    fill="white"
    class="inverted"
  />
  <path
    d="M129.197 98.4286C128.644 98.4286 128.175 98.2555 127.835 97.9092C127.495 97.563 127.282 97.1302 127.282 96.5675C127.282 96.0481 127.452 95.572 127.835 95.2257C128.218 94.8795 128.644 94.6631 129.197 94.6631C129.75 94.6631 130.218 94.8362 130.559 95.2257C130.942 95.572 131.112 96.0481 131.112 96.5675C131.112 97.1302 130.942 97.563 130.559 97.9092C130.218 98.2555 129.75 98.4286 129.197 98.4286Z"
    fill="white"
    class="inverted"
  />
  <path
    d="M140.987 98.5151C138.518 98.5151 136.433 97.6928 134.773 96.0914C133.113 94.49 132.304 92.4556 132.304 90.0318C132.304 87.6513 133.113 85.6171 134.773 84.0156C136.433 82.4142 138.518 81.5918 140.987 81.5918C143.455 81.5918 145.541 82.4142 147.158 84.0156C148.818 85.6171 149.627 87.6513 149.627 90.0318C149.627 92.4556 148.818 94.4466 147.158 96.0914C145.541 97.7361 143.455 98.5151 140.987 98.5151ZM145.116 94.1437C146.222 93.0616 146.776 91.6766 146.776 90.0751C146.776 88.4737 146.222 87.0887 145.116 86.0066C144.009 84.9246 142.647 84.3619 140.987 84.3619C139.369 84.3619 138.007 84.9246 136.901 86.0066C135.794 87.0887 135.241 88.4737 135.241 90.0751C135.241 91.6766 135.794 93.0616 136.901 94.1437C138.007 95.2257 139.369 95.7884 140.987 95.7884C142.647 95.7884 144.009 95.2257 145.116 94.1437Z"
    fill="white"
    class="inverted"
  />
  <path
    d="M163.546 81.8948H166.397V98.2554H163.503L155.245 86.6991V98.2554H152.394V81.8948H155.288L163.546 93.4511V81.8948Z"
    fill="white"
    class="inverted"
  />
  <path
    d="M172.824 95.572H179.421V98.2122H169.972V81.8948H179.251V84.535H172.781V88.6901H178.442V91.3303H172.781V95.572H172.824Z"
    fill="white"
    class="inverted"
  />
  <path
    d="M12.9762 78.3957C17.8838 78.3957 22.0428 81.61 23.5817 86.0508C23.7481 86.6006 24.2056 87.0235 24.7878 87.0235C25.3701 87.0235 25.9524 86.7697 25.9524 86.0508V78.734C25.9524 77.7613 25.1622 77 24.2471 77H1.7052C0.790216 77 0 77.8036 0 78.734V100.938C0 101.911 0.790216 102.672 1.7052 102.672H24.2056C25.1622 102.672 25.9108 101.868 25.9108 100.938V93.6212C25.9108 92.9445 25.4533 92.437 24.7878 92.437C24.1224 92.437 23.7065 92.9445 23.4985 93.6212C22.0428 98.1044 17.8838 101.319 12.9762 101.319C6.73763 101.319 1.7052 96.2011 1.7052 89.8571C1.7052 83.5132 6.73763 78.3957 12.9762 78.3957Z"
    fill="white"
    class="inverted"
  />
</svg>
