<svg width="100%" height="100%" viewBox="0 0 180 180" fill="none" xmlns="http://www.w3.org/2000/svg">
<g clip-path="url(#clip0_762_219)">
<path class="inverted" d="M6.37115 71.8318V81.2979H22.2652V87.1249H6.37115V101.322H0V66H24.1862V71.8269H6.37115V71.8318Z" fill="white" stroke="white" stroke-width="0.25" stroke-miterlimit="10"/>
<path class="inverted" d="M28.8779 101.322V75.4177H35.1477V101.322H28.8779Z" fill="white" stroke="white" stroke-width="0.25" stroke-miterlimit="10"/>
<path class="inverted" d="M64.5083 104.761C64.5083 106.457 64.132 107.865 63.3742 108.995C62.6164 110.125 61.6462 111.012 60.4637 111.66C59.2811 112.308 57.9442 112.766 56.4673 113.029C54.9854 113.297 53.5375 113.429 52.1233 113.429C50.545 113.429 48.9715 113.312 47.4125 113.078C45.8487 112.844 44.3958 112.25 43.0444 111.285C42.0598 110.588 41.2924 109.775 40.7517 108.844C40.2113 107.914 39.936 106.837 39.936 105.604C39.936 104.474 40.2016 103.436 40.7277 102.491C41.2538 101.546 42.0115 100.825 42.9961 100.323C42.1757 99.8603 41.5385 99.2171 41.0945 98.4035C40.6504 97.5899 40.4284 96.752 40.4284 95.8847C40.4284 93.6583 41.4468 91.919 43.4885 90.6523C42.6968 89.8533 42.0742 88.9276 41.6157 87.8606C41.1523 86.7985 40.9255 85.6049 40.9255 84.2749C40.9255 82.7451 41.2055 81.3857 41.7654 80.1873C42.3252 78.9887 43.083 77.9949 44.0388 77.1959C44.9944 76.3968 46.1045 75.7928 47.369 75.3786C48.6337 74.9645 49.9899 74.755 51.4379 74.755C52.4901 74.755 53.5134 74.8964 54.498 75.1789C55.4826 75.4615 56.4045 75.8513 57.2637 76.3481C57.8235 75.2178 58.562 74.3994 59.4839 73.883C60.4058 73.3665 61.4098 73.1132 62.4957 73.1132C62.6937 73.1132 62.9735 73.1132 63.3356 73.1132C63.6975 73.1132 63.9775 73.1472 64.1753 73.2106V78.0436L63.6831 77.9949C62.9591 77.9949 62.3075 78.1118 61.7331 78.3456C61.1588 78.5795 60.7677 79.0131 60.5748 79.6416C61.4628 81.1031 61.9069 82.6622 61.9069 84.3236C61.9069 85.8193 61.6173 87.1492 61.0429 88.3089C60.4686 89.4731 59.7011 90.4525 58.7503 91.2466C57.7945 92.0456 56.6844 92.6595 55.4199 93.0883C54.1504 93.5218 52.828 93.7361 51.4476 93.7361C49.9996 93.7361 48.6192 93.5024 47.3014 93.0394C47.0071 93.2051 46.7174 93.4488 46.4376 93.7606C46.1576 94.0772 46.0176 94.4524 46.0176 94.8811C46.0176 95.6461 46.3218 96.1527 46.9298 96.4011C47.538 96.6497 48.1703 96.7763 48.8316 96.7763H53.0742C53.6968 96.7763 54.3725 96.786 55.0965 96.8007C55.8205 96.8201 56.5542 96.8835 57.2926 97.0004C58.0311 97.1174 58.755 97.2927 59.4645 97.5217C60.1741 97.7556 60.8209 98.0868 61.4145 98.5156C62.5343 99.2805 63.3307 100.196 63.8085 101.254C64.2719 102.335 64.5083 103.5 64.5083 104.761ZM58.6875 104.912C58.6875 104.113 58.4751 103.5 58.0455 103.071C57.616 102.637 57.0996 102.325 56.4914 102.126C55.8833 101.926 55.222 101.809 54.5173 101.78C53.8078 101.746 53.1611 101.731 52.5673 101.731H47.7311C47.0699 101.931 46.5196 102.306 46.0755 102.852C45.6316 103.402 45.4095 104.089 45.4095 104.917C45.4095 105.746 45.6316 106.394 46.0755 106.861C46.5196 107.324 47.0699 107.685 47.7311 107.933C48.3875 108.182 49.097 108.338 49.8548 108.406C50.6125 108.474 51.2883 108.503 51.8771 108.503C52.4997 108.503 53.2092 108.479 54.0009 108.43C54.7924 108.381 55.5308 108.24 56.221 108.006C56.9114 107.772 57.4954 107.417 57.9732 106.934C58.4463 106.447 58.6875 105.775 58.6875 104.912ZM55.9702 84.2845C55.9702 82.8912 55.5647 81.7366 54.7586 80.8206C53.9526 79.9047 52.8425 79.4515 51.4282 79.4515C50.0141 79.4515 48.9039 79.9096 48.0978 80.8206C47.2918 81.7317 46.8865 82.8863 46.8865 84.2845C46.8865 85.6779 47.287 86.8278 48.0978 87.7242C48.9039 88.6206 50.0141 89.0688 51.4282 89.0688C52.8425 89.0688 53.9526 88.6206 54.7586 87.7242C55.5695 86.8278 55.9702 85.6828 55.9702 84.2845Z" fill="white" stroke="white" stroke-width="0.25" stroke-miterlimit="10"/>
<path class="inverted" d="M98.3662 101.322V85.2298C98.3662 83.6365 98.0959 82.3991 97.5505 81.5172C97.0099 80.6403 95.9624 80.1969 94.4179 80.1969C93.5299 80.1969 92.7721 80.4064 92.1495 80.8205C91.5269 81.2347 91.0055 81.7852 90.5953 82.4625C90.1851 83.1445 89.8809 83.8997 89.6831 84.7279C89.4852 85.561 89.3887 86.3697 89.3887 87.1687V101.317H83.2685V85.2298C83.2685 83.6365 82.9982 82.3991 82.4528 81.5172C81.9122 80.6403 80.8648 80.1969 79.3202 80.1969C78.4322 80.1969 77.6744 80.4064 77.0518 80.8205C76.4292 81.2347 75.8982 81.7852 75.4734 82.4625C75.0439 83.1445 74.7349 83.8997 74.5371 84.7279C74.3393 85.561 74.2427 86.3697 74.2427 87.1687V101.317H68.1226V75.4175H73.2532L73.7455 78.8571C74.4695 77.6635 75.4397 76.6842 76.656 75.9194C77.8723 75.1544 79.3395 74.7744 81.0482 74.7744C82.8581 74.7744 84.3737 75.1497 85.5901 75.895C86.8064 76.6404 87.7476 77.6831 88.4039 79.0082C89.1617 77.6489 90.2044 76.6014 91.5365 75.8707C92.8686 75.1399 94.4083 74.7744 96.1508 74.7744C98.9163 74.7744 100.997 75.6125 102.396 77.2933C103.796 78.9742 104.496 81.1518 104.496 83.846V101.331H98.3662V101.322Z" fill="white" stroke="white" stroke-width="0.25" stroke-miterlimit="10"/>
<path class="inverted" d="M132.52 88.5719C132.486 88.8057 132.472 89.02 132.472 89.2198V90.3159H115.299C115.299 91.3148 115.453 92.2599 115.767 93.1563C116.081 94.0528 116.554 94.7982 117.171 95.3975C117.635 95.8311 118.17 96.2012 118.779 96.518C119.387 96.8347 120.116 96.9906 120.975 96.9906C121.863 96.9906 122.597 96.8979 123.171 96.7177C123.745 96.5374 124.267 96.211 124.725 95.7482C125.314 95.1489 125.729 94.4181 125.961 93.5559H131.883C131.815 94.3207 131.559 95.1587 131.116 96.0746C130.671 96.9906 130.203 97.7409 129.711 98.3401C128.625 99.6361 127.327 100.567 125.811 101.132C124.296 101.697 122.717 101.979 121.076 101.979C119.295 101.979 117.76 101.687 116.462 101.107C115.159 100.528 114 99.753 112.982 98.7932C111.698 97.5314 110.718 96.021 110.042 94.2623C109.367 92.5036 109.029 90.5596 109.029 88.4354C109.029 86.3453 109.333 84.4063 109.941 82.6328C110.549 80.8546 111.481 79.3394 112.726 78.0727C113.682 77.0788 114.84 76.2798 116.206 75.6807C117.572 75.0814 119.141 74.7841 120.922 74.7841C122.833 74.7841 124.604 75.1739 126.255 75.9534C127.896 76.733 129.248 77.9363 130.305 79.5635C131.255 80.991 131.864 82.4478 132.129 83.924C132.385 85.3904 132.52 86.9446 132.52 88.5719ZM126.352 85.7802C126.313 83.8899 125.787 82.3746 124.768 81.2492C124.344 80.7864 123.808 80.421 123.166 80.153C122.524 79.89 121.762 79.7536 120.869 79.7536C119.918 79.7536 119.078 79.9387 118.349 80.3041C117.63 80.6694 117.031 81.1518 116.573 81.7511C116.109 82.3162 115.781 82.9155 115.583 83.5439C115.39 84.1724 115.27 84.9227 115.241 85.7851H126.352V85.7802Z" fill="white" stroke="white" stroke-width="0.25" stroke-miterlimit="10"/>
<path class="inverted" d="M153.004 101.322V85.4295C153.004 83.9045 152.704 82.7061 152.117 81.8437C151.523 80.9813 150.408 80.5478 148.762 80.5478C147.676 80.5478 146.768 80.8547 146.045 81.4685C145.32 82.0825 144.746 82.8717 144.317 83.8364C143.887 84.8011 143.641 85.9215 143.578 87.198C143.51 88.4793 143.477 89.6632 143.477 90.7594V101.322H137.308V75.4177H142.491L142.936 78.755C143.694 77.3956 144.771 76.3871 146.17 75.7391C147.569 75.0911 149.009 74.7648 150.485 74.7648C151.87 74.7648 153.096 74.9986 154.163 75.4615C155.229 75.9292 156.137 76.5674 156.88 77.3811C157.618 78.1946 158.189 79.1738 158.583 80.3188C158.98 81.4638 159.177 82.7012 159.177 84.0312V101.317H153.004V101.322Z" fill="white" stroke="white" stroke-width="0.25" stroke-miterlimit="10"/>
<path class="inverted" d="M180 100.976C178.223 101.439 176.461 101.673 174.719 101.673C172.118 101.673 170.177 100.966 168.893 99.5533C167.609 98.1405 166.968 96.1916 166.968 93.7021V80.5478H162.276V75.4176H166.968V68.8405L173.137 67.296V75.4176H179.603V80.5478H173.137V93.1516C173.137 94.1503 173.363 94.8713 173.827 95.3196C174.289 95.7678 175.014 95.9919 175.998 95.9919C176.654 95.9919 177.272 95.9773 177.847 95.9432C178.42 95.909 179.135 95.8458 179.994 95.7435V100.976H180Z" fill="white" stroke="white" stroke-width="0.25" stroke-miterlimit="10"/>
<path class="inverted" fill-rule="evenodd" clip-rule="evenodd" d="M35.6594 69.6736C35.6594 67.7346 34.1054 66.0294 32.0009 66.0294C29.8531 66.0294 28.3423 67.7346 28.3423 69.6736C28.3423 71.7052 29.8531 73.2253 32.0009 73.2253C34.1054 73.2253 35.6594 71.7052 35.6594 69.6736Z" fill="white"/>
</g>
<defs>
<clipPath id="clip0_762_219">
<rect width="180" height="180" fill="white"/>
</clipPath>
</defs>
</svg>
