<svg width="100%" height="100%" viewBox="0 0 180 180" fill="none" xmlns="http://www.w3.org/2000/svg">
<path class="inverted" d="M94.0362 77.7546H85.9037L84.3573 82.3974H79.4253L87.8053 59.8655H92.1035L100.53 82.3974H95.5978L94.0362 77.7546ZM87.1558 73.9944H92.7838L89.9545 65.5604L87.1558 73.9944ZM107.41 61.5369V65.6532H110.27V68.9339H107.41V77.2905C107.41 77.9096 107.529 78.3531 107.766 78.6213C108.003 78.8895 108.456 79.0236 109.126 79.0236C109.621 79.0236 110.059 78.9876 110.44 78.9155V82.3046C109.564 82.5728 108.662 82.707 107.735 82.707C104.601 82.707 103.004 81.1233 102.942 77.956V68.9339H100.499V65.6532H102.942V61.5369H107.41ZM111.6 73.8706C111.6 72.2096 111.92 70.7289 112.559 69.4292C113.198 68.1293 114.115 67.1233 115.311 66.4116C116.517 65.6996 117.913 65.3436 119.501 65.3436C121.758 65.3436 123.598 66.0348 125.021 67.4174C126.453 68.7997 127.252 70.6774 127.417 73.0503L127.448 74.1954C127.448 76.7643 126.731 78.8276 125.299 80.3854C123.866 81.9331 121.944 82.707 119.532 82.707C117.12 82.707 115.192 81.9331 113.749 80.3854C112.316 78.838 111.6 76.7334 111.6 74.0717V73.8706ZM116.068 74.1954C116.068 75.7844 116.367 77.0017 116.965 77.8477C117.563 78.6835 118.418 79.1012 119.532 79.1012C120.614 79.1012 121.459 78.6884 122.067 77.8632C122.676 77.0275 122.98 75.6967 122.98 73.8706C122.98 72.3127 122.676 71.1057 122.067 70.2493C121.459 69.393 120.604 68.9648 119.501 68.9648C118.408 68.9648 117.563 69.393 116.965 70.2493C116.367 71.0953 116.068 72.4107 116.068 74.1954ZM134.39 65.6532L134.529 67.5257C135.714 66.0711 137.317 65.3436 139.337 65.3436C141.492 65.3436 142.971 66.1948 143.775 67.8971C144.95 66.1948 146.625 65.3436 148.8 65.3436C150.614 65.3436 151.964 65.8751 152.851 66.9377C153.737 67.9899 154.18 69.5788 154.18 71.7041V82.3974H149.697V71.7196C149.697 70.7702 149.511 70.0791 149.14 69.6458C148.769 69.202 148.114 68.9804 147.176 68.9804C145.836 68.9804 144.909 69.6199 144.393 70.8993L144.409 82.3974H139.94V71.7349C139.94 70.7653 139.75 70.0637 139.368 69.6303C138.987 69.1971 138.338 68.9804 137.42 68.9804C136.153 68.9804 135.235 69.5066 134.668 70.5589V82.3974H130.2V65.6532H134.39ZM162.344 82.3974H157.86V65.6532H162.344V82.3974ZM157.598 61.3201C157.598 60.6495 157.818 60.0976 158.262 59.6643C158.715 59.231 159.329 59.0144 160.102 59.0144C160.864 59.0144 161.472 59.231 161.925 59.6643C162.38 60.0976 162.607 60.6495 162.607 61.3201C162.607 62.0012 162.374 62.5582 161.911 62.9915C161.457 63.4248 160.855 63.6413 160.102 63.6413C159.35 63.6413 158.741 63.4248 158.277 62.9915C157.824 62.5582 157.598 62.0012 157.598 61.3201ZM172.997 79.1012C173.821 79.1012 174.491 78.874 175.007 78.4203C175.522 77.9664 175.79 77.3626 175.81 76.6097H180C179.991 77.7445 179.68 78.7864 179.072 79.7356C178.465 80.6745 177.629 81.4069 176.568 81.9331C175.517 82.4488 174.352 82.707 173.073 82.707C170.682 82.707 168.797 81.9485 167.416 80.4321C166.034 78.9051 165.344 76.8006 165.344 74.1181V73.8242C165.344 71.2449 166.028 69.1867 167.4 67.6494C168.77 66.1124 170.652 65.3436 173.044 65.3436C175.135 65.3436 176.81 65.942 178.068 67.1387C179.336 68.3253 179.98 69.909 180 71.8896H175.81C175.79 71.023 175.522 70.3215 175.007 69.785C174.491 69.2383 173.81 68.9648 172.966 68.9648C171.925 68.9648 171.137 69.3467 170.6 70.1101C170.074 70.863 169.811 72.0911 169.811 73.793V74.2576C169.811 75.9803 170.074 77.2185 170.6 77.9715C171.126 78.7244 171.925 79.1012 172.997 79.1012ZM105.214 112.915L108.245 96.8831H112.868L107.874 119.415H103.205L99.5403 104.342L95.8759 119.415H91.2069L86.2126 96.8831H90.8357L93.8816 112.884L97.5921 96.8831H101.519L105.214 112.915ZM124.263 119.415C124.057 119.013 123.907 118.512 123.815 117.914C122.732 119.121 121.325 119.725 119.593 119.725C117.955 119.725 116.594 119.25 115.512 118.301C114.44 117.352 113.904 116.155 113.904 114.71C113.904 112.936 114.558 111.574 115.867 110.625C117.187 109.676 119.088 109.196 121.573 109.186H123.629V108.226C123.629 107.453 123.428 106.833 123.026 106.369C122.634 105.905 122.011 105.673 121.155 105.673C120.403 105.673 119.81 105.854 119.377 106.215C118.954 106.576 118.743 107.071 118.743 107.7H114.275C114.275 106.731 114.574 105.833 115.172 105.008C115.769 104.182 116.615 103.537 117.707 103.073C118.8 102.599 120.026 102.361 121.387 102.361C123.448 102.361 125.082 102.882 126.288 103.924C127.505 104.956 128.113 106.411 128.113 108.288V115.546C128.123 117.135 128.345 118.337 128.777 119.152V119.415H124.263ZM120.568 116.304C121.227 116.304 121.835 116.16 122.392 115.871C122.949 115.572 123.361 115.175 123.629 114.68V111.801H121.959C119.722 111.801 118.532 112.575 118.387 114.122L118.372 114.386C118.372 114.943 118.568 115.402 118.96 115.763C119.351 116.124 119.887 116.304 120.568 116.304ZM136.261 119.415H131.777V95.6451H136.261V119.415ZM144.671 119.415H140.188V95.6451H144.671V119.415ZM156.066 119.725C153.613 119.725 151.614 118.971 150.068 117.465C148.532 115.959 147.764 113.952 147.764 111.445V111.012C147.764 109.33 148.089 107.829 148.738 106.509C149.387 105.178 150.305 104.156 151.49 103.445C152.686 102.722 154.046 102.361 155.571 102.361C157.86 102.361 159.658 103.084 160.968 104.528C162.287 105.972 162.946 108.02 162.946 110.671V112.497H152.294C152.438 113.591 152.871 114.468 153.593 115.128C154.324 115.789 155.247 116.119 156.361 116.119C158.082 116.119 159.427 115.495 160.395 114.246L162.591 116.707C161.921 117.656 161.015 118.399 159.869 118.935C158.726 119.461 157.458 119.725 156.066 119.725ZM155.556 105.982C154.67 105.982 153.948 106.281 153.392 106.88C152.845 107.479 152.495 108.335 152.341 109.449H158.555V109.093C158.535 108.102 158.266 107.339 157.751 106.803C157.236 106.256 156.505 105.982 155.556 105.982ZM170.848 98.5544V102.671H173.708V105.951H170.848V114.308C170.848 114.927 170.966 115.371 171.203 115.639C171.441 115.907 171.894 116.041 172.564 116.041C173.059 116.041 173.497 116.005 173.879 115.933V119.322C173.002 119.59 172.1 119.725 171.172 119.725C168.039 119.725 166.441 118.141 166.379 114.974V105.951H163.937V102.671H166.379V98.5544H170.848Z" fill="#F5F9FB"/>
<path fill-rule="evenodd" clip-rule="evenodd" d="M0 126.986L22.5505 65.3837C25.4119 58.1916 30.7468 54.1203 37.8386 54.0026V54L37.9972 54.0007L38.1561 54V54.0026C45.2478 54.1203 50.5827 58.1916 53.4443 65.3837L75.9946 126.986L62.0307 122.144L42.7669 69.5204C41.5946 66.6101 40.2405 65.5622 37.9972 65.516C35.7538 65.5622 34.4001 66.6101 33.2277 69.5204L13.9641 122.144L0 126.986ZM47.8094 103.529C47.8094 108.91 43.4759 113.272 38.1297 113.272C32.7839 113.272 28.4502 108.91 28.4502 103.529C28.4502 98.148 32.7839 93.7861 38.1297 93.7861C43.4759 93.7861 47.8094 98.148 47.8094 103.529Z" fill="#3692FE"/>
</svg>
