<svg width="100%" height="100%" viewBox="0 0 180 180" fill="none" xmlns="http://www.w3.org/2000/svg">
<g clip-path="url(#clip0_762_197)">
<path class="inverted" fill-rule="evenodd" clip-rule="evenodd" d="M44.4462 70C38.5544 70 33.2343 72.6085 29.6289 76.7645C33.63 77.4719 37.3673 79.2404 40.489 81.9374C42.6435 83.7059 44.5781 85.7838 46.1609 88.0829L47.0843 89.4535C47.2162 89.6745 47.2162 89.9398 47.0843 90.1609L46.1609 91.5315C44.5341 93.8305 42.6435 95.9085 40.489 97.677C37.3673 100.374 33.63 102.142 29.6289 102.85C33.2343 107.006 38.5544 109.614 44.4462 109.614C55.3063 109.614 64.1439 100.728 64.1439 89.8072C64.1439 78.8867 55.3503 70 44.4462 70Z" fill="black"/>
<path class="inverted" fill-rule="evenodd" clip-rule="evenodd" d="M26.9904 99.0033C27.0784 99.0033 27.2103 99.0033 27.2982 99.0033C34.7728 98.4728 40.049 93.0347 42.2913 90.1608C42.4672 89.9398 42.4672 89.6745 42.2913 89.4534C40.005 86.5796 34.7728 81.1415 27.2982 80.611C27.2103 80.611 27.0784 80.611 26.9904 80.611C25.5395 83.3521 24.748 86.4912 24.748 89.8071C24.748 93.1231 25.5834 96.2622 26.9904 99.0033ZM34.9047 87.7734C34.9926 87.7734 35.0806 87.7734 35.1245 87.7734C36.2237 87.906 37.0591 88.9229 36.9272 90.0724C36.7953 91.1777 35.7841 92.0178 34.6409 91.8851C33.6296 91.7525 32.8382 90.8682 32.8382 89.8514C32.8822 88.6576 33.8055 87.7734 34.9047 87.7734Z" fill="black"/>
<path class="inverted" fill-rule="evenodd" clip-rule="evenodd" d="M152.256 78.1351C151.685 78.1351 151.201 78.3119 150.849 78.6214C150.498 78.9309 150.322 79.373 150.322 79.9036C150.322 80.4341 150.498 80.8762 150.849 81.2299C151.201 81.5394 151.685 81.7163 152.256 81.7163C152.828 81.7163 153.312 81.5394 153.663 81.2299C154.015 80.8762 154.235 80.4783 154.235 79.9036C154.235 79.373 154.059 78.9309 153.663 78.6214C153.312 78.3119 152.828 78.1351 152.256 78.1351Z" fill="black"/>
<path class="inverted" fill-rule="evenodd" clip-rule="evenodd" d="M152.432 83.8385H145.529V83.4406C145.529 82.7332 145.705 82.1584 146.013 81.8047C146.32 81.451 146.848 81.2299 147.552 81.1415L148.079 81.0973C148.475 81.0531 148.739 80.9205 148.959 80.6994C149.178 80.4783 149.31 80.1688 149.31 79.7709C149.31 79.1962 149.046 78.4888 147.859 78.4888C147.683 78.4888 147.552 78.4888 147.464 78.533L146.892 78.5772C145.397 78.7098 144.21 79.2404 143.375 80.1688C142.539 81.0973 142.143 82.3353 142.143 83.8385H141.088C139.813 83.8385 139.549 84.5459 139.549 85.1648C139.549 85.7838 139.813 86.4912 141.088 86.4912H142.143V94.6705C142.143 95.2011 142.319 95.599 142.627 95.8643C142.935 96.1295 143.331 96.2622 143.814 96.2622C144.298 96.2622 144.694 96.1295 145.001 95.8643C145.309 95.599 145.485 95.2011 145.485 94.6705V86.4912H150.541V94.6705C150.541 95.2011 150.717 95.599 151.025 95.8643C151.333 96.1295 151.728 96.2622 152.212 96.2622C152.696 96.2622 153.092 96.1295 153.399 95.82C153.707 95.5548 153.883 95.1126 153.883 94.6263V85.1206C153.927 84.5459 153.663 83.8385 152.432 83.8385Z" fill="black"/>
<path class="inverted" fill-rule="evenodd" clip-rule="evenodd" d="M164.611 89.5419C163.995 89.2324 163.116 88.9671 162.017 88.7461C161.006 88.525 160.346 88.3481 159.994 88.1271C159.686 87.9502 159.555 87.685 159.555 87.3313C159.555 86.9776 159.686 86.6681 159.994 86.447C160.302 86.226 160.742 86.0933 161.313 86.0933C161.797 86.0933 162.193 86.1375 162.544 86.2702C162.896 86.4028 163.292 86.5797 163.732 86.8007C163.995 86.9334 164.215 87.066 164.391 87.1544C164.567 87.2428 164.787 87.287 164.963 87.287C165.27 87.287 165.534 87.1544 165.754 86.8891C165.974 86.6239 166.062 86.3144 166.062 85.9607C166.062 85.3859 165.754 84.8996 165.226 84.5459C164.699 84.1922 164.127 83.9711 163.468 83.7943C162.808 83.6174 162.149 83.529 161.445 83.529C160.478 83.529 159.599 83.7058 158.851 84.0153C158.104 84.3248 157.488 84.8112 157.048 85.4301C156.609 86.0491 156.389 86.7123 156.389 87.4639C156.389 88.4366 156.741 89.2324 157.4 89.8072C158.06 90.3819 159.115 90.7798 160.566 91.0893C161.357 91.2662 161.973 91.443 162.369 91.5757C162.72 91.7083 162.984 91.8409 163.116 91.9736C163.248 92.1062 163.292 92.2831 163.292 92.5041C163.292 92.8578 163.116 93.1231 162.808 93.2999C162.456 93.521 161.929 93.6094 161.313 93.6094C160.654 93.6094 160.126 93.5652 159.73 93.4326C159.291 93.2999 158.851 93.1231 158.323 92.902C157.796 92.6368 157.4 92.5041 157.092 92.5041C156.785 92.5041 156.521 92.6368 156.301 92.8578C156.081 93.0789 155.993 93.3884 155.993 93.7421C155.993 94.361 156.301 94.8474 156.829 95.2011C157.928 95.9085 159.423 96.2622 161.181 96.2622C162.72 96.2622 163.995 95.9085 164.919 95.2453C165.886 94.5379 166.37 93.6094 166.37 92.4599C166.37 91.7525 166.238 91.1335 165.93 90.6914C165.754 90.2493 165.27 89.8514 164.611 89.5419Z" fill="black"/>
<path class="inverted" fill-rule="evenodd" clip-rule="evenodd" d="M175.603 83.529C174.724 83.529 173.933 83.7059 173.229 84.0596C172.701 84.3248 172.218 84.6785 171.866 85.1649V79.9478C171.866 79.4615 171.69 79.1078 171.382 78.8425C171.075 78.5772 170.679 78.4446 170.195 78.4446C169.712 78.4446 169.272 78.5772 168.964 78.8867C168.656 79.1962 168.48 79.5499 168.48 80.0362V94.6705C168.48 95.1569 168.612 95.5548 168.92 95.8643C169.228 96.1738 169.624 96.3064 170.151 96.3064C170.679 96.3064 171.075 96.1738 171.382 95.8643C171.69 95.5548 171.866 95.1569 171.866 94.6705V89.2324C171.866 88.3482 172.13 87.6408 172.613 87.1102C173.097 86.5797 173.757 86.3144 174.592 86.3144C175.296 86.3144 175.779 86.4912 176.131 86.8449C176.439 87.1986 176.615 87.8176 176.615 88.6134V94.6263C176.615 95.1127 176.79 95.5106 177.098 95.8201C177.406 96.1296 177.802 96.2622 178.329 96.2622C178.857 96.2622 179.253 96.1296 179.56 95.8201C179.868 95.5106 180 95.1127 180 94.6263V88.6134C179.912 85.2533 178.461 83.529 175.603 83.529Z" fill="black"/>
<path class="inverted" fill-rule="evenodd" clip-rule="evenodd" d="M78.0377 89.5419C77.4221 89.2324 76.5428 88.9671 75.4436 88.7461C74.4323 88.525 73.7728 88.3481 73.421 88.1271C73.1133 87.9502 72.9813 87.685 72.9813 87.3313C72.9813 86.9776 73.1133 86.6681 73.421 86.447C73.7288 86.226 74.1685 86.0933 74.7401 86.0933C75.2237 86.0933 75.6194 86.1375 75.9712 86.2702C76.3229 86.4028 76.7186 86.5797 77.1583 86.8007C77.4221 86.9334 77.642 87.066 77.8178 87.1544C77.9937 87.2428 78.2136 87.287 78.3894 87.287C78.6972 87.287 78.961 87.1544 79.1809 86.8891C79.4007 86.6239 79.4886 86.3144 79.4886 85.9607C79.4886 85.3859 79.1809 84.8996 78.6532 84.5459C78.1256 84.1922 77.554 83.9711 76.8945 83.7943C76.235 83.6174 75.5755 83.529 74.872 83.529C73.9047 83.529 73.0253 83.7058 72.2779 84.0153C71.5304 84.3248 70.9148 84.8112 70.4752 85.4301C70.0355 86.0491 69.8156 86.7123 69.8156 87.4639C69.8156 88.4366 70.1674 89.2324 70.8269 89.8072C71.4864 90.3819 72.5417 90.7798 73.9926 91.0893C74.784 91.2662 75.3996 91.443 75.7953 91.5757C76.1471 91.7083 76.4109 91.8409 76.5428 91.9736C76.6747 92.1062 76.7186 92.2831 76.7186 92.5041C76.7186 92.8578 76.5428 93.1231 76.235 93.2999C75.8832 93.521 75.3556 93.6094 74.7401 93.6094C74.0806 93.6094 73.5529 93.5652 73.1572 93.4326C72.7175 93.2999 72.2779 93.1231 71.7502 92.902C71.2226 92.6368 70.8269 92.5041 70.5191 92.5041C70.2113 92.5041 69.9475 92.6368 69.7277 92.8578C69.5079 93.0789 69.4199 93.3884 69.4199 93.7421C69.4199 94.361 69.7277 94.8474 70.2553 95.2011C71.3545 95.9085 72.8494 96.2622 74.6082 96.2622C76.1471 96.2622 77.4221 95.9085 78.3455 95.2453C79.3128 94.5379 79.7964 93.6094 79.7964 92.4599C79.7964 91.7525 79.6645 91.1335 79.3567 90.6914C79.1369 90.2493 78.6972 89.8514 78.0377 89.5419Z" fill="black"/>
<path class="inverted" fill-rule="evenodd" clip-rule="evenodd" d="M88.5462 93.6537L87.8867 93.6094C86.8754 93.521 86.3918 92.9463 86.3918 91.8409V86.447H88.2824C88.766 86.447 89.1178 86.3144 89.3816 86.1375C89.6454 85.9165 89.7773 85.5628 89.7773 85.1649C89.7773 84.7227 89.6454 84.4133 89.3816 84.1922C89.1178 83.9711 88.7221 83.8827 88.2824 83.8827H86.3918V81.8047C86.3918 81.3184 86.2159 80.9205 85.9081 80.6552C85.6003 80.3457 85.2046 80.2131 84.721 80.2131C84.1933 80.2131 83.7976 80.3457 83.4899 80.6552C83.1821 80.9647 83.0062 81.3184 83.0062 81.8047V83.8827H81.951C81.4673 83.8827 81.1156 84.0153 80.8518 84.1922C80.588 84.4133 80.4561 84.767 80.4561 85.1649C80.4561 85.607 80.588 85.9165 80.8518 86.1375C81.1156 86.3586 81.4673 86.447 81.951 86.447H83.0062V91.6199C83.0062 94.4495 84.4132 95.9969 87.2272 96.1738L87.8867 96.218C87.9746 96.218 88.0625 96.218 88.1065 96.218C88.5902 96.218 89.0298 96.1296 89.2937 95.9085C89.6454 95.6874 89.8213 95.3337 89.8213 94.8916C89.9092 94.3611 89.6894 93.7421 88.5462 93.6537Z" fill="black"/>
<path class="inverted" fill-rule="evenodd" clip-rule="evenodd" d="M96.8125 83.529C96.0211 83.529 95.2297 83.6174 94.4383 83.7943C93.6468 83.9711 92.9433 84.2364 92.3718 84.5459C92.02 84.7227 91.7562 84.9438 91.6243 85.1649C91.4484 85.3859 91.4045 85.6512 91.4045 85.9607C91.4045 86.3586 91.4924 86.6681 91.7122 86.8891C91.9321 87.1544 92.1959 87.2428 92.5476 87.2428C92.7675 87.2428 93.0752 87.1544 93.5149 86.9334C94.1745 86.6681 94.746 86.4912 95.2297 86.3586C95.7133 86.226 96.153 86.1375 96.6367 86.1375C97.3402 86.1375 97.8678 86.3144 98.1756 86.6239C98.4833 86.9776 98.6592 87.5081 98.6592 88.2597V88.6576H98.2195C96.4608 88.6576 95.0538 88.7903 94.0425 89.0113C92.9873 89.2324 92.2399 89.6303 91.8002 90.1609C91.3165 90.6914 91.0967 91.443 91.0967 92.3273C91.0967 93.0789 91.2726 93.7421 91.6683 94.3168C92.064 94.8916 92.5916 95.3779 93.2511 95.7316C93.9106 96.0853 94.6581 96.218 95.4935 96.218C96.2849 96.218 97.0324 96.0411 97.6479 95.6432C98.0876 95.3779 98.4394 95.0242 98.7032 94.6263C98.7032 95.0684 98.879 95.4221 99.1429 95.6874C99.4506 95.9969 99.8463 96.1295 100.286 96.1295C100.77 96.1295 101.165 95.9969 101.473 95.6874C101.781 95.4221 101.913 95.0242 101.913 94.5379V88.5692C101.913 86.8449 101.473 85.5628 100.682 84.7227C99.8024 83.9711 98.5273 83.529 96.8125 83.529ZM98.6592 91.0009C98.6592 91.7967 98.3954 92.5041 97.9557 92.9905C97.4721 93.521 96.8565 93.7421 96.109 93.7421C95.6254 93.7421 95.1857 93.6094 94.8779 93.2999C94.5262 92.9905 94.3943 92.5925 94.3943 92.1504C94.3943 91.7525 94.5262 91.4872 94.746 91.2662C94.9659 91.0451 95.4056 90.8683 95.9332 90.7798C96.5048 90.6914 97.3841 90.6472 98.4394 90.6472H98.7032V91.0009H98.6592Z" fill="black"/>
<path class="inverted" fill-rule="evenodd" clip-rule="evenodd" d="M111.366 89.763L115.059 86.3144C115.411 85.9607 115.587 85.607 115.587 85.1649C115.587 84.767 115.411 84.369 115.147 84.0596C114.839 83.7501 114.488 83.6174 114.048 83.6174C113.652 83.6174 113.256 83.7943 112.949 84.1038L108.024 88.8345V80.0362C108.024 79.5057 107.848 79.1078 107.541 78.8425C107.233 78.5772 106.837 78.4446 106.353 78.4446C105.87 78.4446 105.474 78.5772 105.166 78.8425C104.858 79.1078 104.683 79.5057 104.683 80.0362V94.6263C104.683 95.1569 104.858 95.5548 105.166 95.8201C105.474 96.0853 105.87 96.218 106.353 96.218C106.837 96.218 107.233 96.0853 107.541 95.8201C107.848 95.5548 108.024 95.1569 108.024 94.6263V90.8241L113.432 95.7759C113.784 96.0853 114.136 96.2622 114.531 96.2622C114.927 96.2622 115.279 96.0853 115.587 95.7759C115.895 95.4664 116.026 95.0685 116.026 94.6705C116.026 94.2284 115.851 93.8305 115.499 93.4768L111.366 89.763Z" fill="black"/>
<path class="inverted" fill-rule="evenodd" clip-rule="evenodd" d="M128.513 89.4535C128.513 88.2597 128.293 87.1986 127.854 86.3144C127.414 85.4301 126.754 84.7228 125.963 84.2364C125.128 83.7501 124.16 83.4848 123.105 83.4848C121.962 83.4848 120.907 83.7501 120.027 84.2806C119.104 84.8112 118.401 85.5628 117.917 86.5355C117.433 87.5081 117.169 88.6134 117.169 89.8514C117.169 91.7967 117.741 93.3884 118.884 94.5379C120.027 95.6874 121.61 96.2622 123.545 96.2622C124.204 96.2622 124.864 96.1738 125.567 95.9969C126.271 95.8201 126.93 95.5548 127.458 95.2453C128.118 94.8916 128.425 94.4053 128.425 93.8305C128.425 93.4326 128.337 93.1231 128.118 92.8578C127.898 92.5926 127.634 92.4599 127.326 92.4599C127.062 92.4599 126.711 92.5926 126.183 92.8578C125.699 93.0789 125.26 93.2558 124.864 93.3884C124.468 93.521 124.028 93.5652 123.545 93.5652C122.578 93.5652 121.83 93.3 121.302 92.8136C120.819 92.3273 120.511 91.6199 120.423 90.603H127.414C127.898 90.6914 128.513 90.4704 128.513 89.4535ZM120.423 88.7019C120.555 87.8618 120.819 87.1986 121.258 86.7123C121.698 86.226 122.358 85.9607 123.105 85.9607C123.897 85.9607 124.468 86.1818 124.864 86.6681C125.26 87.1102 125.479 87.7734 125.567 88.6577H120.423V88.7019Z" fill="black"/>
<path class="inverted" fill-rule="evenodd" clip-rule="evenodd" d="M134.757 87.7734C134.669 87.7734 134.581 87.7734 134.537 87.7734C133.394 87.7734 132.471 88.7018 132.471 89.8071C132.471 90.8682 133.262 91.7083 134.273 91.8409C135.373 91.9736 136.428 91.1777 136.56 90.0282C136.692 88.9229 135.9 87.906 134.757 87.7734Z" fill="black"/>
<path class="inverted" fill-rule="evenodd" clip-rule="evenodd" d="M9.49151 90.1167C9.3596 89.9398 9.3596 89.7188 9.49151 89.5419C14.1082 83.7501 20.4836 80.3015 26.9908 80.6552C27.6943 79.2846 28.6177 77.9583 29.6289 76.8087C28.9254 76.6761 28.222 76.5877 27.5185 76.5435C21.4509 76.2782 15.4712 78.3562 10.8985 82.3795C9.49151 83.529 8.21643 84.8112 7.07326 86.226C7.07326 86.226 7.07326 86.226 7.02929 86.226C6.94135 86.2702 6.85342 86.2702 6.80945 86.1818C5.49041 83.8385 4.47914 81.3626 3.73168 78.7983V78.7541C3.51184 78.2235 3.11612 77.7814 2.54454 77.5604C2.10486 77.3835 1.57724 77.3835 1.13756 77.6046C0.302165 78.0467 -0.137519 79.0194 0.0383536 79.9478V79.992C0.961687 83.3522 2.36867 86.5797 4.21533 89.5419C4.30326 89.7188 4.30326 89.8956 4.21533 90.0725C2.36867 93.0347 0.961687 96.2622 0.0383536 99.6666V99.7108V99.755C0.0383536 100.595 0.522001 101.391 1.31343 101.745C1.53327 101.833 1.79708 101.921 2.06089 101.921C2.72041 101.921 3.33596 101.568 3.68771 100.993L3.73168 100.949V100.905C4.47914 98.3402 5.49041 95.8201 6.80945 93.521C6.80945 93.521 6.80945 93.521 6.80945 93.4768C6.85342 93.4326 6.98532 93.3884 7.02929 93.4768C8.17246 94.8916 9.49151 96.1738 10.8545 97.3233C15.0755 101.037 20.4836 103.115 26.1115 103.248C26.5512 103.248 27.0348 103.248 27.4745 103.204C28.178 103.159 28.8815 103.071 29.585 102.938C28.5737 101.745 27.6943 100.462 26.9469 99.0918C20.5275 99.3129 14.1521 95.9085 9.49151 90.1167Z" fill="black"/>
</g>
<defs>
<clipPath id="clip0_762_197">
<rect width="180" height="180" fill="white"/>
</clipPath>
</defs>
</svg>
