<svg width="100%" height="100%" viewBox="0 0 180 180" fill="none" xmlns="http://www.w3.org/2000/svg">
<g clip-path="url(#clip0_762_199)">
<path d="M11.009 87.1278L18.0004 80.1367L24.9955 87.1315L29.0635 83.0634L18.0004 72L6.94092 83.0597L11.009 87.1278Z" fill="#F3BA2F"/>
<path d="M8.13636 89.9998L4.06836 85.9318L0.000158139 90L4.06816 94.068L8.13636 89.9998Z" fill="#F3BA2F"/>
<path d="M11.0091 92.8729L18.0005 99.864L24.9953 92.8695L29.0656 96.9353L29.0636 96.9375L18.0005 108.001L6.94075 96.9412L6.93506 96.9356L11.0091 92.8729Z" fill="#F3BA2F"/>
<path d="M31.9328 94.0698L36.001 90.0016L31.933 85.9336L27.8648 90.0018L31.9328 94.0698Z" fill="#F3BA2F"/>
<path d="M22.1265 89.9982H22.1282L18.0002 85.8702L14.9495 88.9209H14.9492L14.5989 89.2715L13.8758 89.9945L13.8701 90.0002L13.8758 90.0062L18.0002 94.1306L22.1282 90.0025L22.1302 90.0002L22.1265 89.9982Z" fill="#F3BA2F"/>
<path d="M42.3433 80.7233H51.1911C53.3871 80.7233 55.0476 81.2869 56.1731 82.414C57.044 83.2869 57.4793 84.3688 57.4793 85.6595V85.7141C57.4793 86.2594 57.4119 86.7414 57.2763 87.1594C57.141 87.5779 56.9601 87.9547 56.7341 88.291C56.5086 88.6277 56.2464 88.9231 55.9484 89.1773C55.6501 89.4321 55.3297 89.6505 54.9865 89.8319C56.0903 90.2504 56.9593 90.8183 57.5928 91.5365C58.226 92.255 58.543 93.2505 58.543 94.5229V94.5773C58.543 95.4502 58.3753 96.2136 58.0395 96.8685C57.7037 97.5227 57.2226 98.0684 56.5962 98.5049C55.9697 98.9413 55.2165 99.2683 54.3362 99.4867C53.4559 99.7048 52.4803 99.8137 51.4098 99.8137H42.3433V80.7233ZM50.3065 88.4412C51.234 88.4412 51.9705 88.2825 52.5156 87.964C53.0609 87.6459 53.3336 87.1321 53.3336 86.4232V86.3686C53.3336 85.7325 53.097 85.2463 52.6245 84.9097C52.1516 84.5733 51.4698 84.4049 50.5792 84.4049H46.4338V88.4412H50.3065V88.4412ZM51.4248 96.1323C52.3521 96.1323 53.0788 95.9646 53.6066 95.6279C54.1338 95.2915 54.3976 94.7686 54.3976 94.0595V94.0052C54.3976 93.3688 54.152 92.8644 53.6612 92.4913C53.1701 92.1191 52.3794 91.9326 51.2884 91.9326H46.4338V96.1326H51.4248V96.1323Z" fill="#F3BA2F"/>
<path d="M63.8125 80.7233H68.0128V99.8143H63.8125V80.7233Z" fill="#F3BA2F"/>
<path d="M74.3745 80.7233H78.2467L87.1923 92.478V80.7233H91.3377V99.8143H87.7653L78.5196 87.678V99.8143H74.3745V80.7233Z" fill="#F3BA2F"/>
<path d="M104.053 80.5871H107.926L116.108 99.8143H111.717L109.971 95.5327H101.898L100.153 99.8143H95.8706L104.053 80.5871ZM108.471 91.8232L105.935 85.6325L103.399 91.8232H108.471Z" fill="#F3BA2F"/>
<path d="M120.641 80.7233H124.514L133.459 92.478V80.7233H137.605V99.8143H134.032L124.787 87.678V99.8143H120.641V80.7233V80.7233Z" fill="#F3BA2F"/>
<path d="M152.721 100.141C151.32 100.141 150.021 99.8865 148.82 99.3778C147.62 98.8691 146.584 98.1734 145.711 97.2913C144.838 96.4096 144.156 95.3686 143.666 94.1687C143.175 92.9685 142.93 91.6867 142.93 90.323V90.2687C142.93 88.905 143.175 87.628 143.666 86.4369C144.157 85.2461 144.838 84.2005 145.711 83.3006C146.584 82.4007 147.63 81.6912 148.847 81.1732C150.065 80.6551 151.412 80.3961 152.884 80.3961C153.774 80.3961 154.588 80.4691 155.324 80.6141C156.061 80.76 156.729 80.9596 157.329 81.2141C157.93 81.4689 158.483 81.778 158.993 82.1413C159.501 82.5053 159.975 82.9051 160.411 83.3415L157.739 86.4232C156.992 85.7508 156.234 85.223 155.461 84.8414C154.688 84.4599 153.82 84.2688 152.857 84.2688C152.056 84.2688 151.315 84.4235 150.634 84.7325C149.952 85.0416 149.366 85.4687 148.875 86.0141C148.384 86.5594 148.002 87.1915 147.729 87.9095C147.457 88.628 147.321 89.396 147.321 90.2141V90.2684C147.321 91.0864 147.457 91.8596 147.729 92.5863C148.002 93.314 148.379 93.95 148.861 94.4954C149.343 95.0408 149.925 95.473 150.606 95.7911C151.289 96.1096 152.039 96.2683 152.857 96.2683C153.948 96.2683 154.87 96.0684 155.624 95.6683C156.379 95.2688 157.129 94.7232 157.875 94.0319L160.547 96.732C160.056 97.2595 159.547 97.7323 159.02 98.15C158.493 98.5686 157.916 98.9274 157.288 99.2277C156.661 99.5274 155.974 99.7551 155.229 99.9093C154.483 100.064 153.647 100.141 152.721 100.141Z" fill="#F3BA2F"/>
<path d="M165.49 80.7233H179.863V84.4598H169.636V88.3326H178.636V92.0688H169.636V96.078H180V99.8143H165.49V80.7233Z" fill="#F3BA2F"/>
</g>
<defs>
<clipPath id="clip0_762_199">
<rect width="180" height="180" fill="white"/>
</clipPath>
</defs>
</svg>
