<svg width="100%" height="100%" viewBox="0 0 180 180" fill="none" xmlns="http://www.w3.org/2000/svg">
<g clip-path="url(#clip0_762_60)">
<path fill-rule="evenodd" clip-rule="evenodd" d="M64.3157 82.3333C66.478 82.3333 67.7054 83.5878 68.1903 85.5022H72.7419C71.9666 80.9527 68.7068 78.4425 64.284 78.4425C61.8313 78.4425 59.7641 79.2579 58.0856 80.8896C57.0853 81.8626 56.4716 82.9605 56.2138 84.2466C55.9561 85.5022 55.8262 87.3535 55.8262 89.8006C55.8262 92.2476 55.9561 94.099 56.2138 95.3546C56.4716 96.6091 57.0853 97.7375 58.0856 98.7105C59.7641 100.342 61.8313 101.158 64.284 101.158C68.674 101.158 71.9666 98.6485 72.7419 94.099H68.1903C67.7054 96.0122 66.478 97.2678 64.3157 97.2678C63.0893 97.2678 62.1207 96.8918 61.4425 96.1068C60.5078 95.1339 60.3134 94.1305 60.3134 89.8006C60.3134 85.4706 60.5078 84.4662 61.4425 83.4943C62.1207 82.7094 63.0893 82.3333 64.3157 82.3333Z" fill="#084046"/>
<path fill-rule="evenodd" clip-rule="evenodd" d="M90.0413 87.7606H90.0424V87.5704H90.0413V87.7606ZM90.0426 78.6353H90.0415V83.1033V87.5669H85.5532V92.0338H90.0415V91.6207H90.0426V92.0381H90.0415V96.505V100.973H94.5287V100.97V96.505V92.0381V87.5702V83.1033V78.6353V78.6309H90.0426V78.6353Z" fill="#084046"/>
<path fill-rule="evenodd" clip-rule="evenodd" d="M77.7749 100.97H82.2621V93.9563V91.6202V87.7609V85.3367V78.6314H77.7749V100.97Z" fill="#084046"/>
<path fill-rule="evenodd" clip-rule="evenodd" d="M111.113 96.0754C110.467 96.7973 109.466 97.268 108.239 97.268C107.013 97.268 105.98 96.7973 105.335 96.0754C104.462 95.134 104.236 94.0991 104.236 89.8007C104.236 85.5012 104.462 84.4663 105.335 83.526C105.98 82.8041 107.013 82.3334 108.239 82.3334C109.466 82.3334 110.467 82.8041 111.113 83.526C111.984 84.4663 112.243 85.5012 112.243 89.8007C112.243 94.0991 111.984 95.134 111.113 96.0754ZM108.24 78.4425C105.625 78.4425 103.624 79.3209 102.01 80.8896C99.6847 83.1486 99.7502 85.9414 99.7502 89.8006C99.7502 93.6597 99.6847 96.4515 102.01 98.7105C103.624 100.279 105.625 101.158 108.24 101.158C110.855 101.158 112.823 100.279 114.438 98.7105C116.762 96.4515 116.73 93.6597 116.73 89.8006C116.73 85.9414 116.762 83.1486 114.438 80.8896C112.823 79.3209 110.855 78.4425 108.24 78.4425Z" fill="#084046"/>
<path fill-rule="evenodd" clip-rule="evenodd" d="M130.258 88.4199H126.029V82.5213H130.258C132.227 82.5213 133.518 83.7453 133.518 85.4717C133.518 87.1969 132.227 88.4199 130.258 88.4199ZM138.007 85.4715C138.007 81.7373 135.23 78.6314 130.549 78.6314H121.543V100.97H126.029V92.0593H129.257L133.744 100.97H138.941L133.809 91.3385C136.037 90.5537 138.007 88.6078 138.007 85.4715Z" fill="#084046"/>
<path fill-rule="evenodd" clip-rule="evenodd" d="M155.306 93.1578C155.306 95.7299 153.723 97.2682 151.302 97.2682C148.881 97.2682 147.331 95.7299 147.331 93.1578V78.6309H142.844V93.3155C142.844 98.052 146.59 101.158 151.302 101.158C156.015 101.158 159.76 98.052 159.76 93.3155V78.6309H155.306V93.1578Z" fill="#084046"/>
<path fill-rule="evenodd" clip-rule="evenodd" d="M178.225 89.6435C177.256 88.7651 175.932 88.1998 173.833 87.9183L171.122 87.5411C170.186 87.416 169.443 87.0703 168.991 86.6627C168.509 86.2235 168.314 85.6278 168.314 85.0625C168.314 83.5253 169.475 82.2382 171.866 82.2382C173.381 82.2382 175.125 82.4273 176.578 83.7764L179.419 81.0467C177.449 79.1954 175.157 78.442 171.994 78.442C167.022 78.442 163.989 81.2348 163.989 85.219C163.989 87.1019 164.537 88.5455 165.634 89.612C166.667 90.5849 168.12 91.1807 170.09 91.4633L172.866 91.8394C173.931 91.9971 174.447 92.2167 174.899 92.6243C175.383 93.0635 175.609 93.7212 175.609 94.5072C175.609 96.2944 174.189 97.2673 171.542 97.2673C169.412 97.2673 167.443 96.7966 165.989 95.3845L163.084 98.2087C165.344 100.436 167.991 101.158 171.477 101.158C176.288 101.158 180 98.711 180 94.381C180 92.4047 179.451 90.7729 178.225 89.6435Z" fill="#084046"/>
<path fill-rule="evenodd" clip-rule="evenodd" d="M0.0117188 105.979L4.65508 110.601L9.29845 105.979L4.65508 101.356L0.0117188 105.979Z" fill="#084046"/>
<path fill-rule="evenodd" clip-rule="evenodd" d="M41.8019 73.6224L37.1585 69L32.5151 73.6224L37.1585 78.2447L41.8019 73.6224Z" fill="#084046"/>
<path fill-rule="evenodd" clip-rule="evenodd" d="M25.5499 94.4227L20.9065 99.0451L16.2632 94.4227L11.6198 89.8003L16.2632 85.178L20.9065 80.5557L25.5499 85.178L30.1932 89.8003L25.5499 94.4227ZM39.4799 89.8002L34.8365 85.1779L30.1932 80.5555L25.5498 75.9332L20.9065 71.3108L16.263 75.9332L11.6197 80.5555L6.97637 85.1779L2.33301 89.8002L6.97637 94.4225L11.6197 99.045L16.263 103.667L20.9065 108.29L25.5498 103.667L30.1932 99.045L34.8365 94.4225L39.4799 89.8002Z" fill="#084046"/>
<path fill-rule="evenodd" clip-rule="evenodd" d="M32.5098 105.987L37.1531 110.609L41.7965 105.987L37.1531 101.364L32.5098 105.987Z" fill="#084046"/>
<path fill-rule="evenodd" clip-rule="evenodd" d="M9.28673 73.6255L4.64336 69.0031L0 73.6255L4.64336 78.2478L9.28673 73.6255Z" fill="#084046"/>
</g>
<defs>
<clipPath id="clip0_762_60">
<rect width="180" height="180" fill="white"/>
</clipPath>
</defs>
</svg>
