<svg width="100%" height="100%" viewBox="0 0 180 180" fill="none" xmlns="http://www.w3.org/2000/svg">
<path class="inverted" d="M13.0189 106.128C11.9371 105.074 10.9131 103.914 9.81207 102.879C15.7877 96.7699 17.9388 94.8088 21.6186 89.987C23.0952 88.2363 24.0724 86.1192 24.4474 83.8588C24.5086 83.4295 24.5244 82.9933 24.5844 82.2965C25.7736 84.3358 26.3653 86.6693 26.2919 89.0296C26.1663 93.0041 24.0955 96.0471 21.6808 98.9486C20.2256 100.697 15.7696 105.087 13.8234 106.993C13.4126 106.547 13.4534 106.551 13.0189 106.128ZM6.04855 98.8636C5.84148 98.6574 5.39565 98.1691 5.19763 97.9572C9.44126 93.9464 13.3819 89.626 16.9872 85.0314C18.285 83.4125 19.3963 81.6043 19.1224 79.3486C19.0347 78.8825 18.914 78.4233 18.7615 77.9743C18.7909 80.9064 17.1773 83.0171 15.5501 85.1187C15.119 85.6772 14.6324 86.1916 14.1754 86.7308C13.8102 87.2129 13.3176 87.5831 12.7532 87.7993C12.1889 88.0157 11.5754 88.0693 10.9821 87.9545C10.1595 87.7332 9.28543 87.8088 8.51281 88.1677C7.7402 88.5266 7.11824 89.1461 6.75577 89.9178C6.48872 90.4835 6.34155 91.0983 6.32352 91.7238C6.28392 93.1411 5.47147 93.9806 4.08759 93.7325C3.01034 93.5108 1.94832 93.2205 0.907951 92.8635C0.730883 92.8362 0.563471 92.765 0.421057 92.6562C0.278644 92.5473 0.165781 92.4045 0.0928156 92.2408C0.0198493 92.0769 -0.0108881 91.8974 0.00341991 91.7185C0.017728 91.5398 0.0766239 91.3674 0.174711 91.2174C0.978107 89.4126 1.74869 87.5919 2.61432 85.8177C3.29325 84.4276 4.12606 83.1224 3.50598 81.4525C3.41319 81.2021 3.72323 80.7296 3.9518 80.4419C4.99848 79.1231 6.08137 77.8259 7.15407 76.5219C6.98449 76.3832 6.82909 76.2279 6.69014 76.0585C6.21602 75.4308 5.77133 74.7771 5.12522 73.8708L8.37388 74.1823L7.76624 73.0494C9.72381 72.7729 10.6811 73.6884 11.8522 75.0162C11.9206 74.8445 12.0248 74.6895 12.1579 74.5615C12.2909 74.4335 12.4499 74.3355 12.6239 74.2741C15.996 73.5026 20.2811 75.7764 22.9911 79.3055C23.5952 80.1093 23.9384 81.0793 23.9746 82.0845C24.0109 83.0897 23.7384 84.0819 23.1937 84.9272C22.1044 86.8107 20.8549 88.5968 19.4596 90.2657C16.8842 93.4379 16.1724 93.9285 8.88533 101.72C7.82847 100.72 7.08165 99.8924 6.04855 98.8625V98.8636Z" fill="white"/>
<path class="inverted" d="M34.9082 100.883H38.7667V91.922H47.9505V88.4463H38.7667V81.686H49.7042V78.2421H34.9082V100.883Z" fill="white"/>
<path class="inverted" d="M63.2725 101.138C69.8096 101.138 74.6885 96.4502 74.6885 89.5623C74.6885 82.6426 69.8096 77.987 63.2725 77.987C56.4803 77.987 51.8247 82.8977 51.8247 89.5623C51.8247 96.227 56.4803 101.138 63.2725 101.138ZM63.2725 97.5344C58.84 97.5344 55.8107 93.9947 55.8107 89.5623C55.8107 85.1299 58.84 81.5903 63.2725 81.5903C67.4499 81.5903 70.6706 84.9067 70.6706 89.5623C70.6706 94.1861 67.4499 97.5344 63.2725 97.5344Z" fill="white"/>
<path class="inverted" d="M79.2212 100.883H83.0797V92.8149H86.109L91.53 100.883H96.1537L90.2863 92.4323C93.6028 91.4756 95.3247 89.1159 95.3247 85.5763C95.3247 81.3671 92.965 78.2421 87.5758 78.2421H79.2212V100.883ZM83.0797 89.3391V81.686H87.0019C89.7762 81.686 91.3386 83.1209 91.3386 85.5125C91.3386 87.7447 89.8399 89.3391 86.7468 89.3391H83.0797Z" fill="white"/>
<path class="inverted" d="M100.241 100.883H109.202C114.208 100.883 116.632 98.2678 116.632 94.6644C116.632 91.5393 114.782 89.5623 112.135 88.9245V88.8926C114.463 87.9679 115.484 85.8633 115.484 83.7587C115.484 80.0597 112.773 78.2421 108.118 78.2421H100.241V100.883ZM104.1 87.6171V81.686L107.703 81.6541C110.35 81.6541 111.562 82.8339 111.562 84.6197C111.562 86.7562 109.999 87.6171 107.831 87.6171H104.1ZM104.1 97.4387V90.9335H108.118C111.115 90.9335 112.614 92.2409 112.614 94.2498C112.614 96.3863 111.115 97.4387 108.723 97.4387H104.1Z" fill="white"/>
<path class="inverted" d="M130.847 101.138C137.384 101.138 142.264 96.4502 142.264 89.5623C142.264 82.6426 137.384 77.987 130.847 77.987C124.055 77.987 119.4 82.8977 119.4 89.5623C119.4 96.227 124.055 101.138 130.847 101.138ZM130.847 97.5344C126.416 97.5344 123.385 93.9947 123.385 89.5623C123.385 85.1299 126.416 81.5903 130.847 81.5903C135.025 81.5903 138.246 84.9067 138.246 89.5623C138.246 94.1861 135.025 97.5344 130.847 97.5344Z" fill="white"/>
<path class="inverted" d="M146.797 100.883H161.146V97.4387H150.655V78.2421H146.797V100.883Z" fill="white"/>
<path class="inverted" d="M165.076 100.883H180V97.4387H168.935V91.3799H177.322V87.936H168.935V81.686H179.33V78.2421H165.076V100.883Z" fill="white"/>
</svg>
