<svg width="100%" height="100%" viewBox="0 0 180 180" fill="none" xmlns="http://www.w3.org/2000/svg">
<g clip-path="url(#clip0_762_31)">
<path d="M6.22771 84.6735C8.20569 84.6735 9.79199 85.1726 10.9866 86.1709C12.1812 87.1693 12.9254 88.5004 13.2192 90.1643H9.34156C9.18489 89.3813 8.83237 88.7549 8.28402 88.285C7.73567 87.8153 7.02086 87.5804 6.13958 87.5804C5.43455 87.5804 4.8862 87.7467 4.49452 88.0795C4.10284 88.4123 3.907 88.8625 3.907 89.4302C3.907 89.8804 4.06368 90.2425 4.37702 90.5165C4.69036 90.7907 5.08204 91.0059 5.55206 91.1626C6.02207 91.3192 6.69772 91.5051 7.579 91.7205C8.81279 91.9945 9.81157 92.2881 10.5754 92.6014C11.3587 92.8951 12.0246 93.3745 12.573 94.04C13.1408 94.6861 13.4249 95.567 13.4249 96.6826C13.4249 98.0726 12.8765 99.1982 11.7798 100.059C10.7026 100.921 9.24364 101.351 7.40274 101.351C5.28767 101.351 3.59366 100.882 2.3207 99.9419C1.04774 98.9828 0.274184 97.6223 0 95.8607H3.96576C4.06368 96.6632 4.41619 97.2993 5.02329 97.7691C5.63039 98.2194 6.42354 98.4445 7.40274 98.4445C8.10777 98.4445 8.64633 98.2781 9.01842 97.9454C9.39052 97.593 9.57657 97.1427 9.57657 96.5947C9.57657 96.1249 9.4101 95.7431 9.07717 95.4495C8.76383 95.1559 8.36236 94.9307 7.87276 94.7743C7.40274 94.6176 6.7271 94.4316 5.84582 94.2164C4.63161 93.9422 3.64262 93.6682 2.87884 93.3942C2.13465 93.1005 1.48838 92.6405 0.940029 92.0141C0.411257 91.3877 0.14688 90.5264 0.14688 89.4302C0.14688 88.0208 0.68544 86.8757 1.76256 85.9948C2.83968 85.1139 4.32806 84.6735 6.22771 84.6735Z" fill="#700CF9"/>
<path d="M24.7971 97.593V101.146H22.6233C20.8021 101.146 19.4018 100.705 18.4226 99.8246C17.4628 98.9436 16.9832 97.4754 16.9832 95.4201V88.3731H14.7212V84.879H16.9832V80.8563H21.1251V84.879H24.7677V88.3731H21.1251V95.4789C21.1251 96.2619 21.2818 96.8099 21.5951 97.1232C21.9085 97.4363 22.4373 97.593 23.1814 97.593H24.7971Z" fill="#700CF9"/>
<path d="M33.744 84.6735C35.1149 84.6735 36.2898 84.9965 37.269 85.6424C38.2482 86.2884 38.9435 87.1595 39.3547 88.2557V84.879H43.4675V101.146H39.3547V97.7399C38.9435 98.836 38.2482 99.7168 37.269 100.382C36.2898 101.028 35.1149 101.351 33.744 101.351C32.373 101.351 31.1393 101.019 30.0426 100.353C28.9458 99.6876 28.0842 98.7282 27.4576 97.4754C26.8504 96.2032 26.5469 94.7155 26.5469 93.0124C26.5469 91.3093 26.8504 89.8315 27.4576 88.5787C28.0842 87.3063 28.9458 86.3373 30.0426 85.6718C31.1393 85.0062 32.373 84.6735 33.744 84.6735ZM35.0365 88.285C33.744 88.285 32.706 88.7059 31.9228 89.5476C31.1393 90.3895 30.7476 91.5444 30.7476 93.0124C30.7476 94.4806 31.1393 95.6355 31.9228 96.4772C32.706 97.2993 33.744 97.7105 35.0365 97.7105C36.2898 97.7105 37.3181 97.2896 38.121 96.4478C38.9435 95.5865 39.3547 94.4413 39.3547 93.0124C39.3547 91.5638 38.9435 90.4186 38.121 89.577C37.3181 88.7157 36.2898 88.285 35.0365 88.285Z" fill="#700CF9"/>
<path d="M56.3313 101.146L50.9554 94.04V101.146H46.8135V79.4176H50.9554V91.6323L56.3019 84.879H61.2077L54.3632 92.983L61.384 101.146H56.3313Z" fill="#700CF9"/>
<path d="M78.2915 92.3957C78.2915 92.8069 78.2425 93.2767 78.1446 93.8052H66.2181C66.2766 95.2537 66.6683 96.3205 67.393 97.0057C68.1177 97.6908 69.0185 98.0333 70.0956 98.0333C71.0553 98.0333 71.8483 97.7985 72.4751 97.3287C73.1213 96.8589 73.5327 96.2226 73.7088 95.4201H78.0858C77.8704 96.5556 77.4102 97.5733 76.7052 98.4739C76.0001 99.3743 75.0894 100.079 73.9732 100.588C72.8765 101.097 71.6525 101.351 70.3012 101.351C68.7149 101.351 67.3049 101.019 66.0711 100.353C64.8372 99.6679 63.8777 98.699 63.1923 97.4462C62.5067 96.1934 62.1641 94.7155 62.1641 93.0124C62.1641 91.3093 62.5067 89.8315 63.1923 88.5787C63.8777 87.3063 64.8372 86.3373 66.0711 85.6718C67.3049 85.0062 68.7149 84.6735 70.3012 84.6735C71.907 84.6735 73.3073 85.0062 74.502 85.6718C75.7162 86.3373 76.6464 87.2574 77.2926 88.4319C77.9585 89.5868 78.2915 90.908 78.2915 92.3957ZM74.1202 91.9847C74.1789 90.6537 73.8263 89.6455 73.0625 88.9604C72.3184 88.2753 71.398 87.9327 70.3012 87.9327C69.1848 87.9327 68.245 88.2753 67.4812 88.9604C66.7174 89.6455 66.2963 90.6537 66.2181 91.9847H74.1202Z" fill="#700CF9"/>
<path d="M104.119 84.879L99.7418 101.146H95.1593L91.6636 89.3127L88.0796 101.146H83.4971L79.1494 84.879H83.2914L85.9351 97.4462L89.5484 84.879H93.9254L97.568 97.4462L100.241 84.879H104.119Z" fill="#700CF9"/>
<path d="M109.918 84.879V101.146H105.775V84.879H109.918Z" fill="#700CF9"/>
<path d="M121.952 97.593V101.146H119.778C117.957 101.146 116.557 100.705 115.577 99.8246C114.618 98.9436 114.138 97.4754 114.138 95.4201V88.3731H111.876V84.879H114.138V80.8563H118.28V84.879H121.923V88.3731H118.28V95.4789C118.28 96.2619 118.437 96.8099 118.75 97.1232C119.063 97.4363 119.592 97.593 120.336 97.593H121.952Z" fill="#700CF9"/>
<path d="M134.218 84.6441C136.099 84.6441 137.597 85.2607 138.713 86.4939C139.829 87.7272 140.387 89.4596 140.387 91.6911V101.146H136.275V92.1608C136.275 90.8689 135.942 89.8707 135.276 89.1659C134.61 88.4417 133.699 88.0795 132.544 88.0795C131.369 88.0795 130.429 88.4612 129.724 89.2246C129.019 89.988 128.666 91.0843 128.666 92.5133V101.146H124.524V79.4176H128.666V88.1382C129.097 87.042 129.802 86.1905 130.781 85.5837C131.78 84.9573 132.926 84.6441 134.218 84.6441Z" fill="#700CF9"/>
<path d="M142.185 99.0318C142.185 98.4445 142.4 97.9454 142.831 97.5342C143.262 97.1036 143.751 96.8883 144.3 96.8883C144.809 96.8883 145.279 97.1036 145.71 97.5342C146.14 97.9454 146.356 98.4445 146.356 99.0318C146.356 99.6385 146.14 100.147 145.71 100.559C145.298 100.95 144.828 101.146 144.3 101.146C143.751 101.146 143.262 100.95 142.831 100.559C142.4 100.167 142.185 99.6582 142.185 99.0318Z" fill="#700CF9"/>
<path d="M163.834 84.879V101.146H159.692V97.8572C159.261 98.9534 158.546 99.8147 157.547 100.441C156.568 101.048 155.432 101.351 154.14 101.351C152.26 101.351 150.762 100.735 149.645 99.5015C148.529 98.2682 147.971 96.5457 147.971 94.3337V84.879H152.083V93.8639C152.083 95.1559 152.416 96.1641 153.082 96.8883C153.748 97.593 154.649 97.9454 155.785 97.9454C156.979 97.9454 157.929 97.5636 158.634 96.8002C159.339 96.0368 159.692 94.9406 159.692 93.5115V84.879H163.834Z" fill="#700CF9"/>
<path d="M172.803 84.6735C174.781 84.6735 176.367 85.1726 177.562 86.1709C178.756 87.1693 179.501 88.5004 179.794 90.1643H175.917C175.76 89.3813 175.408 88.7549 174.859 88.285C174.311 87.8153 173.596 87.5804 172.715 87.5804C172.01 87.5804 171.461 87.7467 171.07 88.0795C170.678 88.4123 170.482 88.8625 170.482 89.4302C170.482 89.8804 170.639 90.2425 170.952 90.5165C171.266 90.7907 171.657 91.0059 172.127 91.1626C172.597 91.3192 173.273 91.5051 174.154 91.7205C175.388 91.9945 176.387 92.2881 177.151 92.6014C177.934 92.8951 178.6 93.3745 179.148 94.04C179.716 94.6861 180 95.567 180 96.6826C180 98.0726 179.452 99.1982 178.355 100.059C177.278 100.921 175.819 101.351 173.978 101.351C171.863 101.351 170.169 100.882 168.896 99.9419C167.623 98.9828 166.849 97.6223 166.575 95.8607H170.541C170.639 96.6632 170.992 97.2993 171.599 97.7691C172.206 98.2194 172.999 98.4445 173.978 98.4445C174.683 98.4445 175.222 98.2781 175.594 97.9454C175.966 97.593 176.152 97.1427 176.152 96.5947C176.152 96.1249 175.985 95.7431 175.652 95.4495C175.339 95.1559 174.938 94.9307 174.448 94.7743C173.978 94.6176 173.302 94.4316 172.421 94.2164C171.207 93.9422 170.218 93.6682 169.454 93.3942C168.71 93.1005 168.064 92.6405 167.515 92.0141C166.987 91.3877 166.722 90.5264 166.722 89.4302C166.722 88.0208 167.261 86.8757 168.338 85.9948C169.415 85.1139 170.903 84.6735 172.803 84.6735Z" fill="#700CF9"/>
<path d="M105.746 80.1435C105.746 79.5562 105.962 79.057 106.393 78.646C106.823 78.2153 107.313 78 107.861 78C108.37 78 108.841 78.2153 109.271 78.646C109.702 79.057 109.918 79.5562 109.918 80.1435C109.918 80.7503 109.702 81.2592 109.271 81.6703C108.86 82.0618 108.39 82.2576 107.861 82.2576C107.313 82.2576 106.823 82.0618 106.393 81.6703C105.962 81.2788 105.746 80.7699 105.746 80.1435Z" fill="#700CF9"/>
</g>
<defs>
<clipPath id="clip0_762_31">
<rect width="180" height="180" fill="white"/>
</clipPath>
</defs>
</svg>
