<svg width="100%" height="100%" viewBox="0 0 180 180" fill="none" xmlns="http://www.w3.org/2000/svg">
<path d="M11.3424 99.7454L4.97986 88.7254C4.82125 88.4506 4.73779 88.139 4.73779 87.8218C4.73779 87.5046 4.82125 87.193 4.97986 86.9183L11.3424 75.9036C11.501 75.6288 11.7291 75.4007 12.0038 75.2421C12.2786 75.0835 12.5902 75 12.9074 75H25.6271C25.9443 75 26.2559 75.0835 26.5307 75.2421C26.8054 75.4007 27.0335 75.6288 27.1921 75.9036L33.5762 86.929L30.446 88.7362L24.6051 78.625H13.9724L8.65325 87.8326L14.4941 97.949L11.3424 99.7454Z" fill="#9C6CFF"/>
<path d="M20.6687 105.742H7.92225C7.60502 105.742 7.29333 105.659 7.0186 105.5C6.74387 105.342 6.51577 105.113 6.35715 104.839L0 93.8294L3.12481 92.0223L8.96559 102.139H19.5931L24.9068 92.9258L19.0714 82.8147L22.1962 81.0075L28.5587 92.0223C28.7173 92.2969 28.8007 92.6086 28.8007 92.9258C28.8007 93.243 28.7173 93.5547 28.5587 93.8294L22.1962 104.849C22.0402 105.117 21.8176 105.34 21.55 105.497C21.2823 105.653 20.9787 105.738 20.6687 105.742Z" fill="#05D2DD"/>
<path class="inverted" d="M46.533 95.5396C45.6197 95.0478 44.8589 94.3148 44.3333 93.4205C43.8113 92.4909 43.5371 91.4426 43.5371 90.3765C43.5371 89.3103 43.8113 88.2619 44.3333 87.3324C44.8607 86.4362 45.6232 85.7015 46.5384 85.2079C47.4038 84.7617 48.3538 84.5033 49.326 84.4495C50.2982 84.3958 51.2708 84.548 52.1801 84.896C52.919 85.1888 53.5785 85.6512 54.1057 86.2459L53.03 87.2894C52.6135 86.8429 52.1073 86.4894 51.5447 86.2522C50.9821 86.0149 50.3758 85.8991 49.7653 85.9125C48.9484 85.9002 48.1422 86.1003 47.4258 86.4933C46.7489 86.8713 46.1903 87.4299 45.8123 88.1067C45.4277 88.8053 45.226 89.5898 45.226 90.3872C45.226 91.1846 45.4277 91.9691 45.8123 92.6676C46.1896 93.345 46.7484 93.9038 47.4258 94.281C48.1422 94.6741 48.9484 94.8742 49.7653 94.8619C50.3773 94.8753 50.985 94.7579 51.5481 94.5178C52.111 94.2775 52.6162 93.92 53.03 93.4689L54.1057 94.5446C53.5744 95.1408 52.9114 95.6048 52.1694 95.8999C51.3768 96.2195 50.5286 96.3786 49.674 96.3678C48.5731 96.3671 47.491 96.0819 46.533 95.5396Z" fill="white"/>
<path class="inverted" d="M49.6734 96.4485C48.5474 96.4686 47.4355 96.1962 46.4463 95.6579C45.5147 95.1595 44.7372 94.4154 44.1982 93.5065C43.6624 92.5572 43.3809 91.4854 43.3809 90.3952C43.3809 89.305 43.6624 88.2333 44.1982 87.2839C44.7405 86.3758 45.5194 85.6322 46.4518 85.1326C47.3342 84.6767 48.3033 84.4127 49.2952 84.3581C50.287 84.3033 51.2792 84.4592 52.2065 84.8153C52.9633 85.1157 53.6393 85.589 54.1804 86.1975L54.2664 86.2943L52.9971 87.5259L52.9379 87.3754C52.5339 86.9417 52.0428 86.5983 51.497 86.3675C50.9511 86.1369 50.3627 86.0239 49.7701 86.0362C48.976 86.0269 48.1927 86.2213 47.4951 86.6009C46.837 86.9637 46.2902 87.4993 45.9139 88.1498C45.5401 88.8276 45.344 89.589 45.344 90.363C45.344 91.137 45.5401 91.8984 45.9139 92.5761C46.2883 93.2295 46.8354 93.7672 47.4951 94.1305C48.1953 94.5006 48.9784 94.6858 49.7701 94.6683C50.3634 94.6788 50.9522 94.564 51.4981 94.3314C52.044 94.0987 52.5346 93.7535 52.9379 93.3183L53.0294 93.2215L54.2987 94.4477L54.2126 94.5446C53.6699 95.1575 52.9924 95.6361 52.2333 95.9429C51.4209 96.276 50.5514 96.4476 49.6734 96.4485ZM46.597 95.4266C47.5417 95.9351 48.6006 96.1942 49.6734 96.1795C50.511 96.1874 51.3422 96.0321 52.1204 95.7224C52.8017 95.4499 53.4148 95.0313 53.9167 94.4961L53.0294 93.6357C52.6033 94.0681 52.0937 94.4095 51.5315 94.6388C50.9694 94.8681 50.3664 94.9805 49.7594 94.9695C48.9198 94.9823 48.0913 94.7766 47.3553 94.3724C46.6515 93.9874 46.0673 93.4161 45.6665 92.7213C45.2715 92.0019 45.0644 91.1945 45.0644 90.3737C45.0644 89.553 45.2715 88.7455 45.6665 88.0261C46.0688 87.3324 46.6527 86.7616 47.3553 86.3749C48.0926 85.974 48.9202 85.7685 49.7594 85.778C50.3656 85.7655 50.9681 85.8762 51.5303 86.1037C52.0924 86.3312 52.6024 86.6704 53.0294 87.101L53.9167 86.2405C53.4165 85.7096 52.8074 85.2931 52.1312 85.0196C51.3534 84.7157 50.5245 84.5641 49.6895 84.5732C48.6134 84.5601 47.5515 84.8191 46.6023 85.3262C45.7086 85.8082 44.9645 86.5263 44.451 87.4022C43.9397 88.3101 43.6712 89.3345 43.6712 90.3764C43.6712 91.4183 43.9397 92.4427 44.451 93.3506C44.9654 94.2258 45.7093 94.9437 46.6023 95.4266H46.597Z" fill="white"/>
<path class="inverted" d="M58.3163 95.5395C57.3926 95.0415 56.6255 94.2966 56.1005 93.3881C55.5717 92.4646 55.2935 91.419 55.2935 90.3548C55.2935 89.2907 55.5717 88.245 56.1005 87.3215C56.6277 86.4146 57.3943 85.6704 58.3163 85.1702C59.2929 84.6647 60.3765 84.4008 61.4761 84.4008C62.5757 84.4008 63.6593 84.6647 64.6358 85.1702C65.551 85.6638 66.3135 86.3984 66.8409 87.2946C67.3629 88.2242 67.6371 89.2725 67.6371 90.3386C67.6371 91.4049 67.3629 92.4532 66.8409 93.3827C66.3132 94.2772 65.5506 95.0101 64.6358 95.5018C63.6603 96.0108 62.5763 96.2766 61.4761 96.2766C60.3758 96.2766 59.2918 96.0108 58.3163 95.5018V95.5395ZM63.7806 94.254C64.4555 93.8734 65.0135 93.3155 65.3942 92.6405C65.7788 91.9421 65.9805 91.1576 65.9805 90.3601C65.9805 89.5627 65.7788 88.7783 65.3942 88.0798C65.0131 87.4052 64.4553 86.8474 63.7806 86.4663C63.0795 86.0742 62.2874 85.874 61.4841 85.8854C60.6757 85.8739 59.8784 86.0742 59.1715 86.4663C58.4953 86.8452 57.9369 87.4036 57.558 88.0798C57.1733 88.7783 56.9716 89.5627 56.9716 90.3601C56.9716 91.1576 57.1733 91.9421 57.558 92.6405C57.9361 93.3173 58.4947 93.8758 59.1715 94.254C59.8784 94.6462 60.6757 94.8465 61.4841 94.8349C62.2819 94.8436 63.0681 94.6433 63.7645 94.254H63.7806Z" fill="white"/>
<path class="inverted" d="M61.4683 96.4487C60.3429 96.4647 59.232 96.1926 58.2413 95.6581C57.3042 95.1614 56.5211 94.4174 55.9771 93.5068C55.4345 92.5626 55.1489 91.4926 55.1489 90.4036C55.1489 89.3146 55.4345 88.2445 55.9771 87.3003C56.5184 86.3794 57.3014 85.6243 58.2413 85.1168C59.238 84.5982 60.3449 84.3275 61.4683 84.3275C62.5917 84.3275 63.6986 84.5982 64.6953 85.1168C65.6276 85.6163 66.4065 86.36 66.9488 87.268C67.4846 88.2175 67.7662 89.2892 67.7662 90.3794C67.7662 91.4696 67.4846 92.5413 66.9488 93.4907C66.4095 94.4012 65.6298 95.1455 64.6953 95.642C63.7064 96.1827 62.5953 96.4605 61.4683 96.4487ZM58.3651 95.4215C59.3208 95.9197 60.3826 96.1798 61.4603 96.1798C62.538 96.1798 63.5997 95.9197 64.5554 95.4215C65.4498 94.9431 66.1945 94.2264 66.7067 93.3508C67.218 92.443 67.4867 91.4187 67.4867 90.3766C67.4867 89.3347 67.218 88.3103 66.7067 87.4025C66.1932 86.5265 65.4491 85.8084 64.5554 85.3265C63.5987 84.8318 62.5374 84.5736 61.4603 84.5736C60.3831 84.5736 59.3218 84.8318 58.3651 85.3265C57.472 85.8118 56.7282 86.5314 56.2138 87.4079C55.6987 88.3086 55.4277 89.3283 55.4277 90.3659C55.4277 91.4036 55.6987 92.4232 56.2138 93.324C56.7267 94.2017 57.4708 94.9216 58.3651 95.4054V95.4215ZM61.4683 94.9698C60.6358 94.9804 59.8149 94.7747 59.0858 94.3727C58.3878 93.9855 57.8092 93.4145 57.413 92.7216C57.0147 92.0033 56.8057 91.1954 56.8057 90.374C56.8057 89.5526 57.0147 88.7447 57.413 88.0264C57.8073 87.3334 58.3866 86.7637 59.0858 86.3806C59.8144 85.9769 60.6353 85.7693 61.4683 85.7783C62.2947 85.7673 63.1093 85.9751 63.8294 86.3806C64.5217 86.7693 65.0959 87.3379 65.4912 88.0264C65.8862 88.7458 66.0934 89.5533 66.0934 90.374C66.0934 91.1947 65.8862 92.0021 65.4912 92.7216C65.0963 93.4117 64.5221 93.9822 63.8294 94.3727C63.1088 94.7764 62.2942 94.9824 61.4683 94.9698ZM61.4683 86.0472C60.6829 86.0391 59.9087 86.2336 59.2202 86.6119C58.5647 86.9764 58.0201 87.5117 57.6444 88.1608C57.2706 88.8386 57.0745 89.6 57.0745 90.374C57.0745 91.148 57.2706 91.9094 57.6444 92.5871C58.0182 93.2391 58.5631 93.7766 59.2202 94.1415C59.9109 94.5111 60.6852 94.6963 61.4683 94.6793C62.2448 94.6978 63.0126 94.5123 63.6949 94.1415C64.3449 93.7728 64.8837 93.2359 65.2547 92.5871C65.6285 91.9094 65.8245 91.148 65.8245 90.374C65.8245 89.6 65.6285 88.8386 65.2547 88.1608C64.8821 87.5147 64.3436 86.98 63.6949 86.6119C63.0147 86.2327 62.2471 86.038 61.4683 86.0472Z" fill="white"/>
<path class="inverted" d="M71.0094 95.9054C70.301 95.6893 69.6478 95.3223 69.0947 94.8297L69.7079 93.539C70.2061 93.969 70.7833 94.2979 71.4073 94.5071C72.0964 94.7593 72.8249 94.8868 73.5586 94.8835C74.3079 94.9316 75.0551 94.7615 75.7099 94.3941C75.9298 94.2561 76.1105 94.0639 76.2347 93.836C76.359 93.6081 76.4228 93.3521 76.4199 93.0926C76.4263 92.9124 76.3951 92.7327 76.3285 92.5651C76.2618 92.3976 76.161 92.2457 76.0326 92.1191C75.7552 91.8637 75.4273 91.6695 75.07 91.549C74.5404 91.3718 74.0018 91.2228 73.4565 91.1026C72.7381 90.9403 72.0318 90.7282 71.3428 90.468C70.8117 90.2625 70.3391 89.93 69.966 89.4999C69.5645 89.0025 69.3614 88.3741 69.3959 87.7358C69.3882 87.1402 69.5586 86.5559 69.8853 86.0578C70.2544 85.5248 70.77 85.1101 71.3697 84.8638C72.1524 84.5441 72.9932 84.392 73.8383 84.4174C74.5211 84.4159 75.201 84.5045 75.8605 84.681C76.4714 84.8323 77.0504 85.0909 77.5708 85.4446L77.033 86.7731C76.55 86.4639 76.0246 86.2266 75.4734 86.0686C74.9496 85.912 74.4064 85.8305 73.8599 85.8265C73.1164 85.7803 72.3771 85.9684 71.7461 86.3643C71.5271 86.508 71.3477 86.7044 71.2246 86.9357C71.1014 87.1669 71.0385 87.4255 71.0417 87.6874C71.0346 87.8688 71.0664 88.0494 71.1351 88.2173C71.2038 88.3853 71.3076 88.5365 71.4396 88.6609C71.7239 88.9207 72.059 89.1185 72.4239 89.2418C72.9534 89.4163 73.4919 89.5617 74.0373 89.6774C74.7535 89.8414 75.4579 90.0534 76.1456 90.312C76.6703 90.5186 77.1383 90.8467 77.5116 91.2693C77.9122 91.7589 78.1155 92.3803 78.0817 93.0119C78.0887 93.6048 77.9161 94.186 77.5869 94.6792C77.2133 95.2187 76.687 95.6344 76.0757 95.8732C75.2866 96.1898 74.4407 96.3399 73.5909 96.3142C72.7137 96.3229 71.841 96.1847 71.0094 95.9054Z" fill="white"/>
<path class="inverted" d="M73.5423 96.4486C72.6669 96.4502 71.7969 96.3104 70.9661 96.0345C70.2435 95.8175 69.5747 95.4511 69.003 94.9588L68.9331 94.8888L69.6646 93.3453L69.799 93.4636C70.284 93.8844 70.8468 94.2061 71.4556 94.4102C72.1246 94.6523 72.8308 94.7761 73.5423 94.7759C74.2653 94.827 74.9872 94.6642 75.6183 94.308C75.8218 94.1843 75.9894 94.0095 76.1045 93.801C76.2196 93.5926 76.2781 93.3576 76.2744 93.1194C76.2818 92.9569 76.2544 92.7946 76.1941 92.6434C76.1339 92.4923 76.0421 92.3557 75.9249 92.2428C75.6644 91.9998 75.3544 91.8162 75.016 91.7049C74.4864 91.5279 73.9478 91.3788 73.4025 91.2585C72.6721 91.0951 71.9533 90.8831 71.2511 90.6239C70.7012 90.407 70.2107 90.0623 69.8205 89.6182C69.4004 89.0937 69.1863 88.4339 69.2182 87.7627C69.2191 87.1395 69.4064 86.5307 69.756 86.0148C70.1382 85.4597 70.6722 85.0265 71.2941 84.767C72.096 84.4413 72.9568 84.2855 73.8219 84.3099C74.5173 84.3103 75.2097 84.4007 75.8819 84.5787C76.5052 84.7383 77.0965 85.0039 77.6297 85.364L77.7212 85.4231L77.0704 86.999L76.936 86.913C76.4615 86.6132 75.9474 86.3815 75.4085 86.2245C74.8848 86.0688 74.3414 85.989 73.7951 85.9879C73.0832 85.9384 72.3734 86.1093 71.762 86.4773C71.5593 86.6079 71.3931 86.7881 71.2793 87.0008C71.1654 87.2135 71.1076 87.4516 71.1113 87.6928C71.103 87.8552 71.1303 88.0174 71.1917 88.1679C71.253 88.3186 71.3468 88.4538 71.4663 88.564C71.7384 88.808 72.0591 88.9913 72.4075 89.1019C72.9262 89.2757 73.4541 89.4211 73.9887 89.5375C74.7193 89.7002 75.438 89.9122 76.14 90.1722C76.6848 90.3904 77.171 90.7329 77.5598 91.1725C77.9794 91.6868 78.194 92.3382 78.1623 93.0011C78.1612 93.6227 77.9738 94.2297 77.6244 94.7437C77.2355 95.2987 76.6936 95.7285 76.0647 95.9807C75.2644 96.3063 74.4061 96.4655 73.5423 96.4486ZM69.2397 94.8351C69.7673 95.2699 70.376 95.5953 71.0307 95.7924C71.8331 96.0621 72.6743 96.1984 73.5207 96.1958C74.352 96.2193 75.1792 96.0729 75.9518 95.7655C76.5372 95.5335 77.042 95.1353 77.4039 94.62C77.7218 94.1427 77.887 93.5799 77.8772 93.0065C77.9109 92.4082 77.719 91.819 77.3394 91.3554C76.9811 90.9453 76.5291 90.628 76.0217 90.4303C75.342 90.1723 74.6447 89.9638 73.9349 89.8064C73.3893 89.6873 72.8507 89.5383 72.3215 89.36C71.938 89.2332 71.5858 89.0261 71.2888 88.7523C71.1422 88.6154 71.0268 88.4484 70.9507 88.2627C70.8745 88.0771 70.8395 87.8771 70.8478 87.6766C70.8457 87.3933 70.914 87.1138 71.0463 86.8632C71.1786 86.6126 71.371 86.3987 71.6061 86.2406C72.2652 85.8409 73.0312 85.6532 73.8005 85.7028C74.3634 85.7049 74.9231 85.7881 75.4624 85.9502C75.9739 86.0967 76.464 86.3101 76.9198 86.5849L77.3663 85.5092C76.8807 85.1991 76.3487 84.9685 75.7904 84.8262C75.141 84.6545 74.4722 84.5677 73.8005 84.568C72.9738 84.5418 72.1509 84.6901 71.3856 85.0036C70.808 85.2392 70.3111 85.6371 69.955 86.1492C69.6448 86.6295 69.4838 87.191 69.4924 87.7627C69.4581 88.3693 69.6498 88.9671 70.0302 89.4407C70.3903 89.8525 70.844 90.1716 71.3533 90.3711C72.037 90.6282 72.7378 90.8367 73.4508 90.9951C74.1501 91.1617 74.6986 91.3123 75.0644 91.4468C75.4399 91.5745 75.7844 91.7797 76.0755 92.0492C76.2185 92.1884 76.3306 92.3561 76.4048 92.5413C76.4789 92.7266 76.5133 92.9254 76.5057 93.1248C76.5116 93.4064 76.4437 93.6846 76.3088 93.9318C76.1739 94.1791 75.9767 94.3866 75.7366 94.534C75.0621 94.9298 74.2854 95.1169 73.5046 95.0718C72.7711 95.0677 72.0435 94.9385 71.3533 94.6899C70.7694 94.4894 70.2238 94.1912 69.7399 93.8079L69.2397 94.8351Z" fill="white"/>
<path class="inverted" d="M91.2204 96.1796V87.7196L87.0253 94.7706H86.2615L82.0666 87.7788V96.185H80.4531V84.5733H81.8084L86.6488 92.7323L91.4248 84.5733H92.7854V96.1796H91.2204Z" fill="white"/>
<path class="inverted" d="M92.9475 96.3142H91.0866V88.2091L87.0852 94.9051H86.1709L86.1278 94.8405L82.1856 88.2575V96.325H80.3247V84.439H81.8952L86.6602 92.4687L91.3609 84.439H92.9313V84.5734L92.9475 96.3142ZM91.3341 96.0453H92.6571V84.7079H91.5061L86.6656 92.9958L81.7392 84.6864H80.5937V96.0238H81.9167V87.2841L86.3214 94.6362H86.9292L91.3394 87.2357L91.3341 96.0453Z" fill="white"/>
<path class="inverted" d="M98.3689 95.5395C97.4452 95.0415 96.6779 94.2966 96.153 93.3881C95.6282 92.4635 95.3516 91.4183 95.3516 90.3548C95.3516 89.2913 95.6282 88.2462 96.153 87.3215C96.6807 86.4146 97.4471 85.6704 98.3689 85.1702C99.3457 84.6647 100.429 84.4008 101.528 84.4008C102.628 84.4008 103.712 84.6647 104.689 85.1702C105.604 85.6638 106.367 86.3984 106.893 87.2946C107.415 88.2242 107.69 89.2725 107.69 90.3386C107.69 91.4049 107.415 92.4532 106.893 93.3827C106.366 94.2772 105.603 95.0101 104.689 95.5018C103.713 96.0108 102.629 96.2766 101.528 96.2766C100.429 96.2766 99.3447 96.0108 98.3689 95.5018V95.5395ZM103.833 94.254C104.508 93.8734 105.066 93.3155 105.447 92.6405C105.831 91.9421 106.033 91.1576 106.033 90.3601C106.033 89.5627 105.831 88.7783 105.447 88.0798C105.066 87.4052 104.508 86.8474 103.833 86.4663C103.132 86.0736 102.34 85.8731 101.537 85.8854C100.729 85.8746 99.9311 86.0748 99.2244 86.4663C98.548 86.8452 97.99 87.4036 97.611 88.0798C97.2264 88.7783 97.0246 89.5627 97.0246 90.3601C97.0246 91.1576 97.2264 91.9421 97.611 92.6405C97.989 93.3173 98.548 93.8758 99.2244 94.254C99.9311 94.6456 100.729 94.8457 101.537 94.8349C102.34 94.8472 103.132 94.6468 103.833 94.254Z" fill="white"/>
<path class="inverted" d="M101.536 96.4487C100.411 96.4647 99.3006 96.1926 98.3097 95.6581C97.3727 95.1614 96.5892 94.4174 96.0455 93.5068C95.5064 92.5614 95.2231 91.4919 95.2231 90.4036C95.2231 89.3153 95.5064 88.2457 96.0455 87.3003C96.5864 86.3794 97.3699 85.6243 98.3097 85.1168C99.3063 84.5982 100.413 84.3275 101.536 84.3275C102.66 84.3275 103.767 84.5982 104.763 85.1168C105.695 85.6163 106.475 86.36 107.017 87.268C107.553 88.2175 107.834 89.2892 107.834 90.3794C107.834 91.4696 107.553 92.5413 107.017 93.4907C106.478 94.4012 105.698 95.1455 104.763 95.642C103.775 96.1827 102.664 96.4605 101.536 96.4487ZM98.4328 95.4215C99.3887 95.9197 100.451 96.1798 101.529 96.1798C102.606 96.1798 103.668 95.9197 104.624 95.4215C105.518 94.9431 106.263 94.2264 106.775 93.3508C107.286 92.443 107.555 91.4187 107.555 90.3766C107.555 89.3347 107.286 88.3103 106.775 87.4025C106.262 86.5265 105.517 85.8084 104.624 85.3265C103.667 84.8318 102.606 84.5736 101.529 84.5736C100.452 84.5736 99.3897 84.8318 98.4328 85.3265C97.5404 85.8118 96.7967 86.5314 96.2823 87.4079C95.7707 88.3099 95.5017 89.329 95.5017 90.3659C95.5017 91.4028 95.7707 92.422 96.2823 93.324C96.7948 94.2017 97.5395 94.9216 98.4328 95.4054V95.4215ZM101.536 94.9698C100.704 94.9804 99.8832 94.7747 99.1538 94.3727C98.4575 93.984 97.8786 93.4133 97.4817 92.7216C97.0828 92.0033 96.8744 91.1954 96.8744 90.374C96.8744 89.5526 97.0828 88.7447 97.4817 88.0264C97.8796 87.3362 98.4575 86.7673 99.1538 86.3806C99.8823 85.9769 100.704 85.7693 101.536 85.7783C102.363 85.7673 103.177 85.9751 103.897 86.3806C104.59 86.7693 105.164 87.3379 105.56 88.0264C105.955 88.7458 106.161 89.5533 106.161 90.374C106.161 91.1947 105.955 92.0021 105.56 92.7216C105.165 93.4117 104.591 93.9822 103.897 94.3727C103.177 94.7764 102.363 94.9824 101.536 94.9698ZM101.536 86.0472C100.751 86.0391 99.977 86.2336 99.2883 86.6119C98.6327 86.9764 98.088 87.5117 97.7128 88.1608C97.3386 88.8386 97.1425 89.6 97.1425 90.374C97.1425 91.148 97.3386 91.9094 97.7128 92.5871C98.088 93.238 98.6327 93.775 99.2883 94.1415C99.9789 94.5111 100.753 94.6963 101.536 94.6793C102.313 94.6978 103.081 94.5123 103.763 94.1415C104.411 93.7712 104.947 93.2346 105.317 92.5871C105.692 91.9094 105.888 91.148 105.888 90.374C105.888 89.6 105.692 88.8386 105.317 88.1608C104.946 87.5136 104.408 86.9785 103.758 86.6119C103.08 86.2329 102.313 86.0382 101.536 86.0472Z" fill="white"/>
<path class="inverted" d="M111.082 95.9054C110.372 95.6904 109.717 95.3234 109.163 94.8297L109.776 93.539C110.274 93.9679 110.852 94.2965 111.476 94.5071C112.164 94.7593 112.893 94.8868 113.626 94.8835C114.376 94.9321 115.123 94.7621 115.778 94.3941C115.997 94.2561 116.178 94.0639 116.302 93.836C116.427 93.6081 116.491 93.3521 116.488 93.0926C116.494 92.9124 116.464 92.7327 116.396 92.5651C116.33 92.3976 116.23 92.2457 116.101 92.1191C115.823 91.8637 115.495 91.6695 115.138 91.549C114.609 91.3718 114.07 91.2228 113.525 91.1026C112.806 90.9403 112.1 90.7282 111.411 90.468C110.88 90.2625 110.407 89.93 110.034 89.4999C109.632 89.0025 109.429 88.3741 109.463 87.7358C109.456 87.1402 109.626 86.5559 109.953 86.0578C110.323 85.5248 110.838 85.1101 111.438 84.8638C112.22 84.5441 113.062 84.392 113.907 84.4174C114.589 84.4159 115.269 84.5045 115.928 84.681C116.539 84.8323 117.118 85.0909 117.639 85.4446L117.101 86.7731C116.618 86.4639 116.092 86.2266 115.542 86.0686C115.018 85.9115 114.474 85.83 113.927 85.8265C113.185 85.7803 112.445 85.9684 111.814 86.3643C111.596 86.5087 111.417 86.7053 111.294 86.9364C111.171 87.1675 111.107 87.4257 111.11 87.6874C111.104 87.8686 111.136 88.0489 111.205 88.2165C111.274 88.3842 111.377 88.5357 111.508 88.6609C111.792 88.9207 112.127 89.1185 112.492 89.2418C113.022 89.4155 113.56 89.5609 114.106 89.6774C114.822 89.8414 115.526 90.0534 116.213 90.312C116.738 90.5186 117.206 90.8467 117.58 91.2693C117.98 91.7589 118.183 92.3803 118.15 93.0119C118.156 93.6048 117.984 94.186 117.655 94.6792C117.281 95.2187 116.755 95.6344 116.143 95.8732C115.355 96.1898 114.509 96.3399 113.659 96.3142C112.783 96.3229 111.912 96.1847 111.082 95.9054Z" fill="white"/>
<path class="inverted" d="M113.611 96.4486C112.738 96.4507 111.869 96.3108 111.04 96.0345C110.316 95.8182 109.646 95.4518 109.072 94.9588L109.002 94.8888L109.734 93.3453L109.868 93.4636C110.353 93.8844 110.916 94.2061 111.524 94.4102C112.194 94.6519 112.9 94.7756 113.611 94.7759C114.336 94.8271 115.06 94.6644 115.693 94.308C115.895 94.1829 116.06 94.0076 116.174 93.7994C116.289 93.591 116.346 93.3569 116.344 93.1194C116.351 92.9574 116.324 92.7955 116.265 92.6445C116.205 92.4934 116.115 92.3566 115.999 92.2428C115.736 92.0009 115.425 91.8176 115.085 91.7049C114.556 91.5275 114.017 91.3785 113.471 91.2585C112.741 91.0947 112.023 90.8827 111.32 90.6239C110.771 90.4056 110.28 90.0611 109.889 89.6182C109.469 89.0937 109.255 88.4339 109.288 87.7627C109.289 87.1395 109.475 86.5307 109.825 86.0148C110.207 85.4597 110.741 85.0265 111.363 84.767C112.165 84.4413 113.026 84.2855 113.891 84.3099C114.586 84.3103 115.279 84.4007 115.95 84.5787C116.575 84.7373 117.166 85.003 117.698 85.364L117.79 85.4231L117.139 86.999L117.005 86.913C116.532 86.6132 116.02 86.3815 115.483 86.2245C114.959 86.0696 114.416 85.9899 113.869 85.9879C113.158 85.9384 112.448 86.1093 111.836 86.4773C111.633 86.6079 111.467 86.7881 111.354 87.0008C111.24 87.2135 111.182 87.4516 111.186 87.6928C111.179 87.855 111.207 88.0167 111.269 88.1672C111.329 88.3175 111.422 88.4529 111.54 88.564C111.813 88.8067 112.134 88.99 112.482 89.1019C113.011 89.2773 113.55 89.4228 114.095 89.5375C114.826 89.6998 115.545 89.9119 116.247 90.1722C116.793 90.3888 117.279 90.7316 117.666 91.1725C118.089 91.6853 118.304 92.3378 118.269 93.0011C118.268 93.6227 118.08 94.2297 117.731 94.7437C117.341 95.3034 116.795 95.7356 116.161 95.9861C115.352 96.3135 114.484 96.4709 113.611 96.4486ZM109.308 94.8351C109.836 95.2699 110.445 95.5953 111.1 95.7924C111.902 96.0621 112.744 96.1984 113.59 96.1958C114.421 96.2193 115.248 96.0729 116.021 95.7655C116.606 95.5335 117.111 95.1353 117.473 94.62C117.791 94.1427 117.956 93.5799 117.947 93.0065C117.98 92.4082 117.788 91.819 117.408 91.3554C117.05 90.9453 116.598 90.628 116.091 90.4303C115.411 90.1723 114.713 89.9638 114.004 89.8064C113.459 89.6859 112.92 89.5369 112.39 89.36C112.007 89.2319 111.656 89.0248 111.358 88.7523C111.213 88.6145 111.098 88.4473 111.021 88.2619C110.945 88.0764 110.909 87.8769 110.917 87.6766C110.916 87.3935 110.984 87.1144 111.117 86.8639C111.249 86.6135 111.441 86.3995 111.675 86.2406C112.334 85.8409 113.1 85.6532 113.869 85.7028C114.433 85.7049 114.992 85.7881 115.532 85.9502C116.043 86.0967 116.533 86.3101 116.989 86.5849L117.435 85.5092C116.95 85.1991 116.417 84.9685 115.859 84.8262C115.21 84.6541 114.541 84.5674 113.869 84.568C113.043 84.5428 112.221 84.6913 111.454 85.0036C110.879 85.2401 110.384 85.6379 110.029 86.1492C109.715 86.628 109.552 87.1901 109.561 87.7627C109.53 88.369 109.721 88.9659 110.099 89.4407C110.459 89.8525 110.913 90.1716 111.422 90.3711C112.106 90.6275 112.807 90.8359 113.519 90.9951C114.219 91.1617 114.767 91.3123 115.133 91.4468C115.509 91.5745 115.854 91.7797 116.145 92.0492C116.288 92.1884 116.399 92.3561 116.473 92.5413C116.548 92.7266 116.582 92.9254 116.575 93.1248C116.58 93.4064 116.513 93.6846 116.378 93.9318C116.243 94.1791 116.045 94.3866 115.805 94.534C115.131 94.9298 114.354 95.1169 113.573 95.0718C112.84 95.0677 112.113 94.9385 111.422 94.6899C110.838 94.4894 110.293 94.1912 109.809 93.8079L109.308 94.8351Z" fill="white"/>
<path class="inverted" d="M122.661 86.0148H118.681V84.5733H128.287V86.0148H124.308V96.1796H122.661V86.0148Z" fill="white"/>
<path class="inverted" d="M124.469 96.3142H122.554V86.1493H118.554V84.439H128.428V86.1493H124.469V96.3142ZM122.823 96.0453H124.201V85.8803H128.181V84.6864H118.844V85.8588H122.823V96.0453Z" fill="white"/>
<path class="inverted" d="M136.909 93.2914H130.74L129.465 96.1903H127.755L133.015 84.584H134.629L139.904 96.1903H138.162L136.909 93.2914ZM136.328 91.963L133.827 86.2728L131.32 91.963H136.328Z" fill="white"/>
<path class="inverted" d="M140.136 96.3142H138.098L136.823 93.4099H130.832L129.551 96.3142H127.546L132.924 84.439H134.736L140.136 96.3142ZM138.276 96.0453H139.722L134.57 84.6864H133.101L127.966 96.0238H129.374L130.654 93.1195H137.001L138.276 96.0453ZM136.538 92.0869H131.117L133.806 85.9287L136.538 92.0869ZM131.526 91.8179H136.124L133.828 86.5957L131.526 91.8179Z" fill="white"/>
<path class="inverted" d="M143.379 86.0148H139.399V84.5733H148.999V86.0148H145.019V96.1796H143.406L143.379 86.0148Z" fill="white"/>
<path class="inverted" d="M145.153 96.3142H143.245V86.1493H139.265V84.439H149.133V86.1493H145.153V96.3142ZM143.54 96.0453H144.906V85.8803H148.886V84.6864H139.528V85.8588H143.508L143.54 96.0453Z" fill="white"/>
<path class="inverted" d="M150.823 84.5733H152.484V96.1796H150.823V84.5733Z" fill="white"/>
<path class="inverted" d="M152.603 96.3142H150.672V84.439H152.603V96.3142ZM150.941 96.0453H152.334V84.6864H150.941V96.0453Z" fill="white"/>
<path class="inverted" d="M158.025 95.5395C157.101 95.0415 156.334 94.2966 155.809 93.3881C155.284 92.4635 155.007 91.4183 155.007 90.3548C155.007 89.2913 155.284 88.2462 155.809 87.3215C156.336 86.4146 157.103 85.6704 158.025 85.1702C159.001 84.6647 160.084 84.4008 161.184 84.4008C162.284 84.4008 163.368 84.6647 164.344 85.1702C165.26 85.6624 166.023 86.3974 166.549 87.2946C167.071 88.2242 167.346 89.2725 167.346 90.3386C167.346 91.4049 167.071 92.4532 166.549 93.3827C166.023 94.2785 165.26 95.0117 164.344 95.5018C163.369 96.0108 162.285 96.2766 161.184 96.2766C160.084 96.2766 159 96.0108 158.025 95.5018V95.5395ZM163.489 94.254C164.164 93.8734 164.722 93.3155 165.102 92.6405C165.491 91.9432 165.695 91.1583 165.695 90.3601C165.695 89.5621 165.491 88.7772 165.102 88.0798C164.722 87.4052 164.164 86.8474 163.489 86.4663C162.788 86.0736 161.996 85.8731 161.193 85.8854C160.385 85.8746 159.587 86.0748 158.88 86.4663C158.202 86.8431 157.643 87.402 157.266 88.0798C156.878 88.7772 156.675 89.5621 156.675 90.3601C156.675 91.1583 156.878 91.9432 157.266 92.6405C157.642 93.3189 158.202 93.8779 158.88 94.254C159.587 94.6456 160.385 94.8457 161.193 94.8349C161.996 94.8472 162.788 94.6468 163.489 94.254Z" fill="white"/>
<path class="inverted" d="M161.192 96.4487C160.066 96.4647 158.955 96.1926 157.965 95.6581C157.027 95.1614 156.244 94.4174 155.701 93.5068C155.162 92.5614 154.877 91.4919 154.877 90.4036C154.877 89.3153 155.162 88.2457 155.701 87.3003C156.242 86.3794 157.025 85.6243 157.965 85.1168C158.962 84.5982 160.068 84.3275 161.192 84.3275C162.315 84.3275 163.422 84.5982 164.418 85.1168C165.351 85.6189 166.13 86.3618 166.677 87.268C167.209 88.2186 167.489 89.2899 167.489 90.3794C167.489 91.4689 167.209 92.5401 166.677 93.4907C166.134 94.4002 165.353 95.1441 164.418 95.642C163.429 96.1827 162.318 96.4605 161.192 96.4487ZM158.088 95.4215C159.044 95.9197 160.106 96.1798 161.183 96.1798C162.261 96.1798 163.323 95.9197 164.279 95.4215C165.174 94.9447 165.919 94.2276 166.43 93.3508C166.941 92.443 167.209 91.4187 167.209 90.3766C167.209 89.3347 166.941 88.3103 166.43 87.4025C165.918 86.5255 165.173 85.8071 164.279 85.3265C163.322 84.8318 162.26 84.5736 161.183 84.5736C160.106 84.5736 159.045 84.8318 158.088 85.3265C157.196 85.8118 156.451 86.5314 155.937 87.4079C155.425 88.3099 155.157 89.329 155.157 90.3659C155.157 91.4028 155.425 92.422 155.937 93.324C156.45 94.2017 157.194 94.9216 158.088 95.4054V95.4215ZM161.192 94.9698C160.361 94.9811 159.541 94.7754 158.815 94.3727C158.115 93.9859 157.535 93.4149 157.136 92.7216C156.738 92.0033 156.529 91.1954 156.529 90.374C156.529 89.5526 156.738 88.7447 157.136 88.0264C157.535 87.3347 158.116 86.7656 158.815 86.3806C159.54 85.9764 160.36 85.7687 161.192 85.7783C162.018 85.7673 162.832 85.9751 163.552 86.3806C164.245 86.7693 164.819 87.3379 165.214 88.0264C165.609 88.7458 165.817 89.5533 165.817 90.374C165.817 91.1947 165.609 92.0021 165.214 92.7216C164.819 93.4117 164.245 93.9822 163.552 94.3727C162.832 94.7764 162.018 94.9824 161.192 94.9698ZM161.192 86.0472C160.406 86.0391 159.631 86.2336 158.944 86.6119C158.288 86.9764 157.743 87.5117 157.367 88.1608C156.994 88.8386 156.798 89.6 156.798 90.374C156.798 91.148 156.994 91.9094 157.367 92.5871C157.743 93.238 158.287 93.775 158.944 94.1415C159.634 94.5104 160.408 94.6956 161.192 94.6793C161.969 94.6969 162.739 94.5116 163.424 94.1415C164.072 93.7727 164.609 93.2356 164.977 92.5871C165.352 91.9094 165.548 91.148 165.548 90.374C165.548 89.6 165.352 88.8386 164.977 88.1608C164.607 87.5151 164.071 86.9803 163.424 86.6119C162.742 86.2327 161.972 86.0381 161.192 86.0472Z" fill="white"/>
<path class="inverted" d="M179.865 84.5733V96.1796H178.505L171.512 87.5207V96.1796H169.856V84.5733H171.26L178.252 93.227V84.5733H179.865Z" fill="white"/>
<path class="inverted" d="M180 96.3142H178.441L178.403 96.2658L171.675 87.9134V96.325H169.75V84.439H171.309L171.347 84.4874L178.075 92.8452V84.439H180V96.3142ZM178.57 96.0453H179.731V84.6864H178.344V93.5874L171.18 84.6864H170.019V96.0238H171.406V87.1389L178.57 96.0453Z" fill="white"/>
<path class="inverted" d="M68.6073 82.4976L53.8555 97.2495L54.848 98.242L69.6 83.4902L68.6073 82.4976Z" fill="white"/>
<path class="inverted" d="M54.8473 98.4386L53.6641 97.2554L68.6049 82.3146L69.7881 83.4978L54.8473 98.4386ZM54.0459 97.2554L54.8473 98.0567L69.4063 83.4978L68.6049 82.691L54.0459 97.2554Z" fill="white"/>
</svg>
